<?xml version="1.0" encoding="UTF-8" standalone="no"?>
<svg
   width="626.71"
   height="226.80"
   viewBox="0 0 626.7063 226.8015"
   version="1.1"
   id="svg2"
   sodipodi:docname="frontview_foundation_and_yaxis.svg"
   inkscape:version="1.3 (0e150ed6c4, 2023-07-21)"
   xmlns:inkscape="http://www.inkscape.org/namespaces/inkscape"
   xmlns:sodipodi="http://sodipodi.sourceforge.net/DTD/sodipodi-0.dtd"
   xmlns="http://www.w3.org/2000/svg"
   xmlns:svg="http://www.w3.org/2000/svg">
  <defs
     id="defs2" />
  <sodipodi:namedview
     id="namedview2"
     pagecolor="#ffffff"
     bordercolor="#000000"
     borderopacity="0.25"
     inkscape:showpageshadow="2"
     inkscape:pageopacity="0.0"
     inkscape:pagecheckerboard="0"
     inkscape:deskcolor="#d1d1d1"
     inkscape:zoom="0.64086521"
     inkscape:cx="59.29484"
     inkscape:cy="-252.00307"
     inkscape:window-width="1920"
     inkscape:window-height="1009"
     inkscape:window-x="1912"
     inkscape:window-y="-8"
     inkscape:window-maximized="1"
     inkscape:current-layer="g2" />
  <g
     transform="matrix(1,0,0,-1,615.55994,-55.144369)"
     id="g2">
    <path
       d="m -298.39493,-119.97283 31.51571,0.55168 h 61.1 206.0699952 0.33 v -0.375 -1.077 -0.484 -1.377 -0.484 -0.953 -0.5 -0.1 -0.5 -2.5 -0.5 -1.25 -0.5 -3.15 -0.5 -0.25 -0.5 -1 -0.5 -4.5 -27.777 -2.245 -8.269 -4.49 -27.32 -6.35 h -1 -0.147 v -10 h 8.0000004 v -10 -4 h -8.0000004 l -0.353,-0.354 v -1.146 h 3.853 v -3 -3.035 -3.465 h -3.853 v -3.9 -1 -3.582 -0.519 -0.519 -3.581 -1 -13.399 -1.5 H -301.40222 v 40 h 250.875995 v 4 10 h 7.356 l -0.049,0.028 -0.379,0.182 -0.454,0.211 -0.804,0.299 -0.047,0.014 -0.476,0.132 v 0.003 l -0.303,0.086 -0.119,0.187 -0.078,0.123 v 2.235 l -0.5,0.5 v 5 l 1,1 h -1 v 6.35 27.32 4.49 4.291 H -301.40222 Z m -302.48429,-121.25332 -0.353,0.354 h -8 v 4 10 h 8 v 0.033 l -0.856,0.403 -1.594,0.519 -0.197,0.31 v 2.235 l -0.5,0.5 v 5 l 1,1 h -1 v 6.35 27.32 4.49 8.269 2.245 27.777 4.5 1.5 3.175 h 13 v 10 20 10.000003 h 3 36 3 v -10.000003 -18.175 h 250.84548 l -2.86848,-55 h -255.977 v -4.291 -4.49 -27.32 -6.35 h -1 l 1,-1 v -7.654 l -0.199,-0.282 -1.654,-0.458 v -0.606 h 8 v -10 -3.5 -0.5 h 150.353 99.477 v -40 h -99.477 -200 v 1.5 13.399 1 3.581 0.519 0.519 3.582 1 3.9 h -3.853 v 3.465 3.035 3 h 3.853 z"
       fill="#ffffff"
       fill-rule="evenodd"
       stroke="none"
       id="path1"
       sodipodi:nodetypes="ccccccccccccccccccccccccccccccccccccccccccccccccccccccccccccccccccccccccccccccccccccccccccccccccccccccccccccccccccccccccccccccccccccccccccccccccccccccc" />
    <path
       d="m -564.4604,-153.22965 -0.1257,-0.6227 -0.3429,-0.5086 -0.5086,-0.3429 -0.6228,-0.1258 -0.6228,0.1258 -0.5086,0.3429 -0.3429,0.5086 -0.1257,0.6227 0.1257,0.6228 0.3429,0.5086 0.5086,0.3429 0.6228,0.1257 0.6228,-0.1257 0.5086,-0.3429 0.3429,-0.5086 z m 535.999999,0 -0.1257,-0.6227 -0.3429,-0.5086 -0.5086,-0.3429 -0.6228,-0.1258 -0.6228,0.1258 -0.5086,0.3429 -0.3429,0.5086 -0.1257,0.6227 0.1257,0.6228 0.3429,0.5086 0.5086,0.3429 0.6228,0.1257 0.6228,-0.1257 0.5086,-0.3429 0.3429,-0.5086 z m -575.903399,-72.6873 1.5941,-0.5193 0.9273,-0.4359 m 32.782,72.6265 0.5,0.5 m 0,0 v 19.325 m 522.499999,-91.5744 v -0.0114 m -557.999999,0.0114 v -0.0114 m 556.806299,-14.8657 v 8.3 m 4.0469,0 h -4.0469 m -506.806299,83.2425 v -7.8 m -2.6,7.8 v -7.8 m -11.9,7.8 h 20.5 m 0,-7.8 h -23 m 23,7.8 v -7.8 m -23,2.884 v -2.884 m 522.999999,0 v 7.8 m 0,0 h 23 m -17,-7.8 v 7.8 m 17,-7.8 h -23 m 8.6,0 v 7.8 m 14.4,-7.8 v 7.8 m -563.999999,28.084 v -10 m 3,10 h -6 m 6,0 v 20 m 0,0 h -6 m 3,10.000003 v -10.000003 m -3,10.000003 h 42 m -3,0 v -10.000003 m -3,0 h 6 m -6,-20 v 20 m 0,-20 h 6 m -3,0 v -10 m -52,0 h 55 m -42,0 v 40.000003 m 42,-43.175003 v 43.175003 m -19,-63.000003 h -3.2819 m 0,0 v 19.825 m 0,-19.325 h 3.7819 m -36.5,19.325 H -0.06040081 m 0,4.4 H -550.0604 m 0,-3.65 H -0.06040081 m 0,5.4 H -206.4604 m 0.044,0 h -343.64397 m 549.99999919,3.6 H -206.46037 m 30.47179,0 h -374.07179 m 0,5.25 h 211.4 m -48.46516,0 H -0.06037081 m 0,-5.85 H -341.43504 m 2.77467,0 h -211.4 m -8,-15.55 h 510.999999 m -510.999999,-27.2 h 510.999999 m -510.999999,-6.4 h 510.999999 m -510.999999,26.4 h 510.999999 m -510.999999,-12.8 h 510.999999 m -510.999999,-6.7 h 510.999999 m -510.999999,6.2 h 510.999999 m -510.999999,13.8 h 510.999999 m -510.999999,6.2 h 510.999999 m -510.999999,-26.0101 h 510.999999 m -510.999999,5.8201 h 510.999999 m -510.999999,14.1799 h 510.999999 m -510.999999,5.8201 h 510.999999 m -510.999999,-23.4296 h 510.999999 m -510.999999,0.5196 h 510.999999 m -510.999999,19.4804 h 510.999999 m -510.999999,0.5196 h 510.999999 m -510.999999,-19.4804 h 510.999999 m -510.999999,20 h 510.999999 m 47.00000019,24.4804 v -97.4515 m 0,0 H -1.2072008 m -42.0000002,0 h -3.8532 m 0,59.7425 v -59.7425 m 47.00000019,46.4288 H -47.060401 m 47.00000019,2.2451 H -47.060401 m 47.00000019,27.7776 H -47.060401 m 0,0 v -8.909 m -510.999999,-7.8 v -59.7425 m 0,0 h -1.8532 m -42,0 h -3.1468 m 0,85.6265 v -85.6265 m 47,46.4288 h -47 m 47,2.2451 h -47 m 47,27.7776 h -10.5 m -3.7819,0 h -32.7181 m 47,0 v -8.909 m 511.499999,-76.278 0.1966,-0.3093 m -0.1966,0.3093 v 2.2355 m 0,0 -0.5,0.5 m 0,5 v -5 m 1,6 -1,-1 m 47.00000019,0 -0.99999999,1 m 0.99999999,-8.6543 v 7.6543 m -0.1986,-7.9364 0.1986,0.2821 m -0.99999999,-0.4686 0.80139999,0.1865 m -604.30139919,0.2009 0.1966,-0.3093 m -0.1966,0.3093 v 2.2355 m 0,0 -0.5,0.5 m 0,5 v -5 m 1,6 -1,-1 m 47,0 -1,1 m 1,-8.6543 v 7.6543 m -0.1986,-7.9364 0.1986,0.2821 m -1.8532,-0.7398 1.6546,0.4577 m -43.6546,50.1114 v -65.175 m 42,65.175 h -42 m 42,-65.175 v 65.175 m 0,-58 h -42 m 3,15.825 h 36 m -39,3 3,-3 m 0,42 -3,-3 m 39,3 h -36 m 39,-3 -3,3 m 0,-42 3,3 m 558.7063992,36 -3,3 m 3,-65 v 65.175 m -3,-42.175 3,3 m -39.0000002,-3 h 36.0000002 m -39.0000002,3 3,-3 m 36.0000002,42 H -40.207201 m 0,0 -3,-3 m 0,3.175 v -65.175 m 0,7.175 h 42.0000002 m -42.0000002,58 H -1.2072008 M -609.9136,-240.87215 H 6.7927992 m -608.3531992,-7.5353 h -3.8532 m 3.8532,-3.4647 h -3.8532 m 0,0 v 9.5 m 3.8532,-3 h -3.8532 m 603.8531992,-6.5 h 3.8532 m -3.8532,3.4647 h 3.8532 m 0,6.0353 v -9.5 m -3.8532,6.5 h 3.8532 m -607.7063992,3 H 2.2927992 m -554.2063992,15.5 v -14 m -58,4 h 8 m 50,0 h -8 m -50,-4 v 14 m 616.7063992,0 v -14 m -58.0000002,0 v 14 m 3.9531,-10 h -3.9531 m 58.0000002,0 h -8 m 0,10 h 8 m -58.0000002,0 h 7.3648 m -516.071199,0 h 8 m -58,0 h 8 m 0.3532,-28.9 H -1.5604008 m -599.9999992,-23.6 H -1.5604008 m -599.9999992,13.399 H -1.5604008 m 0,-14.899 v 40 m -599.9999992,-40 v 40 m 200,-1.5 v 1.5 m -200,-40 H -1.5604008 m -399.9999992,0 v 1.5 m -200,14.399 H -1.5604008 m -599.9999992,8.201 H -1.5604008 m -599.9999992,-3.582 H -1.5604008 m -599.9999992,-0.519 H -1.5604008 m -599.9999992,-0.519 H -1.5604008 m 1.49999999,140.035 H -387.12556 m 48.46516,0 h -211.4 m 0,-1.377 h 211.4 m -48.46516,0 H -0.06040081 m -549.99999919,1.8611 h 211.4 m -48.46516,0 H -0.06040081 m 0,-2.3452 H -387.12556 m 48.46516,0 h -211.4 m 549.99999919,3.4226 H -387.12556 m 48.46516,0 h -211.4 m -55,-16.125 h 32.7181 m 3.7819,0 H -0.06040081 m -557.99999919,-37 h 510.999999 m 47.00000019,-37.6015 H -1.2072008 m -42.0000002,0 h -3.8532 m 47.00000019,27.3202 H -1.2072008 m -42.0000002,0 h -3.8532 m 47.00000019,4.4901 H -1.2072008 m -42.0000002,0 h -3.8532 m -510.999999,-31.8103 h -1.8532 m -42,0 h -3.1468 m 47,27.3202 h -1.8532 m -42,0 h -3.1468 m 47,4.4901 h -1.8532 m -42,0 h -3.1468 m 561.853199,-8.2607 -1.0296,-2.3832 -0.7353,-2.4617 -0.4412,-2.5143 -0.1471,-2.5404 0.1471,-2.5404 0.4412,-2.5143 0.7353,-2.4617 1.0296,-2.3832 m 0,20.8655 -1.2483,-2.6197 -0.8916,-2.724 -0.535,-2.7937 -0.1783,-2.8285 0.1783,-2.8285 0.535,-2.7937 0.8916,-2.724 1.2483,-2.6197 m 42.0000002,8.3995 0.1101,1.2816 0.0367,1.2848 -0.0367,1.2848 -0.1101,1.2816 m -42.0000002,-32.9303 -0.7481,0.4228 -0.7779,0.3618 -0.8041,0.2993 -0.8265,0.2352"
       fill="none"
       stroke="#000000"
       stroke-width="1"
       stroke-linecap="round"
       stroke-linejoin="round"
       id="path2"
       sodipodi:nodetypes="ccccccccccccccccccccccccccccccccccccccccccccccccccccccccccccccccccccccccccccccccccccccccccccccccccccccccccccccccccccccccccccccccccccccccccccccccccccccccccccccccccccccccccccccccccccccccccccccccccccccccccccccccccccccccccccccccccccccccccccccccccccccccccccccccccccccccccccccccccccccccccccccccccccccccccccccccccccccccccccccccccccccccccccccccccccccccccccccccccccccccccccccccccccccccccccccccccccccccccccccccccccccccccccccccccccccccc" />
  </g>
</svg>
