<svg xmlns="http://www.w3.org/2000/svg" width="626.71" height="226.80" viewBox="0 0 626.7063 226.8015" version="1.1">
<g transform="translate(613.3532,221.8015) scale(1,-1)">
<path d="M -337.2734 174.0265 L -337.2734 176.4015 L -336.8734 176.4015 L -336.8734 176.8015 L -331.8734 176.8015 L -331.8734 216.4015 L -331.4734 216.4015 L -331.4734 216.8015 L -290.2734 216.8015 L -290.2734 216.4015 L -289.8734 216.4015 L -289.8734 176.8015 L -201.7234 176.8015 L -201.7234 176.4015 L -201.3234 176.4015 L -201.3234 174.0265 L -201.7234 174.0265 L -201.7234 173.6265 L -204.9000 173.6265 L -204.9000 168.9515 L -199.8000 168.9515 L -199.8000 166.9563 L -199.0491 166.9470 L -199.0007 168.9188 L -198.9123 168.9035 L -198.7925 168.8766 L -198.6743 168.8438 L -198.5578 168.8054 L -198.4433 168.7612 L -198.3311 168.7115 L -198.2215 168.6563 L -198.1147 168.5958 L -198.0111 168.5302 L -197.9108 168.4595 L -197.8140 168.3840 L -197.7211 168.3039 L -197.6322 168.2193 L -197.5476 168.1304 L -197.4675 168.0375 L -197.3920 167.9407 L -197.3213 167.8404 L -197.2557 167.7368 L -197.1952 167.6300 L -197.1400 167.5204 L -197.0903 167.4082 L -197.0461 167.2937 L -197.0076 167.1772 L -196.9749 167.0589 L -196.9480 166.9392 L -196.9271 166.8183 L -196.9120 166.6965 L -196.9030 166.5742 L -196.9000 166.4515 L -196.9030 166.3288 L -196.9120 166.2065 L -196.9271 166.0847 L -196.9480 165.9638 L -196.9749 165.8440 L -197.0076 165.7258 L -197.0461 165.6093 L -197.0903 165.4948 L -197.1400 165.3826 L -197.1952 165.2730 L -197.2557 165.1662 L -197.3213 165.0626 L -197.3920 164.9623 L -197.4675 164.8655 L -197.5476 164.7726 L -197.6322 164.6837 L -197.7211 164.5991 L -197.8140 164.5190 L -197.9108 164.4435 L -198.0111 164.3728 L -198.1147 164.3072 L -198.2215 164.2467 L -198.3311 164.1915 L -198.4433 164.1418 L -198.5578 164.0976 L -198.6743 164.0591 L -198.7925 164.0264 L -198.9123 163.9995 L -199.0007 163.9842 L -199.0491 165.9560 L -199.8000 165.9467 L -199.8000 163.9515 L -204.9000 163.9515 L -204.9000 60.8515 L -205.3000 60.8515 L -205.3000 60.4515 L -308.8734 60.4515 L -308.8734 34.2015 L -309.2734 34.2015 L -309.2734 33.8015 L -312.4734 33.8015 L -312.4734 34.2015 L -312.8734 34.2015 L -312.8734 60.4515 L -336.7000 60.4515 L -336.7000 60.8515 L -337.1000 60.8515 L -337.1000 174.0265 L -337.2734 174.0265 Z" fill="#ffffff" fill-rule="evenodd" stroke="none"/>
<path d="M -302.9264 159.8015 L -302.9250 159.9095 L -302.9234 160.0167 L -302.9213 160.1223 L -302.9184 160.2253 L -302.9145 160.3251 L -302.9098 160.4213 L -302.9046 160.5135 L -302.8990 160.6014 L -302.8933 160.6850 L -302.8880 160.7622 L -302.8833 160.8313 L -302.8797 160.8907 L -302.8777 160.9302 L -302.8765 160.9643 L -302.8756 160.9947 L -302.8750 161.0234 M -302.8743 158.5728 L -302.8740 158.5742 L -302.8738 158.5756 L -302.8736 158.5771 L -302.8734 158.5787 L -302.8731 158.6080 L -302.8753 158.6544 L -302.8793 158.7133 L -302.8841 158.7803 L -302.8893 158.8525 L -302.8945 158.9291 L -302.8997 159.0106 L -302.9049 159.0976 L -302.9100 159.1909 L -302.9148 159.2893 L -302.9190 159.3917 L -302.9222 159.4970 L -302.9238 159.5723 L -302.9249 159.6483 L -302.9257 159.7248 L -302.9264 159.8015 M -302.9264 147.8015 L -302.9250 147.9095 L -302.9234 148.0167 L -302.9213 148.1223 L -302.9184 148.2253 L -302.9145 148.3251 L -302.9098 148.4213 L -302.9046 148.5135 L -302.8990 148.6014 L -302.8933 148.6850 L -302.8880 148.7622 L -302.8833 148.8313 L -302.8797 148.8907 L -302.8777 148.9302 L -302.8765 148.9643 L -302.8756 148.9947 L -302.8750 149.0234 M -302.8743 146.5728 L -302.8740 146.5742 L -302.8738 146.5756 L -302.8736 146.5771 L -302.8734 146.5787 L -302.8731 146.6080 L -302.8753 146.6544 L -302.8793 146.7133 L -302.8841 146.7803 L -302.8893 146.8525 L -302.8945 146.9291 L -302.8997 147.0106 L -302.9049 147.0976 L -302.9100 147.1909 L -302.9148 147.2893 L -302.9190 147.3917 L -302.9222 147.4970 L -302.9238 147.5723 L -302.9249 147.6483 L -302.9257 147.7248 L -302.9264 147.8015 M -314.7000 104.2496 m -0.8600 0 a 0.8600 0.8600 0 1 0 1.7200 0 a 0.8600 0.8600 0 1 0 -1.7200 0 Z M -306.7000 104.2496 m -0.8600 0 a 0.8600 0.8600 0 1 0 1.7200 0 a 0.8600 0.8600 0 1 0 -1.7200 0 Z M -235.3000 130.6601 m -0.8600 0 a 0.8600 0.8600 0 1 0 1.7200 0 a 0.8600 0.8600 0 1 0 -1.7200 0 Z M -227.3000 130.6601 m -0.8600 0 a 0.8600 0.8600 0 1 0 1.7200 0 a 0.8600 0.8600 0 1 0 -1.7200 0 Z M -235.3000 99.6601 m -0.8600 0 a 0.8600 0.8600 0 1 0 1.7200 0 a 0.8600 0.8600 0 1 0 -1.7200 0 Z M -227.3000 99.6601 m -0.8600 0 a 0.8600 0.8600 0 1 0 1.7200 0 a 0.8600 0.8600 0 1 0 -1.7200 0 Z M -314.7000 135.2496 m -0.8600 0 a 0.8600 0.8600 0 1 0 1.7200 0 a 0.8600 0.8600 0 1 0 -1.7200 0 Z M -306.7000 135.2496 m -0.8600 0 a 0.8600 0.8600 0 1 0 1.7200 0 a 0.8600 0.8600 0 1 0 -1.7200 0 Z M -231.3000 65.4515 m -1.7999 0 a 1.7999 1.7999 0 1 0 3.5999 0 a 1.7999 1.7999 0 1 0 -3.5999 0 Z M -231.3000 80.4515 m -1.7999 0 a 1.7999 1.7999 0 1 0 3.5999 0 a 1.7999 1.7999 0 1 0 -3.5999 0 Z M -231.3000 110.4515 m -1.7999 0 a 1.7999 1.7999 0 1 0 3.5999 0 a 1.7999 1.7999 0 1 0 -3.5999 0 Z M -231.3000 155.4515 m -1.7999 0 a 1.7999 1.7999 0 1 0 3.5999 0 a 1.7999 1.7999 0 1 0 -3.5999 0 Z M -231.3000 65.4515 m -1.2000 0 a 1.2000 1.2000 0 1 0 2.4000 0 a 1.2000 1.2000 0 1 0 -2.4000 0 Z M -231.3000 80.4515 m -1.2000 0 a 1.2000 1.2000 0 1 0 2.4000 0 a 1.2000 1.2000 0 1 0 -2.4000 0 Z M -231.3000 110.4515 m -1.2000 0 a 1.2000 1.2000 0 1 0 2.4000 0 a 1.2000 1.2000 0 1 0 -2.4000 0 Z M -231.3000 140.4515 m -1.2000 0 a 1.2000 1.2000 0 1 0 2.4000 0 a 1.2000 1.2000 0 1 0 -2.4000 0 Z M -231.3000 155.4515 m -1.2000 0 a 1.2000 1.2000 0 1 0 2.4000 0 a 1.2000 1.2000 0 1 0 -2.4000 0 Z M -302.8734 161.0234 L -302.8734 165.7015 M -302.8734 149.0234 L -302.8734 158.5728 M -302.8734 141.9015 L -302.8734 146.5728 M -318.8734 165.7015 L -318.8734 141.9015 M -318.8734 141.9015 L -318.7734 141.8015 M -302.9734 141.8015 L -302.8734 141.9015 M -302.8734 165.7015 L -302.9734 165.8015 M -318.7734 165.8015 L -318.8734 165.7015 M -312.8734 141.8015 L -312.8734 33.8015 M -308.8734 33.8015 L -308.8734 141.8015 M -313.1950 127.2496 L -313.1950 112.2496 M -313.1950 96.2496 L -313.1950 60.4515 M -308.2050 60.4515 L -308.2050 96.2496 M -308.2050 112.2496 L -308.2050 127.2496 M -233.7950 160.4515 L -233.7950 138.6601 M -233.7950 122.6601 L -233.7950 107.6601 M -233.7950 91.6601 L -233.7950 60.4515 M -228.8050 60.4515 L -228.8050 91.6601 M -228.8050 107.6601 L -228.8050 122.6601 M -228.8050 138.6601 L -228.8050 160.4515 M -313.3734 173.6265 L -313.3734 165.8015 M -308.3734 165.8015 L -308.3734 173.6265 M -204.9000 163.9515 L -199.4000 163.9515 M -199.4000 168.9515 L -204.9000 168.9515 M -318.8734 141.9015 L -302.8734 141.9015 M -302.8734 165.7015 L -318.8734 165.7015 M -302.9734 141.8015 L -318.7734 141.8015 M -318.7734 165.8015 L -302.9734 165.8015 M -308.8734 33.8015 L -312.8734 33.8015 M -337.2734 176.8015 L -337.2734 173.6265 M -201.3234 176.8015 L -201.3234 173.6265 M -337.2734 173.6265 L -201.3234 173.6265 M -316.2000 99.4496 L -316.2000 109.0496 M -312.8734 99.4496 L -316.7000 99.4496 M -316.7000 99.4496 L -316.7000 109.0496 M -312.8734 109.0496 L -316.7000 109.0496 M -305.2000 99.4496 L -305.2000 109.0496 M -304.7000 109.0496 L -308.8734 109.0496 M -304.7000 99.4496 L -308.8734 99.4496 M -304.7000 99.4496 L -304.7000 109.0496 M -304.9200 96.2496 L -304.9200 99.4496 M -304.8000 96.2496 L -308.8734 96.2496 M -312.8734 96.2496 L -316.6000 96.2496 M -316.4800 99.4496 L -316.4800 96.2496 M -316.6000 96.2496 L -316.6000 99.4496 M -304.9200 109.0496 L -304.9200 112.2496 M -316.4800 112.2496 L -316.4800 109.0496 M -304.8000 112.2496 L -308.8734 112.2496 M -312.8734 112.2496 L -316.6000 112.2496 M -316.6000 109.0496 L -316.6000 112.2496 M -304.8000 112.2496 L -304.8000 109.0496 M -304.8000 99.4496 L -304.8000 96.2496 M -236.8000 125.8601 L -236.8000 135.4601 M -237.3000 125.8601 L -237.3000 135.4601 M -233.0000 125.8601 L -233.0000 135.4601 M -232.7000 125.8601 L -232.7000 135.4601 M -225.8000 125.8601 L -225.8000 135.4601 M -229.6000 125.8601 L -229.6000 135.4601 M -225.3000 135.4601 L -237.3000 135.4601 M -225.3000 125.8601 L -237.3000 125.8601 M -229.9000 125.8601 L -229.9000 135.4601 M -225.3000 125.8601 L -225.3000 135.4601 M -237.2000 122.6601 L -237.2000 125.8601 M -237.0800 125.8601 L -237.0800 122.6601 M -225.4000 122.6601 L -237.2000 122.6601 M -225.5200 122.6601 L -225.5200 125.8601 M -225.5200 135.4601 L -225.5200 138.6601 M -237.0800 138.6601 L -237.0800 135.4601 M -225.4000 138.6601 L -237.2000 138.6601 M -237.2000 135.4601 L -237.2000 138.6601 M -225.4000 138.6601 L -225.4000 135.4601 M -225.4000 125.8601 L -225.4000 122.6601 M -236.8000 94.8601 L -236.8000 104.4601 M -237.3000 94.8601 L -237.3000 104.4601 M -233.0000 94.8601 L -233.0000 104.4601 M -232.7000 94.8601 L -232.7000 104.4601 M -225.8000 94.8601 L -225.8000 104.4601 M -229.6000 94.8601 L -229.6000 104.4601 M -225.3000 104.4601 L -237.3000 104.4601 M -225.3000 94.8601 L -237.3000 94.8601 M -229.9000 94.8601 L -229.9000 104.4601 M -225.3000 94.8601 L -225.3000 104.4601 M -237.2000 91.6601 L -237.2000 94.8601 M -237.0800 94.8601 L -237.0800 91.6601 M -225.4000 91.6601 L -237.2000 91.6601 M -225.5200 104.4601 L -225.5200 107.6601 M -237.0800 107.6601 L -237.0800 104.4601 M -225.4000 107.6601 L -237.2000 107.6601 M -225.5200 91.6601 L -225.5200 94.8601 M -237.2000 104.4601 L -237.2000 107.6601 M -225.4000 107.6601 L -225.4000 104.4601 M -225.4000 94.8601 L -225.4000 91.6601 M -316.2000 130.4496 L -316.2000 140.0496 M -312.8734 130.4496 L -316.7000 130.4496 M -316.7000 130.4496 L -316.7000 140.0496 M -312.8734 140.0496 L -316.7000 140.0496 M -305.2000 130.4496 L -305.2000 140.0496 M -304.7000 140.0496 L -308.8734 140.0496 M -304.7000 130.4496 L -308.8734 130.4496 M -304.7000 130.4496 L -304.7000 140.0496 M -316.6000 127.2496 L -316.6000 130.4496 M -316.4800 130.4496 L -316.4800 127.2496 M -312.8734 127.2496 L -316.6000 127.2496 M -304.9200 127.2496 L -304.9200 130.4496 M -304.8000 127.2496 L -308.8734 127.2496 M -304.9200 140.0496 L -304.9200 141.8015 M -316.4800 141.8015 L -316.4800 140.0496 M -316.6000 140.0496 L -316.6000 141.8015 M -304.8000 130.4496 L -304.8000 127.2496 M -304.8000 141.8015 L -304.8000 140.0496 M -312.8734 60.4515 L -337.1000 60.4515 M -313.2000 60.4515 L -313.2000 96.2496 M -313.2000 112.2496 L -313.2000 127.2496 M -308.2000 127.2496 L -308.2000 112.2496 M -308.2000 96.2496 L -308.2000 60.4515 M -204.9000 60.4515 L -308.8734 60.4515 M -233.8000 160.4515 L -228.8000 160.4515 M -233.8000 60.4515 L -233.8000 91.6601 M -233.8000 107.6601 L -233.8000 122.6601 M -233.8000 138.6601 L -233.8000 160.4515 M -228.8000 160.4515 L -228.8000 138.6601 M -228.8000 122.6601 L -228.8000 107.6601 M -228.8000 91.6601 L -228.8000 60.4515 M -337.1000 60.4515 L -337.1000 173.6265 M -204.9000 173.6265 L -204.9000 60.4515 M -292.8734 216.8015 L -292.8734 206.8015 M -295.8734 206.8015 L -289.8734 206.8015 M -295.8734 186.8015 L -295.8734 206.8015 M -289.8734 186.8015 L -295.8734 186.8015 M -292.8734 186.8015 L -292.8734 176.8015 M -337.2734 176.8015 L -201.3234 176.8015 M -328.8734 186.8015 L -328.8734 176.8015 M -325.8734 186.8015 L -331.8734 186.8015 M -325.8734 186.8015 L -325.8734 206.8015 M -325.8734 206.8015 L -331.8734 206.8015 M -328.8734 216.8015 L -328.8734 206.8015 M -331.8734 216.8015 L -289.8734 216.8015 M -331.8734 176.8015 L -331.8734 216.8015 M -289.8734 176.8015 L -289.8734 216.8015 M -312.9000 127.2496 L -312.9000 112.2496 M -312.9000 96.2496 L -312.9000 60.4515 M -313.1851 127.2496 L -313.1851 112.2496 M -313.1851 96.2496 L -313.1851 60.4515 M -308.5000 60.4515 L -308.5000 96.2496 M -308.5000 112.2496 L -308.5000 127.2496 M -308.2149 60.4515 L -308.2149 96.2496 M -308.2149 112.2496 L -308.2149 127.2496 M -233.5000 160.4515 L -233.5000 138.6601 M -233.5000 122.6601 L -233.5000 107.6601 M -233.5000 91.6601 L -233.5000 60.4515 M -233.7851 160.4515 L -233.7851 138.6601 M -233.7851 122.6601 L -233.7851 107.6601 M -233.7851 91.6601 L -233.7851 60.4515 M -229.1000 60.4515 L -229.1000 91.6601 M -229.1000 107.6601 L -229.1000 122.6601 M -229.1000 138.6601 L -229.1000 160.4515 M -228.8149 60.4515 L -228.8149 91.6601 M -228.8149 107.6601 L -228.8149 122.6601 M -228.8149 138.6601 L -228.8149 160.4515 M -204.9000 167.2765 L -308.3734 167.2765 M -313.3734 167.2765 L -337.1000 167.2765 M -199.4000 163.9515 L -199.4000 168.9515 M -199.4000 163.9515 L -199.2773 163.9545 L -199.1550 163.9635 L -199.0332 163.9786 L -198.9123 163.9995 L -198.7925 164.0264 L -198.6743 164.0591 L -198.5578 164.0976 L -198.4433 164.1418 L -198.3311 164.1915 L -198.2215 164.2467 L -198.1147 164.3072 L -198.0111 164.3728 L -197.9108 164.4435 L -197.8140 164.5190 L -197.7211 164.5991 L -197.6322 164.6837 L -197.5476 164.7726 L -197.4675 164.8655 L -197.3920 164.9623 L -197.3213 165.0626 L -197.2557 165.1662 L -197.1952 165.2730 L -197.1400 165.3826 L -197.0903 165.4948 L -197.0461 165.6093 L -197.0076 165.7258 L -196.9749 165.8440 L -196.9480 165.9638 L -196.9271 166.0847 L -196.9120 166.2065 L -196.9030 166.3288 L -196.9000 166.4515 L -196.9030 166.5742 L -196.9120 166.6965 L -196.9271 166.8183 L -196.9480 166.9392 L -196.9749 167.0589 L -197.0076 167.1772 L -197.0461 167.2937 L -197.0903 167.4082 L -197.1400 167.5204 L -197.1952 167.6300 L -197.2557 167.7368 L -197.3213 167.8404 L -197.3920 167.9407 L -197.4675 168.0375 L -197.5476 168.1304 L -197.6322 168.2193 L -197.7211 168.3039 L -197.8140 168.3840 L -197.9108 168.4595 L -198.0111 168.5302 L -198.1147 168.5958 L -198.2215 168.6563 L -198.3311 168.7115 L -198.4433 168.7612 L -198.5578 168.8054 L -198.6743 168.8438 L -198.7925 168.8766 L -198.9123 168.9035 L -199.0332 168.9244 L -199.1550 168.9395 L -199.2773 168.9485 L -199.4000 168.9515 M -231.1246 138.6601 L -230.9553 138.6849 L -230.7890 138.7256 L -230.6274 138.7819 L -230.4719 138.8534 L -230.3238 138.9392 L -230.1846 139.0388 L -230.0555 139.1511 L -229.9376 139.2752 L -229.8320 139.4099 L -229.7397 139.5541 L -229.6615 139.7063 L -229.5982 139.8653 L -229.5502 140.0296 L -229.5180 140.1977 L -229.5020 140.3681 L -229.5022 140.5393 L -229.5187 140.7096 L -229.5512 140.8777 L -229.5996 141.0418 L -229.6634 141.2007 L -229.7419 141.3527 L -229.8346 141.4967 L -229.9405 141.6311 L -230.0587 141.7549 L -230.1881 141.8669 L -230.3275 141.9661 L -230.4758 142.0517 L -230.6315 142.1227 L -230.7933 142.1787 L -230.9596 142.2190 L -231.1290 142.2433 L -231.3000 142.2514 L -231.4710 142.2433 L -231.6404 142.2190 L -231.8067 142.1787 L -231.9685 142.1227 L -232.1242 142.0517 L -232.2725 141.9661 L -232.4119 141.8669 L -232.5413 141.7549 L -232.6595 141.6311 L -232.7654 141.4967 L -232.8581 141.3527 L -232.9366 141.2007 L -233.0004 141.0418 L -233.0488 140.8777 L -233.0813 140.7096 L -233.0978 140.5393 L -233.0980 140.3681 L -233.0820 140.1977 L -233.0498 140.0296 L -233.0018 139.8653 L -232.9385 139.7063 L -232.8603 139.5541 L -232.7680 139.4099 L -232.6624 139.2752 L -232.5445 139.1511 L -232.4154 139.0388 L -232.2762 138.9392 L -232.1281 138.8534 L -231.9726 138.7819 L -231.8110 138.7256 L -231.6447 138.6849 L -231.4754 138.6601" fill="none" stroke="#000000" stroke-width="1.0" stroke-linecap="round" stroke-linejoin="round"/>
</g>
</svg>