<svg xmlns="http://www.w3.org/2000/svg" width="530.00" height="226.80" viewBox="0 0 530.0000 226.8015" version="1.1">
<g transform="translate(525.0000,221.8015) scale(1,-1)">
<path d="M -245.3727 173.6265 L -245.3727 174.0265 L -245.7727 174.0265 L -245.7727 176.8015 L -246.8543 176.8015 L -246.8543 177.2015 L -247.2543 177.2015 L -247.2543 216.4015 L -246.8543 216.4015 L -246.8543 216.8015 L -205.6543 216.8015 L -205.6543 216.4015 L -205.2543 216.4015 L -205.2543 189.6265 L -172.5426 189.6265 L -172.5426 189.2265 L -172.1426 189.2265 L -172.1426 176.8015 L -151.2555 176.8015 L -151.2555 176.4015 L -150.8555 176.4015 L -150.8555 173.6265 L -149.0741 173.6265 L -149.0741 173.2265 L -148.6741 173.2265 L -148.6741 170.8515 L -149.0741 170.8515 L -149.0741 170.4515 L -149.6741 170.4515 L -148.9570 169.7343 L -149.6398 169.0515 L -148.6741 169.0515 L -148.6741 164.8515 L -149.6398 164.8515 L -148.9570 164.1687 L -149.1741 163.9515 L -149.1741 162.1160 L -149.7409 162.1160 L -150.0048 162.2838 L -149.9625 162.1160 L -150.5489 162.1160 L -149.8503 161.6719 L -149.7577 161.3052 L -149.7765 161.3001 L -149.9778 161.2409 L -150.1779 161.1778 L -150.3767 161.1109 L -150.5742 161.0402 L -150.7702 160.9657 L -150.9649 160.8874 L -151.1579 160.8053 L -151.3494 160.7196 L -151.5391 160.6301 L -151.7271 160.5370 L -151.9132 160.4403 L -152.0975 160.3400 L -152.2798 160.2362 L -152.4600 160.1289 L -152.6381 160.0181 L -152.8141 159.9039 L -152.9878 159.7863 L -153.1592 159.6654 L -153.3283 159.5412 L -153.4949 159.4137 L -153.6590 159.2831 L -153.8206 159.1493 L -153.9796 159.0124 L -154.1358 158.8725 L -154.2894 158.7296 L -154.4402 158.5837 L -154.5881 158.4350 L -154.7331 158.2834 L -154.8752 158.1290 L -155.0142 157.9720 L -155.1502 157.8123 L -155.2831 157.6500 L -155.4128 157.4851 L -155.5393 157.3178 L -155.6626 157.1480 L -155.7826 156.9760 L -155.8992 156.8016 L -156.0124 156.6250 L -156.1222 156.4462 L -156.2285 156.2654 L -156.3313 156.0826 L -156.4306 155.8978 L -156.5263 155.7111 L -156.6183 155.5226 L -156.7067 155.3323 L -156.7914 155.1404 L -156.8724 154.9469 L -156.9496 154.7519 L -157.0230 154.5554 L -157.0927 154.3575 L -157.1585 154.1583 L -157.2204 153.9579 L -157.2785 153.7563 L -157.3326 153.5536 L -157.3828 153.3500 L -157.4291 153.1454 L -157.4715 152.9399 L -157.5098 152.7337 L -157.5442 152.5267 L -157.5745 152.3192 L -157.5770 152.2998 L -157.6741 152.3102 L -157.6741 152.2515 L -158.5379 152.2515 L -157.9060 151.6196 L -158.3913 151.1343 L -159.0741 151.8172 L -159.0741 150.8515 L -164.3180 150.8515 L -164.3180 149.6265 L -163.7180 149.6265 L -163.7180 149.2265 L -163.3180 149.2265 L -163.3180 146.4846 L -162.9893 146.4151 L -162.9535 146.4065 L -162.9179 146.3972 L -162.8825 146.3869 L -162.8474 146.3758 L -162.8126 146.3638 L -162.7781 146.3510 L -162.7439 146.3373 L -162.7101 146.3228 L -162.6766 146.3075 L -162.6435 146.2913 L -162.6109 146.2744 L -162.5786 146.2566 L -162.5468 146.2381 L -162.5155 146.2188 L -162.4846 146.1987 L -162.4542 146.1779 L -162.4244 146.1563 L -162.3951 146.1340 L -162.3664 146.1110 L -162.3382 146.0873 L -162.3106 146.0629 L -162.2836 146.0379 L -162.2573 146.0122 L -162.2316 145.9858 L -162.2065 145.9588 L -162.1821 145.9313 L -162.1584 145.9031 L -162.1354 145.8743 L -162.1131 145.8450 L -162.0916 145.8152 L -162.0708 145.7849 L -162.0507 145.7540 L -162.0314 145.7227 L -162.0128 145.6908 L -161.9951 145.6586 L -161.9781 145.6259 L -161.9620 145.5928 L -161.9466 145.5594 L -161.9321 145.5255 L -161.9185 145.4913 L -161.9056 145.4568 L -161.8937 145.4220 L -161.8825 145.3869 L -161.8723 145.3516 L -161.8721 145.3509 L -163.8203 145.3270 L -163.8155 144.5515 L -161.8180 144.5515 L -161.8180 140.4515 L -159.0430 140.4515 L -159.0430 140.0515 L -158.6430 140.0515 L -158.6430 112.6739 L -158.6427 112.6349 L -158.6420 112.5960 L -158.6408 112.5570 L -158.6391 112.5181 L -158.6370 112.4792 L -158.6344 112.4403 L -158.6312 112.4015 L -158.6277 112.3627 L -158.6236 112.3239 L -158.6191 112.2852 L -158.6141 112.2466 L -158.6086 112.2080 L -158.6026 112.1695 L -158.5962 112.1311 L -158.5893 112.0927 L -158.5819 112.0545 L -158.5741 112.0163 L -158.5658 111.9782 L -158.5570 111.9403 L -158.5478 111.9024 L -158.5381 111.8647 L -158.5279 111.8271 L -158.5173 111.7896 L -158.5062 111.7522 L -158.4947 111.7150 L -158.4827 111.6780 L -158.4703 111.6410 L -158.4574 111.6043 L -158.4440 111.5677 L -158.4302 111.5312 L -158.4160 111.4950 L -158.4013 111.4589 L -158.3861 111.4230 L -158.3706 111.3872 L -158.3546 111.3517 L -158.3381 111.3164 L -158.3212 111.2813 L -158.3039 111.2464 L -158.2862 111.2117 L -158.2681 111.1772 L -158.2495 111.1430 L -158.2305 111.1089 L -158.2111 111.0752 L -158.1912 111.0416 L -158.1710 111.0083 L -158.1504 110.9753 L -158.1293 110.9425 L -158.1079 110.9100 L -158.0860 110.8777 L -158.0638 110.8457 L -158.0412 110.8140 L -158.0181 110.7825 L -157.9947 110.7514 L -157.9710 110.7205 L -157.9468 110.6900 L -157.9223 110.6597 L -157.8974 110.6297 L -157.8721 110.6001 L -157.8465 110.5707 L -157.8205 110.5417 L -157.7941 110.5130 L -157.7674 110.4846 L -157.7404 110.4565 L -157.7130 110.4288 L -149.7273 102.4431 L -150.0102 102.1603 L -149.4462 101.5963 L -149.1707 101.8686 L -149.1263 101.8178 L -149.0758 101.7585 L -149.0260 101.6986 L -148.9769 101.6380 L -148.9286 101.5769 L -148.8811 101.5152 L -148.8343 101.4529 L -148.7882 101.3900 L -148.7430 101.3266 L -148.6985 101.2626 L -148.6548 101.1980 L -148.6119 101.1330 L -148.5698 101.0674 L -148.5285 101.0013 L -148.4880 100.9347 L -148.4484 100.8676 L -148.4096 100.8001 L -148.3716 100.7320 L -148.3344 100.6635 L -148.2981 100.5946 L -148.2626 100.5252 L -148.2280 100.4554 L -148.1943 100.3851 L -148.1614 100.3145 L -148.1294 100.2435 L -148.0983 100.1720 L -148.0680 100.1002 L -148.0386 100.0280 L -148.0101 99.9555 L -147.9825 99.8826 L -147.9558 99.8094 L -147.9300 99.7359 L -147.9051 99.6621 L -147.8811 99.5879 L -147.8581 99.5135 L -147.8359 99.4388 L -147.8146 99.3638 L -147.7943 99.2886 L -147.7749 99.2131 L -147.7565 99.1374 L -147.7389 99.0615 L -147.7223 98.9853 L -147.7066 98.9090 L -147.6919 98.8325 L -147.6781 98.7558 L -147.6653 98.6789 L -147.6534 98.6019 L -147.6424 98.5248 L -147.6324 98.4475 L -147.6233 98.3701 L -147.6152 98.2926 L -147.6080 98.2150 L -147.6018 98.1373 L -147.5973 98.0701 L -149.5858 98.0579 L -149.5834 97.2702 L -147.5846 97.2702 L -147.5846 70.7500 L -147.9846 70.7500 L -147.9846 69.9549 L -147.5977 69.9501 L -147.6018 69.8829 L -147.6152 69.7276 L -147.6324 69.5727 L -147.6534 69.4183 L -147.6781 69.2644 L -147.7066 69.1112 L -147.7389 68.9587 L -147.7749 68.8071 L -147.8146 68.6564 L -147.8581 68.5067 L -147.9051 68.3581 L -147.9558 68.2107 L -148.0101 68.0647 L -148.0680 67.9200 L -148.1294 67.7767 L -148.1943 67.6350 L -148.2626 67.4950 L -148.3344 67.3566 L -148.4096 67.2201 L -148.4880 67.0854 L -148.5698 66.9528 L -148.6548 66.8221 L -148.7430 66.6936 L -148.8343 66.5673 L -148.9286 66.4433 L -149.0260 66.3216 L -149.1263 66.2024 L -149.2296 66.0856 L -149.3357 65.9714 L -149.4445 65.8599 L -149.5560 65.7510 L -149.6702 65.6450 L -149.7870 65.5417 L -149.9062 65.4414 L -150.0279 65.3440 L -150.1519 65.2496 L -150.2782 65.1583 L -150.4068 65.0702 L -150.5374 64.9852 L -150.6701 64.9034 L -150.8047 64.8249 L -150.9413 64.7498 L -151.0796 64.6780 L -151.2196 64.6097 L -151.3613 64.5448 L -151.5046 64.4834 L -151.6493 64.4255 L -151.7954 64.3712 L -152.0680 64.2774 L -152.0680 63.0000 L -141.6680 63.0000 L -141.6680 62.6000 L -141.2680 62.6000 L -141.2680 62.5000 L -136.1680 62.5000 L -136.1680 60.5048 L -135.4170 60.4955 L -135.3686 62.4673 L -135.2802 62.4520 L -135.1605 62.4251 L -135.0422 62.3924 L -134.9257 62.3539 L -134.8112 62.3097 L -134.6991 62.2600 L -134.5895 62.2048 L -134.4827 62.1443 L -134.3790 62.0787 L -134.2787 62.0080 L -134.1820 61.9325 L -134.0891 61.8524 L -134.0002 61.7678 L -133.9156 61.6789 L -133.8354 61.5860 L -133.7599 61.4892 L -133.6893 61.3889 L -133.6236 61.2853 L -133.5632 61.1785 L -133.5080 61.0689 L -133.4583 60.9567 L -133.4141 60.8422 L -133.3756 60.7257 L -133.3429 60.6075 L -133.3160 60.4877 L -133.2950 60.3668 L -133.2800 60.2450 L -133.2710 60.1227 L -133.2680 60.0000 L -133.2710 59.8773 L -133.2800 59.7550 L -133.2950 59.6332 L -133.3160 59.5123 L -133.3429 59.3925 L -133.3756 59.2743 L -133.4141 59.1578 L -133.4583 59.0433 L -133.5080 58.9311 L -133.5632 58.8215 L -133.6236 58.7147 L -133.6893 58.6111 L -133.7599 58.5108 L -133.8354 58.4140 L -133.9156 58.3211 L -134.0002 58.2322 L -134.0891 58.1476 L -134.1820 58.0675 L -134.2787 57.9920 L -134.3790 57.9213 L -134.4827 57.8557 L -134.5895 57.7952 L -134.6991 57.7400 L -134.8112 57.6903 L -134.9257 57.6461 L -135.0422 57.6076 L -135.1605 57.5749 L -135.2802 57.5480 L -135.3686 57.5327 L -135.4170 59.5045 L -136.1680 59.4952 L -136.1680 57.5000 L -141.2680 57.5000 L -141.2680 44.8000 L -141.6680 44.8000 L -141.6680 44.4000 L -201.9680 44.4000 L -201.9680 44.8000 L -202.3680 44.8000 L -202.3680 60.4515 L -203.1930 60.4515 L -203.1930 60.8515 L -203.5930 60.8515 L -203.5930 91.6601 L -205.0930 91.6601 L -205.0930 92.0601 L -205.4930 92.0601 L -205.4930 94.8601 L -205.5930 94.8601 L -205.5930 95.2601 L -205.9930 95.2601 L -205.9930 108.6496 L -205.5930 108.6496 L -205.5930 109.0496 L -205.4930 109.0496 L -205.4930 111.8496 L -205.0930 111.8496 L -205.0930 112.2496 L -203.5930 112.2496 L -203.5930 122.6601 L -205.0930 122.6601 L -205.0930 123.0601 L -205.4930 123.0601 L -205.4930 125.8601 L -205.5930 125.8601 L -205.5930 126.2601 L -205.9930 126.2601 L -205.9930 139.6496 L -205.5930 139.6496 L -205.5930 140.0496 L -205.4930 140.0496 L -205.4930 142.8496 L -205.0930 142.8496 L -205.0930 143.2496 L -203.5930 143.2496 L -203.5930 146.4515 L -213.7426 146.4515 L -213.7426 146.8515 L -214.1426 146.8515 L -214.1426 173.6265 L -224.9724 173.6265 L -224.9724 165.8015 L -218.7543 165.8015 L -218.7543 165.7672 L -219.2200 165.3015 L -218.6543 165.3015 L -218.6543 164.9358 L -218.2886 165.3015 L -218.2543 165.3015 L -218.2543 161.4170 L -218.2653 161.4170 L -218.2563 160.9913 L -218.2563 160.9767 L -218.2566 160.9594 L -218.2588 160.9121 L -218.2626 160.8523 L -218.2676 160.7827 L -218.2730 160.7056 L -218.2785 160.6245 L -218.2839 160.5389 L -218.2890 160.4488 L -218.2938 160.3542 L -218.2981 160.2558 L -218.3017 160.1538 L -218.3045 160.0492 L -218.3064 159.9429 L -218.3073 159.8347 L -218.3070 159.7263 L -218.3058 159.6184 L -218.3035 159.5117 L -218.3002 159.4060 L -218.2962 159.3031 L -218.2915 159.2042 L -218.2865 159.1103 L -218.2814 159.0225 L -218.2761 158.9401 L -218.2709 158.8626 L -218.2657 158.7895 L -218.2607 158.7215 L -218.2567 158.6616 L -218.2543 158.6141 L -218.2545 158.5755 L -218.2543 149.4170 L -218.2653 149.4170 L -218.2563 148.9913 L -218.2563 148.9767 L -218.2566 148.9594 L -218.2588 148.9121 L -218.2626 148.8523 L -218.2676 148.7827 L -218.2730 148.7056 L -218.2785 148.6245 L -218.2839 148.5389 L -218.2890 148.4488 L -218.2938 148.3542 L -218.2981 148.2558 L -218.3017 148.1538 L -218.3045 148.0492 L -218.3064 147.9429 L -218.3073 147.8347 L -218.3070 147.7263 L -218.3058 147.6184 L -218.3035 147.5117 L -218.3002 147.4060 L -218.2962 147.3031 L -218.2915 147.2042 L -218.2865 147.1103 L -218.2814 147.0225 L -218.2761 146.9401 L -218.2709 146.8626 L -218.2657 146.7895 L -218.2607 146.7215 L -218.2567 146.6616 L -218.2543 146.6141 L -218.2545 146.5755 L -218.2543 142.3015 L -218.2886 142.3015 L -218.6543 142.6672 L -218.6543 142.3015 L -219.2200 142.3015 L -218.7543 141.8358 L -218.7543 141.8015 L -224.2543 141.8015 L -224.2543 34.2015 L -224.6543 34.2015 L -224.6543 33.8015 L -227.8543 33.8015 L -227.8543 34.2015 L -228.2543 34.2015 L -228.2543 141.8015 L -233.7543 141.8015 L -233.7543 141.8358 L -233.2886 142.3015 L -233.8543 142.3015 L -233.8543 142.6672 L -234.2200 142.3015 L -234.2543 142.3015 L -234.2543 165.3015 L -234.2200 165.3015 L -233.8543 164.9358 L -233.8543 165.3015 L -233.2886 165.3015 L -233.7543 165.7672 L -233.7543 165.8015 L -228.7543 165.8015 L -228.7543 173.6265 L -245.3727 173.6265 Z" fill="#ffffff" fill-rule="evenodd" stroke="none"/>
<path d="M -218.2554 146.5747 L -218.2552 146.5766 L -218.2549 146.5786 L -218.2546 146.5808 L -218.2544 146.5831 L -218.2543 146.6141 L -218.2567 146.6616 L -218.2607 146.7215 L -218.2657 146.7895 L -218.2709 146.8626 L -218.2761 146.9401 L -218.2814 147.0225 L -218.2865 147.1103 L -218.2915 147.2042 L -218.2962 147.3031 L -218.3002 147.4060 L -218.3035 147.5117 L -218.3058 147.6184 L -218.3070 147.7263 L -218.3073 147.8347 L -218.3064 147.9429 L -218.3045 148.0492 L -218.3017 148.1538 L -218.2981 148.2558 L -218.2938 148.3542 L -218.2890 148.4488 L -218.2839 148.5389 L -218.2785 148.6245 L -218.2730 148.7056 L -218.2676 148.7826 L -218.2626 148.8523 L -218.2588 148.9121 L -218.2566 148.9594 L -218.2563 148.9767 L -218.2563 148.9915 L -218.2566 149.0046 L -218.2570 149.0170 M -227.1738 159.8015 L -227.1627 159.9094 L -227.1489 160.0165 L -227.1295 160.1221 L -227.1018 160.2253 L -227.0636 160.3255 L -227.0156 160.4220 L -226.9588 160.5142 L -226.8943 160.6014 L -226.8227 160.6835 L -226.7450 160.7595 L -226.6613 160.8287 L -226.5722 160.8907 L -226.4775 160.9452 L -226.3784 160.9915 L -226.2757 161.0294 L -226.1701 161.0585 L -226.0635 161.0784 L -225.9556 161.0892 L -225.8472 161.0910 L -225.7392 161.0837 L -225.6333 161.0675 L -225.5291 161.0425 L -225.4275 161.0090 L -225.3291 160.9671 L -225.2342 160.9169 L -225.1440 160.8590 L -225.0589 160.7937 L -224.9796 160.7216 L -224.9057 160.6421 L -224.8389 160.5566 L -224.7793 160.4658 L -224.7276 160.3701 L -224.6841 160.2702 L -224.6491 160.1670 L -224.6228 160.0610 L -224.6055 159.9532 L -224.5974 159.8455 L -224.5983 159.7374 L -224.6081 159.6298 L -224.6267 159.5235 L -224.6540 159.4197 L -224.6897 159.3187 L -224.7335 159.2210 L -224.7852 159.1274 L -224.8451 159.0377 L -224.9121 158.9535 L -224.9860 158.8751 L -225.0661 158.8033 L -225.1529 158.7378 L -225.2449 158.6800 L -225.3416 158.6301 L -225.4422 158.5886 L -225.5457 158.5559 L -225.6516 158.5321 L -225.7593 158.5172 L -225.8679 158.5116 L -225.9755 158.5150 L -226.0824 158.5275 L -226.1880 158.5488 L -226.2914 158.5787 L -226.3920 158.6172 L -226.4889 158.6639 L -226.5817 158.7183 L -226.6695 158.7803 L -226.7525 158.8501 L -226.8295 158.9266 L -226.8999 159.0092 L -226.9636 159.0976 L -227.0203 159.1916 L -227.0688 159.2900 L -227.1081 159.3920 L -227.1371 159.4970 L -227.1512 159.5722 L -227.1610 159.6482 L -227.1681 159.7247 L -227.1738 159.8015 M -227.1738 147.8015 L -227.1627 147.9094 L -227.1489 148.0165 L -227.1295 148.1221 L -227.1018 148.2253 L -227.0636 148.3255 L -227.0156 148.4220 L -226.9588 148.5142 L -226.8943 148.6014 L -226.8227 148.6835 L -226.7450 148.7595 L -226.6613 148.8287 L -226.5722 148.8907 L -226.4775 148.9452 L -226.3784 148.9915 L -226.2757 149.0294 L -226.1701 149.0585 L -226.0635 149.0784 L -225.9556 149.0892 L -225.8472 149.0910 L -225.7392 149.0837 L -225.6333 149.0675 L -225.5291 149.0425 L -225.4275 149.0090 L -225.3291 148.9671 L -225.2342 148.9169 L -225.1440 148.8590 L -225.0589 148.7937 L -224.9796 148.7216 L -224.9057 148.6421 L -224.8389 148.5566 L -224.7793 148.4658 L -224.7276 148.3701 L -224.6841 148.2702 L -224.6491 148.1670 L -224.6228 148.0610 L -224.6055 147.9532 L -224.5974 147.8455 L -224.5983 147.7374 L -224.6081 147.6298 L -224.6267 147.5235 L -224.6540 147.4197 L -224.6897 147.3187 L -224.7335 147.2210 L -224.7852 147.1274 L -224.8451 147.0377 L -224.9121 146.9535 L -224.9860 146.8751 L -225.0661 146.8033 L -225.1529 146.7378 L -225.2449 146.6800 L -225.3416 146.6301 L -225.4422 146.5886 L -225.5457 146.5559 L -225.6516 146.5321 L -225.7593 146.5172 L -225.8679 146.5116 L -225.9755 146.5150 L -226.0824 146.5275 L -226.1880 146.5488 L -226.2914 146.5787 L -226.3920 146.6172 L -226.4889 146.6639 L -226.5817 146.7183 L -226.6695 146.7803 L -226.7525 146.8501 L -226.8295 146.9266 L -226.8999 147.0092 L -226.9636 147.0976 L -227.0203 147.1916 L -227.0688 147.2900 L -227.1081 147.3920 L -227.1371 147.4970 L -227.1512 147.5722 L -227.1610 147.6482 L -227.1681 147.7247 L -227.1738 147.8015 M -218.2554 158.5747 L -218.2552 158.5766 L -218.2549 158.5786 L -218.2546 158.5808 L -218.2544 158.5831 L -218.2543 158.6141 L -218.2567 158.6616 L -218.2607 158.7215 L -218.2657 158.7895 L -218.2709 158.8626 L -218.2761 158.9401 L -218.2814 159.0225 L -218.2865 159.1103 L -218.2915 159.2042 L -218.2962 159.3031 L -218.3002 159.4060 L -218.3035 159.5117 L -218.3058 159.6184 L -218.3070 159.7263 L -218.3073 159.8347 L -218.3064 159.9429 L -218.3045 160.0492 L -218.3017 160.1538 L -218.2981 160.2558 L -218.2938 160.3542 L -218.2890 160.4488 L -218.2839 160.5389 L -218.2785 160.6245 L -218.2730 160.7056 L -218.2676 160.7826 L -218.2626 160.8523 L -218.2588 160.9121 L -218.2566 160.9594 L -218.2563 160.9767 L -218.2563 160.9915 L -218.2566 161.0046 L -218.2570 161.0170 M -226.1602 146.5164 L -226.1525 146.5152 L -226.1447 146.5140 L -226.1369 146.5129 L -226.1292 146.5119 L -226.0366 146.5093 L -225.9445 146.5215 L -225.8537 146.5445 L -225.7652 146.5744 L -225.6798 146.6080 L -225.5979 146.6452 L -225.5196 146.6867 L -225.4452 146.7330 L -225.3660 146.7916 L -225.2921 146.8567 L -225.2236 146.9277 L -225.1609 147.0040 L -225.0964 147.0968 L -225.0399 147.1955 L -224.9919 147.2997 L -224.9529 147.4093 L -224.9305 147.4918 L -224.9133 147.5764 L -224.9015 147.6625 L -224.8952 147.7497 L -224.8948 147.8375 L -224.9001 147.9250 L -224.9109 148.0118 L -224.9272 148.0969 L -224.9480 148.1775 L -224.9736 148.2559 L -225.0038 148.3316 L -225.0384 148.4046 L -225.0852 148.4880 L -225.1377 148.5672 L -225.1958 148.6421 L -225.2592 148.7129 L -225.3410 148.7913 L -225.4300 148.8622 L -225.5260 148.9240 L -225.6289 148.9749 L -225.7082 149.0047 L -225.7903 149.0296 L -225.8741 149.0510 L -225.9589 149.0709 M -226.1365 158.5214 L -226.1189 158.5190 L -226.1012 158.5168 L -226.0835 158.5149 L -226.0659 158.5135 L -225.9692 158.5153 L -225.8736 158.5315 L -225.7797 158.5586 L -225.6884 158.5931 L -225.5993 158.6326 L -225.5139 158.6767 L -225.4326 158.7258 L -225.3557 158.7806 L -225.2765 158.8477 L -225.2032 158.9216 L -225.1361 159.0017 L -225.0756 159.0874 L -225.0185 159.1846 L -224.9698 159.2869 L -224.9298 159.3939 L -224.8992 159.5048 L -224.8797 159.6095 L -224.8685 159.7161 L -224.8659 159.8234 L -224.8719 159.9304 L -224.8843 160.0236 L -224.9032 160.1152 L -224.9284 160.2048 L -224.9597 160.2918 L -224.9986 160.3797 L -225.0436 160.4639 L -225.0944 160.5440 L -225.1508 160.6196 L -225.2213 160.6997 L -225.2984 160.7735 L -225.3817 160.8413 L -225.4709 160.9029 L -225.5686 160.9598 L -225.6716 161.0078 L -225.7790 161.0445 L -225.8902 161.0674 L -225.9515 161.0735 L -226.0134 161.0760 L -226.0757 161.0762 L -226.1383 161.0752 M -172.1741 166.4515 m -2.5000 0 a 2.5000 2.5000 0 1 0 5.0000 0 a 2.5000 2.5000 0 1 0 -5.0000 0 Z M -183.6741 158.4515 m -2.0000 0 a 2.0000 2.0000 0 1 0 4.0000 0 a 2.0000 2.0000 0 1 0 -4.0000 0 Z M -160.6741 158.4515 m -2.0000 0 a 2.0000 2.0000 0 1 0 4.0000 0 a 2.0000 2.0000 0 1 0 -4.0000 0 Z M -183.6741 158.4515 m -1.0000 0 a 1.0000 1.0000 0 1 0 2.0000 0 a 1.0000 1.0000 0 1 0 -2.0000 0 Z M -160.6741 158.4515 m -1.0000 0 a 1.0000 1.0000 0 1 0 2.0000 0 a 1.0000 1.0000 0 1 0 -2.0000 0 Z M -171.8180 116.4515 m -2.5000 0 a 2.5000 2.5000 0 1 0 5.0000 0 a 2.5000 2.5000 0 1 0 -5.0000 0 Z M -171.8180 136.4515 m -2.5000 0 a 2.5000 2.5000 0 1 0 5.0000 0 a 2.5000 2.5000 0 1 0 -5.0000 0 Z M -186.8180 54.8771 L -186.5338 54.8696 L -186.2516 54.8599 L -185.9734 54.8459 L -185.7013 54.8254 L -185.4371 54.7965 L -185.1827 54.7590 L -184.9398 54.7129 L -184.7103 54.6583 L -184.4959 54.5952 L -184.2975 54.5232 L -184.1162 54.4421 L -183.9531 54.3514 L -183.8064 54.2488 L -183.6794 54.1363 L -183.5721 54.0142 L -183.4844 53.8829 L -183.4116 53.7315 L -183.3603 53.5705 L -183.3295 53.4007 L -183.3181 53.2228 L -183.3336 52.9540 L -183.3840 52.6722 L -183.4661 52.3794 L -183.5768 52.0776 L -183.7538 51.6861 L -183.9698 51.2878 L -184.2231 50.8871 L -184.5121 50.4883 L -184.7004 50.2541 L -184.9023 50.0248 L -185.1194 49.8030 L -185.3535 49.5914 L -185.5028 49.4707 L -185.6595 49.3568 L -185.8241 49.2517 L -185.9973 49.1577 L -186.1268 49.0985 L -186.2606 49.0475 L -186.3983 49.0062 L -186.5394 48.9760 L -186.6845 48.9581 L -186.8311 48.9529 L -186.9776 48.9605 L -187.1224 48.9807 L -187.2445 49.0080 L -187.3639 49.0436 L -187.4804 49.0866 L -187.5936 49.1360 L -187.7927 49.2405 L -187.9810 49.3599 L -188.1592 49.4910 L -188.3282 49.6307 L -188.6330 49.9176 L -188.9092 50.2196 L -189.1593 50.5318 L -189.3860 50.8490 L -189.6101 51.1973 L -189.8075 51.5435 L -189.9764 51.8854 L -190.1147 52.2207 L -190.2085 52.5048 L -190.2750 52.7804 L -190.3116 53.0454 L -190.3154 53.2979 L -190.2927 53.4912 L -190.2454 53.6740 L -190.1722 53.8454 L -190.0715 54.0043 L -189.9415 54.1508 L -189.7829 54.2833 L -189.5963 54.4017 L -189.3824 54.5056 L -189.1735 54.5844 L -188.9460 54.6527 L -188.7014 54.7109 L -188.4416 54.7598 L -188.1847 54.7977 L -187.9181 54.8279 L -187.6439 54.8504 L -187.3641 54.8653 L -187.2282 54.8698 L -187.0918 54.8729 L -186.9550 54.8752 L -186.8180 54.8771 M -156.8180 54.8771 L -156.5338 54.8696 L -156.2516 54.8599 L -155.9734 54.8459 L -155.7013 54.8254 L -155.4371 54.7965 L -155.1827 54.7590 L -154.9398 54.7129 L -154.7103 54.6583 L -154.4959 54.5952 L -154.2975 54.5232 L -154.1162 54.4421 L -153.9531 54.3514 L -153.8064 54.2488 L -153.6794 54.1363 L -153.5721 54.0142 L -153.4844 53.8829 L -153.4116 53.7315 L -153.3603 53.5705 L -153.3295 53.4007 L -153.3181 53.2228 L -153.3336 52.9540 L -153.3840 52.6722 L -153.4661 52.3794 L -153.5768 52.0776 L -153.7538 51.6861 L -153.9698 51.2878 L -154.2231 50.8871 L -154.5121 50.4883 L -154.7004 50.2541 L -154.9023 50.0248 L -155.1194 49.8030 L -155.3535 49.5914 L -155.5028 49.4707 L -155.6595 49.3568 L -155.8241 49.2517 L -155.9973 49.1577 L -156.1268 49.0985 L -156.2606 49.0475 L -156.3983 49.0062 L -156.5394 48.9760 L -156.6845 48.9581 L -156.8311 48.9529 L -156.9776 48.9605 L -157.1224 48.9807 L -157.2445 49.0080 L -157.3639 49.0436 L -157.4804 49.0866 L -157.5936 49.1360 L -157.7927 49.2405 L -157.9810 49.3599 L -158.1592 49.4910 L -158.3282 49.6307 L -158.6330 49.9176 L -158.9092 50.2196 L -159.1593 50.5318 L -159.3860 50.8490 L -159.6101 51.1973 L -159.8075 51.5435 L -159.9764 51.8854 L -160.1147 52.2207 L -160.2085 52.5048 L -160.2750 52.7804 L -160.3116 53.0454 L -160.3154 53.2979 L -160.2927 53.4912 L -160.2454 53.6740 L -160.1722 53.8454 L -160.0715 54.0043 L -159.9415 54.1508 L -159.7829 54.2833 L -159.5963 54.4017 L -159.3824 54.5056 L -159.1735 54.5844 L -158.9460 54.6527 L -158.7014 54.7109 L -158.4416 54.7598 L -158.1847 54.7977 L -157.9181 54.8279 L -157.6439 54.8504 L -157.3641 54.8653 L -157.2282 54.8698 L -157.0918 54.8729 L -156.9550 54.8752 L -156.8180 54.8771 M -147.3180 59.0000 m -2.0000 0 a 2.0000 2.0000 0 1 0 4.0000 0 a 2.0000 2.0000 0 1 0 -4.0000 0 Z M -196.3180 59.0000 m -2.0000 0 a 2.0000 2.0000 0 1 0 4.0000 0 a 2.0000 2.0000 0 1 0 -4.0000 0 Z M -234.2543 141.9015 L -234.1543 141.8015 M -218.3543 141.8015 L -218.2543 141.9015 M -218.2543 165.7015 L -218.3543 165.8015 M -234.1543 165.8015 L -234.2543 165.7015 M -218.2543 161.0170 L -218.2543 165.7015 M -218.2543 149.0170 L -218.2543 158.5747 M -218.2543 141.9015 L -218.2543 146.5747 M -234.2543 165.7015 L -234.2543 141.9015 M -228.2543 141.8015 L -228.2543 33.8015 M -224.2543 33.8015 L -224.2543 141.8015 M -195.6426 146.4515 L -195.6426 127.1265 M -190.6426 127.1265 L -190.6426 146.4515 M -195.6426 127.1265 L -195.1426 126.6265 M -191.1426 126.6265 L -190.6426 127.1265 M -228.7543 173.6265 L -228.7543 165.8015 M -149.6741 161.3172 L -149.6741 161.3286 M -192.8763 73.0000 L -171.6513 73.0000 M -171.6513 95.0000 L -192.8763 95.0000 M -171.6513 73.0000 L -171.1513 73.5000 M -171.1513 94.5000 L -171.6513 95.0000 M -141.2680 57.5000 L -135.7680 57.5000 M -135.7680 62.5000 L -141.2680 62.5000 M -234.2543 141.9015 L -218.2543 141.9015 M -218.3543 141.8015 L -234.1543 141.8015 M -234.1543 165.8015 L -218.3543 165.8015 M -218.2543 165.7015 L -234.2543 165.7015 M -224.2543 33.8015 L -228.2543 33.8015 M -245.7727 176.8015 L -245.7727 173.6265 M -247.2543 176.8015 L -150.8555 176.8015 M -150.8555 176.8015 L -150.8555 173.6265 M -245.7727 173.6265 L -148.6741 173.6265 M -203.5930 109.0496 L -205.9930 109.0496 M -205.9930 94.8601 L -205.9930 109.0496 M -205.3730 112.2496 L -205.3730 109.0496 M -203.5930 112.2496 L -205.4930 112.2496 M -205.4930 122.6601 L -205.4930 143.2496 M -203.3930 125.8601 L -205.9930 125.8601 M -205.9930 125.8601 L -205.9930 140.0496 M -203.3930 135.4601 L -205.9930 135.4601 M -203.4930 125.8601 L -203.4930 135.4601 M -203.3930 125.8601 L -203.3930 135.4601 M -205.3730 125.8601 L -205.3730 122.6601 M -201.6130 122.6601 L -201.6130 138.6601 M -201.4930 138.6601 L -201.4930 122.6601 M -201.4930 122.6601 L -205.4930 122.6601 M -201.4930 138.6601 L -205.4930 138.6601 M -205.3730 138.6601 L -205.3730 135.4601 M -203.3930 94.8601 L -203.3930 104.4601 M -203.4930 94.8601 L -203.4930 104.4601 M -205.4930 91.6601 L -205.4930 112.2496 M -203.3930 94.8601 L -205.9930 94.8601 M -203.3930 104.4601 L -205.9930 104.4601 M -201.6130 91.6601 L -201.6130 107.6601 M -201.4930 91.6601 L -205.4930 91.6601 M -205.3730 94.8601 L -205.3730 91.6601 M -205.3730 107.6601 L -205.3730 104.4601 M -201.4930 107.6601 L -205.4930 107.6601 M -201.4930 107.6601 L -201.4930 91.6601 M -203.5930 140.0496 L -205.9930 140.0496 M -205.3730 143.2496 L -205.3730 140.0496 M -203.5930 143.2496 L -205.4930 143.2496 M -200.2430 63.0000 L -200.2430 71.5000 M -200.2430 96.5000 L -200.2430 160.4515 M -202.3680 60.4515 L -203.5930 60.4515 M -203.5930 160.4515 L -199.9930 160.4515 M -203.5930 60.4515 L -203.5930 91.6601 M -203.5930 107.6601 L -203.5930 122.6601 M -203.5930 138.6601 L -203.5930 160.4515 M -193.6430 173.6265 L -193.6430 170.4515 M -196.8180 167.2765 L -199.9930 167.2765 M -199.9930 167.2765 L -199.9930 96.5000 M -199.9930 71.5000 L -199.9930 63.0000 M -196.8180 167.2765 L -196.8180 96.5000 M -196.8180 71.5000 L -196.8180 63.0000 M -148.6741 173.6265 L -148.6741 170.4515 M -193.6430 170.4515 L -148.6741 170.4515 M -175.1426 189.6265 L -175.1426 179.6265 M -178.1426 179.6265 L -172.1426 179.6265 M -178.1426 160.5196 L -178.1426 161.2448 M -178.1426 176.8015 L -178.1426 179.6265 M -196.8180 149.6265 L -179.3180 149.6265 M -214.1426 149.6265 L -203.5930 149.6265 M -211.1426 159.6265 L -211.1426 149.6265 M -208.1426 159.6265 L -214.1426 159.6265 M -208.1426 159.6265 L -208.1426 173.6265 M -205.2543 189.6265 L -172.1426 189.6265 M -214.1426 146.4515 L -214.1426 173.6265 M -172.1426 189.6265 L -172.1426 176.8015 M -195.6426 127.1265 L -190.6426 127.1265 M -191.1426 126.6265 L -195.1426 126.6265 M -208.2543 216.8015 L -208.2543 206.8015 M -211.2543 206.8015 L -205.2543 206.8015 M -211.2543 186.8015 L -211.2543 206.8015 M -205.2543 186.8015 L -211.2543 186.8015 M -208.2543 186.8015 L -208.2543 176.8015 M -244.2543 186.8015 L -244.2543 176.8015 M -247.2543 186.8015 L -241.2543 186.8015 M -241.2543 186.8015 L -241.2543 206.8015 M -241.2543 206.8015 L -247.2543 206.8015 M -244.2543 216.8015 L -244.2543 206.8015 M -247.2543 216.8015 L -205.2543 216.8015 M -205.2543 176.8015 L -205.2543 216.8015 M -247.2543 176.8015 L -247.2543 216.8015 M -224.9724 173.6265 L -224.9724 165.8015 M -224.9724 160.3225 L -224.9724 159.2805 M -164.3180 149.6265 L -163.3180 149.6265 M -163.3180 149.6265 L -163.3180 146.4515 M -214.1426 146.4515 L -203.5930 146.4515 M -196.8180 146.4515 L -163.3180 146.4515 M -157.6741 168.9815 L -158.1441 169.4515 M -157.6741 168.9815 L -157.6741 151.8515 M -158.6741 150.8515 L -157.6232 151.9025 M -158.6741 150.8515 L -164.3180 150.8515 M -177.7376 161.4515 L -166.2544 161.4515 M -179.6741 159.5150 L -179.6741 158.1380 M -178.1741 156.2015 L -177.5741 155.6015 M -177.5741 155.6015 L -177.5741 152.6015 M -177.5741 152.6015 L -179.6741 150.8515 M -186.7251 151.9025 L -185.6741 150.8515 M -186.6741 151.8515 L -186.6741 168.9815 M -186.2041 169.4515 L -158.1441 169.4515 M -179.6741 150.8515 L -185.6741 150.8515 M -186.2041 169.4515 L -186.6741 168.9815 M -195.6741 161.7972 L -195.4756 161.5151 M -195.6741 161.7972 L -195.6741 169.4515 M -195.6741 169.4515 L -194.9604 170.1653 M -185.7741 170.4515 L -185.4741 170.1515 M -185.4741 170.1515 L -178.4741 170.1515 M -178.4741 170.1515 L -178.1741 170.4515 M -166.1741 170.4515 L -165.8741 170.1515 M -165.8741 170.1515 L -158.8741 170.1515 M -158.8741 170.1515 L -158.5741 170.4515 M -149.6741 170.4515 L -148.6741 169.4515 M -148.6741 169.4515 L -148.6741 164.4515 M -149.1741 163.9515 L -148.6741 164.4515 M -149.1741 161.7160 L -149.1741 163.9515 M -149.3708 161.4067 L -149.1741 161.7160 M -179.3180 158.1380 L -179.3180 159.5150 M -164.3180 159.5150 L -164.3180 158.1380 M -164.3180 150.8515 L -164.3180 147.2015 M -164.3180 150.8515 L -166.4180 152.6015 M -174.3180 147.0515 L -174.9180 146.4515 M -179.3180 147.2015 L -178.5680 146.4515 M -165.0680 146.4515 L -164.3180 147.2015 M -179.3180 147.2015 L -179.3180 150.8515 M -177.8180 156.2015 L -177.2180 155.6015 M -168.7180 146.4515 L -169.3180 147.0515 M -166.4180 152.6015 L -166.4180 155.6015 M -169.3180 147.0515 L -174.3180 147.0515 M -166.4180 155.6015 L -165.8180 156.2015 M -177.2180 152.6015 L -179.3180 150.8515 M -177.2180 155.6015 L -177.2180 152.6015 M -174.7280 120.3515 L -177.7280 123.3515 M -168.9079 120.3515 L -174.7280 120.3515 M -165.9079 123.3515 L -168.9079 120.3515 M -163.8180 123.3515 L -165.9079 123.3515 M -163.8180 129.5515 L -163.8180 123.3515 M -165.9079 129.5515 L -163.8180 129.5515 M -168.9079 132.5515 L -165.9079 129.5515 M -174.7280 132.5515 L -168.9079 132.5515 M -177.7280 129.5515 L -174.7280 132.5515 M -179.8180 129.5515 L -177.7280 129.5515 M -179.8180 123.3515 L -179.8180 129.5515 M -177.7280 123.3515 L -179.8180 123.3515 M -163.7180 130.9515 L -163.7180 133.3515 M -163.7180 133.3515 L -162.3180 133.3515 M -162.3180 133.3515 L -162.3180 132.8515 M -162.3180 132.8515 L -161.8180 132.8515 M -161.8180 120.0515 L -162.3180 120.0515 M -162.3180 120.0515 L -162.3180 119.5515 M -162.3180 119.5515 L -163.7180 119.5515 M -163.7180 119.5515 L -163.7180 121.9515 M -163.7180 121.9515 L -165.3280 121.9515 M -165.3280 121.9515 L -167.9180 119.3615 M -167.9180 119.3615 L -167.9180 116.9711 M -167.9180 116.9711 L -168.2180 116.4515 M -168.2180 116.4515 L -167.9180 115.9319 M -167.9180 115.9319 L -167.9180 113.5414 M -167.9180 113.5414 L -165.3280 110.9515 M -165.3280 110.9515 L -163.7180 110.9515 M -163.7180 110.9515 L -163.7180 113.3515 M -163.7180 113.3515 L -162.3180 113.3515 M -162.3180 113.3515 L -162.3180 112.8515 M -162.3180 112.8515 L -161.8180 112.8515 M -163.3180 106.4515 L -168.2180 106.4515 M -168.2180 106.4515 L -168.2180 106.9515 M -168.2180 106.9515 L -168.7180 106.9515 M -168.7180 106.9515 L -168.7180 108.3515 M -168.7180 108.3515 L -166.3180 108.3515 M -166.3180 108.3515 L -166.3180 109.9615 M -166.3180 109.9615 L -168.9079 112.5515 M -168.9079 112.5515 L -171.2983 112.5515 M -171.2983 112.5515 L -171.8180 112.8515 M -171.8180 112.8515 L -172.3376 112.5515 M -172.3376 112.5515 L -174.7280 112.5515 M -174.7280 112.5515 L -177.3180 109.9615 M -177.3180 109.9615 L -177.3180 108.3515 M -177.3180 108.3515 L -174.9180 108.3515 M -174.9180 108.3515 L -174.9180 106.9515 M -174.9180 106.9515 L -175.4180 106.9515 M -175.4180 106.9515 L -175.4180 106.4515 M -175.4180 106.4515 L -180.3180 106.4515 M -181.8180 112.8515 L -181.3180 112.8515 M -181.3180 112.8515 L -181.3180 113.3515 M -181.3180 113.3515 L -179.9180 113.3515 M -179.9180 113.3515 L -179.9180 110.9515 M -179.9180 110.9515 L -178.3079 110.9515 M -178.3079 110.9515 L -175.7180 113.5414 M -175.7180 113.5414 L -175.7180 115.9319 M -175.7180 115.9319 L -175.4180 116.4515 M -175.4180 116.4515 L -175.7180 116.9711 M -175.7180 116.9711 L -175.7180 119.3615 M -175.7180 119.3615 L -178.3079 121.9515 M -178.3079 121.9515 L -179.9180 121.9515 M -179.9180 121.9515 L -179.9180 119.5515 M -179.9180 119.5515 L -181.3180 119.5515 M -181.3180 119.5515 L -181.3180 120.0515 M -181.3180 120.0515 L -181.8180 120.0515 M -181.8180 132.8515 L -181.3180 132.8515 M -181.3180 132.8515 L -181.3180 133.3515 M -181.3180 133.3515 L -179.9180 133.3515 M -179.9180 133.3515 L -179.9180 130.9515 M -179.9180 130.9515 L -178.3079 130.9515 M -178.3079 130.9515 L -175.7180 133.5414 M -175.7180 133.5414 L -175.7180 135.9319 M -175.7180 135.9319 L -175.4180 136.4515 M -175.4180 136.4515 L -175.7180 136.9711 M -175.7180 136.9711 L -175.7180 139.3615 M -175.7180 139.3615 L -178.3079 141.9515 M -178.3079 141.9515 L -179.9180 141.9515 M -179.9180 141.9515 L -179.9180 139.5515 M -179.9180 139.5515 L -181.3180 139.5515 M -181.3180 139.5515 L -181.3180 140.0515 M -181.3180 140.0515 L -181.8180 140.0515 M -181.8180 144.9515 L -181.8180 107.9515 M -175.4180 146.4515 L -175.4180 145.9515 M -175.4180 145.9515 L -174.9180 145.9515 M -174.9180 145.9515 L -174.9180 144.5515 M -174.9180 144.5515 L -177.3180 144.5515 M -177.3180 144.5515 L -177.3180 142.9414 M -177.3180 142.9414 L -174.7280 140.3515 M -174.7280 140.3515 L -172.3376 140.3515 M -172.3376 140.3515 L -171.8180 140.0515 M -171.8180 140.0515 L -171.2983 140.3515 M -171.2983 140.3515 L -168.9079 140.3515 M -168.9079 140.3515 L -166.3180 142.9414 M -166.3180 142.9414 L -166.3180 144.5515 M -166.3180 144.5515 L -168.7180 144.5515 M -168.7180 144.5515 L -168.7180 145.9515 M -168.7180 145.9515 L -168.2180 145.9515 M -168.2180 145.9515 L -168.2180 146.4515 M -161.8180 107.9515 L -161.8180 144.9515 M -161.8180 140.0515 L -162.3180 140.0515 M -162.3180 140.0515 L -162.3180 139.5515 M -162.3180 139.5515 L -163.7180 139.5515 M -163.7180 139.5515 L -163.7180 141.9515 M -163.7180 141.9515 L -165.3280 141.9515 M -165.3280 141.9515 L -167.9180 139.3615 M -167.9180 139.3615 L -167.9180 136.9711 M -167.9180 136.9711 L -168.2180 136.4515 M -168.2180 136.4515 L -167.9180 135.9319 M -167.9180 135.9319 L -167.9180 133.5414 M -167.9180 133.5414 L -165.3280 130.9515 M -165.3280 130.9515 L -163.7180 130.9515 M -196.5513 71.5000 L -196.5513 96.5000 M -201.0513 71.5000 L -196.0513 71.5000 M -200.5513 71.5000 L -200.5513 96.5000 M -196.0513 96.5000 L -201.0513 96.5000 M -201.0513 71.5000 L -201.0513 96.5000 M -171.6513 73.0000 L -171.6513 95.0000 M -171.1513 73.5000 L -171.1513 94.5000 M -158.6430 140.4515 L -161.8180 140.4515 M -158.6430 112.6739 L -158.6430 140.4515 M -161.8180 112.6739 L -158.6430 112.6739 M -157.7130 110.4288 L -159.9581 108.1838 M -153.9346 64.0000 L -153.9346 67.1750 M -191.5680 64.0000 L -152.0680 64.0000 M -189.7013 67.1750 L -189.7013 64.0000 M -189.7013 67.1750 L -153.9346 67.1750 M -149.4445 102.1603 L -157.7130 110.4288 M -151.6896 99.9152 L -149.4445 102.1603 M -151.6896 99.9152 L -159.9581 108.1838 M -150.7596 70.3500 L -147.5846 70.3500 M -147.5846 97.6702 L -150.7596 97.6702 M -147.5846 70.3500 L -147.5846 97.6702 M -150.7596 70.3500 L -150.7596 97.6702 M -196.0513 70.3500 L -192.8763 70.3500 M -196.0513 97.6702 L -196.0513 70.3500 M -192.8763 97.6702 L -196.0513 97.6702 M -192.8763 97.6702 L -192.8763 70.3500 M -194.1914 102.1603 L -191.9464 99.9152 M -183.6778 108.1838 L -185.9229 110.4288 M -183.6778 108.1838 L -191.9464 99.9152 M -185.9229 110.4288 L -194.1914 102.1603 M -181.8180 140.4515 L -184.9930 140.4515 M -184.9930 112.6739 L -181.8180 112.6739 M -184.9930 140.4515 L -184.9930 112.6739 M -202.3680 63.0000 L -141.2680 63.0000 M -152.0680 45.4000 L -152.0680 64.0000 M -191.5680 55.3457 L -152.0680 55.3457 M -191.5680 45.4000 L -191.5680 64.0000 M -152.0680 55.0636 L -191.5680 55.0636 M -191.5680 45.4510 L -152.0680 45.4510 M -202.3680 45.4000 L -191.5680 45.4000 M -152.0680 45.4000 L -141.2680 45.4000 M -141.2680 44.4000 L -141.2680 63.0000 M -141.2680 44.4000 L -202.3680 44.4000 M -202.3680 44.4000 L -202.3680 63.0000 M -141.2680 62.5300 L -152.0680 62.5300 M -191.5680 62.5300 L -202.3680 62.5300 M -202.0208 63.0000 L -202.0208 91.6601 M -202.0208 107.6601 L -202.0208 122.6601 M -202.0208 138.6601 L -202.0208 160.4515 M -201.8432 160.4515 L -201.8432 138.6601 M -201.8432 122.6601 L -201.8432 107.6601 M -201.8432 91.6601 L -201.8432 63.0000 M -203.3864 60.4515 L -203.3864 91.6601 M -203.3864 107.6601 L -203.3864 122.6601 M -203.3864 138.6601 L -203.3864 160.4515 M -203.1471 160.4515 L -203.1471 138.6601 M -203.1471 122.6601 L -203.1471 107.6601 M -203.1471 91.6601 L -203.1471 60.4515 M -202.2430 160.4515 L -202.2430 138.6601 M -202.2430 122.6601 L -202.2430 107.6601 M -202.2430 91.6601 L -202.2430 63.0000 M -202.9269 60.4515 L -202.9269 91.6601 M -202.9269 107.6601 L -202.9269 122.6601 M -202.9269 138.6601 L -202.9269 160.4515 M -202.8347 160.4515 L -202.8347 138.6601 M -202.8347 122.6601 L -202.8347 107.6601 M -202.8347 91.6601 L -202.8347 60.4515 M -202.3352 63.0000 L -202.3352 91.6601 M -202.3352 107.6601 L -202.3352 122.6601 M -202.3352 138.6601 L -202.3352 160.4515 M -135.7680 57.5000 L -135.7680 62.5000 M -135.7680 57.5000 L -135.6453 57.5030 L -135.5229 57.5120 L -135.4011 57.5271 L -135.2802 57.5480 L -135.1605 57.5749 L -135.0422 57.6076 L -134.9257 57.6461 L -134.8112 57.6903 L -134.6991 57.7400 L -134.5895 57.7952 L -134.4827 57.8557 L -134.3790 57.9213 L -134.2787 57.9920 L -134.1820 58.0675 L -134.0891 58.1476 L -134.0002 58.2322 L -133.9156 58.3211 L -133.8354 58.4140 L -133.7599 58.5108 L -133.6893 58.6111 L -133.6236 58.7147 L -133.5632 58.8215 L -133.5080 58.9311 L -133.4583 59.0433 L -133.4141 59.1578 L -133.3756 59.2743 L -133.3429 59.3925 L -133.3160 59.5123 L -133.2950 59.6332 L -133.2800 59.7550 L -133.2710 59.8773 L -133.2680 60.0000 L -133.2710 60.1227 L -133.2800 60.2450 L -133.2950 60.3668 L -133.3160 60.4877 L -133.3429 60.6075 L -133.3756 60.7257 L -133.4141 60.8422 L -133.4583 60.9567 L -133.5080 61.0689 L -133.5632 61.1785 L -133.6236 61.2853 L -133.6893 61.3889 L -133.7599 61.4892 L -133.8354 61.5860 L -133.9156 61.6789 L -134.0002 61.7678 L -134.0891 61.8524 L -134.1820 61.9325 L -134.2787 62.0080 L -134.3790 62.0787 L -134.4827 62.1443 L -134.5895 62.2048 L -134.6991 62.2600 L -134.8112 62.3097 L -134.9257 62.3539 L -135.0422 62.3924 L -135.1605 62.4251 L -135.2802 62.4520 L -135.4011 62.4729 L -135.5229 62.4880 L -135.6453 62.4970 L -135.7680 62.5000 M -193.6430 173.6265 L -193.7988 173.6246 L -193.9545 173.6188 L -194.1101 173.6093 L -194.2654 173.5959 L -194.4203 173.5787 L -194.5747 173.5578 L -194.7286 173.5330 L -194.8818 173.5045 L -195.0342 173.4722 L -195.1859 173.4362 L -195.3366 173.3965 L -195.4863 173.3531 L -195.6348 173.3060 L -195.7822 173.2553 L -195.9283 173.2010 L -196.0730 173.1431 L -196.2162 173.0817 L -196.3579 173.0168 L -196.4980 172.9485 L -196.6363 172.8767 L -196.7729 172.8016 L -196.9075 172.7231 L -197.0402 172.6413 L -197.1708 172.5563 L -197.2993 172.4682 L -197.4256 172.3769 L -197.5497 172.2825 L -197.6714 172.1851 L -197.7906 172.0848 L -197.9074 171.9815 L -198.0215 171.8755 L -198.1331 171.7666 L -198.2419 171.6551 L -198.3480 171.5409 L -198.4512 171.4241 L -198.5516 171.3049 L -198.6490 171.1832 L -198.7433 171.0592 L -198.8346 170.9329 L -198.9228 170.8044 L -199.0078 170.6737 L -199.0895 170.5411 L -199.1680 170.4064 L -199.2432 170.2699 L -199.3149 170.1315 L -199.3833 169.9915 L -199.4482 169.8498 L -199.5096 169.7065 L -199.5675 169.5618 L -199.6218 169.4157 L -199.6725 169.2684 L -199.7195 169.1198 L -199.7629 168.9701 L -199.8027 168.8194 L -199.8387 168.6678 L -199.8709 168.5153 L -199.8995 168.3621 L -199.9242 168.2082 L -199.9452 168.0538 L -199.9624 167.8989 L -199.9757 167.7436 L -199.9853 167.5881 L -199.9910 167.4323 L -199.9930 167.2765 M -193.6430 170.4515 L -193.7209 170.4505 L -193.7987 170.4477 L -193.8765 170.4429 L -193.9542 170.4362 L -194.0316 170.4276 L -194.1088 170.4171 L -194.1858 170.4048 L -194.2624 170.3905 L -194.3386 170.3744 L -194.4144 170.3563 L -194.4898 170.3365 L -194.5646 170.3148 L -194.6389 170.2913 L -194.7126 170.2659 L -194.7856 170.2388 L -194.8580 170.2098 L -194.9296 170.1791 L -195.0004 170.1467 L -195.0705 170.1125 L -195.1396 170.0766 L -195.2079 170.0390 L -195.2752 169.9998 L -195.3416 169.9589 L -195.4069 169.9164 L -195.4711 169.8723 L -195.5343 169.8267 L -195.5963 169.7795 L -195.6572 169.7308 L -195.7168 169.6806 L -195.7752 169.6290 L -195.8322 169.5760 L -195.8880 169.5216 L -195.9424 169.4658 L -195.9955 169.4087 L -196.0471 169.3503 L -196.0973 169.2907 L -196.1460 169.2299 L -196.1931 169.1678 L -196.2388 169.1047 L -196.2829 169.0404 L -196.3254 168.9751 L -196.3662 168.9088 L -196.4055 168.8415 L -196.4431 168.7732 L -196.4789 168.7040 L -196.5131 168.6340 L -196.5456 168.5631 L -196.5763 168.4915 L -196.6052 168.4192 L -196.6324 168.3461 L -196.6577 168.2724 L -196.6812 168.1982 L -196.7029 168.1233 L -196.7228 168.0480 L -196.7408 167.9721 L -196.7569 167.8959 L -196.7712 167.8193 L -196.7836 167.7424 L -196.7941 167.6652 L -196.8027 167.5877 L -196.8094 167.5101 L -196.8141 167.4323 L -196.8170 167.3544 L -196.8180 167.2765 M -177.7376 161.4515 L -177.7479 161.4514 L -177.7582 161.4511 L -177.7685 161.4505 L -177.7788 161.4498 L -177.7890 161.4488 L -177.7993 161.4477 L -177.8095 161.4463 L -177.8197 161.4447 L -177.8298 161.4429 L -177.8399 161.4409 L -177.8500 161.4387 L -177.8600 161.4363 L -177.8699 161.4337 L -177.8798 161.4309 L -177.8897 161.4278 L -177.8994 161.4246 L -177.9092 161.4212 L -177.9188 161.4175 L -177.9284 161.4137 L -177.9378 161.4097 L -177.9472 161.4055 L -177.9565 161.4010 L -177.9657 161.3964 L -177.9749 161.3917 L -177.9839 161.3867 L -177.9928 161.3815 L -178.0016 161.3762 L -178.0103 161.3706 L -178.0188 161.3649 L -178.0273 161.3591 L -178.0356 161.3530 L -178.0438 161.3468 L -178.0519 161.3404 L -178.0599 161.3338 L -178.0677 161.3271 L -178.0753 161.3202 L -178.0828 161.3132 L -178.0902 161.3060 L -178.0974 161.2987 L -178.1045 161.2912 L -178.1114 161.2836 L -178.1182 161.2758 L -178.1248 161.2679 L -178.1312 161.2599 L -178.1375 161.2517 L -178.1436 161.2434 L -178.1495 161.2350 L -178.1553 161.2264 L -178.1608 161.2178 L -178.1662 161.2090 L -178.1715 161.2001 L -178.1765 161.1911 L -178.1813 161.1820 L -178.1860 161.1729 L -178.1904 161.1636 L -178.1947 161.1542 L -178.1988 161.1448 L -178.2027 161.1352 L -178.2064 161.1256 L -178.2098 161.1159 L -178.2131 161.1062 L -178.2162 161.0963 L -178.2191 161.0864 L -178.2218 161.0765 M -179.2991 159.9991 L -179.2750 160.0056 L -179.2510 160.0124 L -179.2271 160.0197 L -179.2033 160.0273 L -179.1797 160.0353 L -179.1562 160.0438 L -179.1328 160.0526 L -179.1096 160.0618 L -179.0866 160.0714 L -179.0637 160.0813 L -179.0409 160.0917 L -179.0184 160.1024 L -178.9960 160.1135 L -178.9738 160.1250 L -178.9519 160.1368 L -178.9301 160.1491 L -178.9085 160.1616 L -178.8871 160.1745 L -178.8660 160.1878 L -178.8451 160.2015 L -178.8244 160.2154 L -178.8039 160.2297 L -178.7837 160.2444 L -178.7637 160.2594 L -178.7440 160.2747 L -178.7245 160.2904 L -178.7053 160.3063 L -178.6864 160.3226 L -178.6678 160.3392 L -178.6494 160.3561 L -178.6313 160.3733 L -178.6135 160.3908 L -178.5960 160.4086 L -178.5788 160.4267 L -178.5619 160.4451 L -178.5453 160.4638 L -178.5290 160.4827 L -178.5130 160.5019 L -178.4974 160.5214 L -178.4820 160.5411 L -178.4670 160.5610 L -178.4524 160.5813 L -178.4381 160.6017 L -178.4241 160.6224 L -178.4105 160.6433 L -178.3972 160.6645 L -178.3843 160.6859 L -178.3717 160.7074 L -178.3595 160.7292 L -178.3476 160.7512 L -178.3362 160.7734 L -178.3251 160.7957 L -178.3143 160.8183 L -178.3040 160.8410 L -178.2940 160.8639 L -178.2844 160.8870 L -178.2752 160.9102 L -178.2664 160.9335 L -178.2580 160.9570 L -178.2499 160.9807 L -178.2423 161.0045 L -178.2351 161.0284 L -178.2282 161.0524 L -178.2218 161.0765 M -179.2991 159.9991 L -179.3091 159.9965 L -179.3190 159.9936 L -179.3288 159.9905 L -179.3386 159.9872 L -179.3482 159.9837 L -179.3579 159.9800 L -179.3674 159.9761 L -179.3769 159.9721 L -179.3862 159.9678 L -179.3955 159.9633 L -179.4047 159.9587 L -179.4138 159.9538 L -179.4228 159.9488 L -179.4316 159.9436 L -179.4404 159.9382 L -179.4491 159.9326 L -179.4576 159.9269 L -179.4660 159.9210 L -179.4743 159.9149 L -179.4825 159.9086 L -179.4905 159.9022 L -179.4985 159.8956 L -179.5062 159.8888 L -179.5139 159.8819 L -179.5213 159.8748 L -179.5287 159.8676 L -179.5359 159.8602 L -179.5429 159.8527 L -179.5498 159.8450 L -179.5565 159.8372 L -179.5630 159.8293 L -179.5694 159.8212 L -179.5756 159.8130 L -179.5817 159.8047 L -179.5876 159.7962 L -179.5933 159.7876 L -179.5988 159.7789 L -179.6042 159.7701 L -179.6093 159.7612 L -179.6143 159.7522 L -179.6191 159.7431 L -179.6237 159.7339 L -179.6281 159.7246 L -179.6323 159.7152 L -179.6363 159.7057 L -179.6402 159.6962 L -179.6438 159.6865 L -179.6472 159.6768 L -179.6505 159.6670 L -179.6535 159.6572 L -179.6563 159.6473 L -179.6589 159.6373 L -179.6614 159.6273 L -179.6636 159.6173 L -179.6656 159.6072 L -179.6674 159.5970 L -179.6690 159.5868 L -179.6703 159.5766 L -179.6715 159.5664 L -179.6724 159.5562 L -179.6732 159.5459 L -179.6737 159.5356 L -179.6740 159.5253 L -179.6741 159.5150 M -179.6741 158.1380 L -179.6740 158.1277 L -179.6737 158.1174 L -179.6732 158.1071 L -179.6724 158.0968 L -179.6715 158.0866 L -179.6703 158.0764 L -179.6690 158.0662 L -179.6674 158.0560 L -179.6656 158.0458 L -179.6636 158.0357 L -179.6614 158.0257 L -179.6589 158.0157 L -179.6563 158.0057 L -179.6535 157.9958 L -179.6505 157.9860 L -179.6472 157.9762 L -179.6438 157.9665 L -179.6402 157.9568 L -179.6363 157.9473 L -179.6323 157.9378 L -179.6281 157.9284 L -179.6237 157.9191 L -179.6191 157.9099 L -179.6143 157.9008 L -179.6093 157.8918 L -179.6042 157.8829 L -179.5988 157.8741 L -179.5933 157.8654 L -179.5876 157.8568 L -179.5817 157.8483 L -179.5756 157.8400 L -179.5694 157.8318 L -179.5630 157.8237 L -179.5565 157.8158 L -179.5498 157.8080 L -179.5429 157.8003 L -179.5359 157.7928 L -179.5287 157.7854 L -179.5213 157.7782 L -179.5139 157.7711 L -179.5062 157.7642 L -179.4985 157.7574 L -179.4905 157.7508 L -179.4825 157.7444 L -179.4743 157.7381 L -179.4660 157.7320 L -179.4576 157.7261 L -179.4491 157.7204 L -179.4404 157.7148 L -179.4316 157.7094 L -179.4228 157.7042 L -179.4138 157.6992 L -179.4047 157.6943 L -179.3955 157.6897 L -179.3862 157.6852 L -179.3769 157.6809 L -179.3674 157.6768 L -179.3579 157.6730 L -179.3482 157.6693 L -179.3386 157.6658 L -179.3288 157.6625 L -179.3190 157.6594 L -179.3091 157.6565 L -179.2991 157.6539 M -178.1741 156.2015 L -178.1745 156.2324 L -178.1754 156.2633 L -178.1770 156.2941 L -178.1792 156.3249 L -178.1821 156.3557 L -178.1856 156.3864 L -178.1897 156.4170 L -178.1945 156.4475 L -178.1998 156.4779 L -178.2058 156.5083 L -178.2125 156.5384 L -178.2197 156.5685 L -178.2276 156.5983 L -178.2361 156.6280 L -178.2452 156.6576 L -178.2548 156.6869 L -178.2651 156.7160 L -178.2760 156.7449 L -178.2875 156.7736 L -178.2996 156.8020 L -178.3123 156.8302 L -178.3255 156.8581 L -178.3393 156.8858 L -178.3537 156.9131 L -178.3686 156.9402 L -178.3841 156.9669 L -178.4001 156.9933 L -178.4167 157.0194 L -178.4338 157.0451 L -178.4515 157.0704 L -178.4696 157.0954 L -178.4883 157.1201 L -178.5075 157.1443 L -178.5271 157.1681 L -178.5473 157.1915 L -178.5679 157.2145 L -178.5890 157.2371 L -178.6106 157.2592 L -178.6326 157.2809 L -178.6550 157.3021 L -178.6779 157.3229 L -178.7012 157.3432 L -178.7249 157.3629 L -178.7490 157.3823 L -178.7735 157.4011 L -178.7984 157.4193 L -178.8237 157.4371 L -178.8493 157.4544 L -178.8753 157.4711 L -178.9016 157.4873 L -178.9283 157.5029 L -178.9552 157.5180 L -178.9825 157.5325 L -179.0101 157.5465 L -179.0379 157.5599 L -179.0660 157.5727 L -179.0944 157.5849 L -179.1230 157.5966 L -179.1518 157.6076 L -179.1809 157.6181 L -179.2102 157.6279 L -179.2397 157.6372 L -179.2693 157.6458 L -179.2991 157.6539 M -149.3708 161.4067 L -149.5742 161.3553 L -149.7765 161.3001 L -149.9778 161.2409 L -150.1779 161.1778 L -150.3767 161.1109 L -150.5742 161.0402 L -150.7702 160.9657 L -150.9649 160.8874 L -151.1579 160.8053 L -151.3494 160.7196 L -151.5391 160.6301 L -151.7271 160.5370 L -151.9132 160.4403 L -152.0975 160.3400 L -152.2798 160.2362 L -152.4600 160.1289 L -152.6381 160.0181 L -152.8141 159.9039 L -152.9878 159.7863 L -153.1592 159.6654 L -153.3283 159.5412 L -153.4949 159.4137 L -153.6590 159.2831 L -153.8206 159.1493 L -153.9796 159.0124 L -154.1358 158.8725 L -154.2894 158.7296 L -154.4402 158.5837 L -154.5881 158.4350 L -154.7331 158.2834 L -154.8752 158.1290 L -155.0142 157.9720 L -155.1502 157.8123 L -155.2831 157.6500 L -155.4128 157.4851 L -155.5393 157.3178 L -155.6626 157.1480 L -155.7826 156.9760 L -155.8992 156.8016 L -156.0124 156.6250 L -156.1222 156.4462 L -156.2285 156.2654 L -156.3313 156.0826 L -156.4306 155.8978 L -156.5263 155.7111 L -156.6183 155.5226 L -156.7067 155.3323 L -156.7914 155.1404 L -156.8724 154.9469 L -156.9496 154.7519 L -157.0230 154.5554 L -157.0927 154.3575 L -157.1585 154.1583 L -157.2204 153.9579 L -157.2785 153.7563 L -157.3326 153.5536 L -157.3828 153.3500 L -157.4291 153.1454 L -157.4715 152.9399 L -157.5098 152.7337 L -157.5442 152.5267 L -157.5745 152.3192 L -157.6009 152.1111 L -157.6232 151.9025 M -186.7251 151.9025 L -186.7484 152.1190 L -186.7759 152.3349 L -186.8078 152.5503 L -186.8440 152.7650 L -186.8846 152.9790 L -186.9293 153.1921 L -186.9784 153.4042 L -187.0317 153.6153 L -187.0892 153.8253 L -187.1509 154.0341 L -187.2168 154.2416 L -187.2869 154.4478 L -187.3610 154.6525 L -187.4393 154.8557 L -187.5216 155.0573 L -187.6079 155.2572 L -187.6982 155.4553 L -187.7925 155.6516 L -187.8907 155.8459 L -187.9927 156.0383 L -188.0986 156.2285 L -188.2083 156.4166 L -188.3218 156.6025 L -188.4389 156.7860 L -188.5597 156.9672 L -188.6841 157.1459 L -188.8121 157.3220 L -188.9436 157.4956 L -189.0785 157.6665 L -189.2168 157.8346 L -189.3585 158.0000 L -189.5034 158.1625 L -189.6516 158.3220 L -189.8029 158.4785 L -189.9574 158.6320 L -190.1149 158.7823 L -190.2754 158.9295 L -190.4388 159.0734 L -190.6050 159.2140 L -190.7741 159.3513 L -190.9458 159.4851 L -191.1203 159.6154 L -191.2972 159.7423 L -191.4767 159.8655 L -191.6587 159.9852 L -191.8429 160.1011 L -192.0295 160.2134 L -192.2183 160.3219 L -192.4092 160.4265 L -192.6022 160.5274 L -192.7972 160.6243 L -192.9941 160.7173 L -193.1927 160.8064 L -193.3932 160.8914 L -193.5953 160.9724 L -193.7990 161.0493 L -194.0042 161.1222 L -194.2108 161.1909 L -194.4187 161.2555 L -194.6279 161.3158 L -194.8383 161.3720 L -195.0498 161.4240 L -195.2622 161.4716 L -195.4756 161.5151 M -165.7703 161.0765 L -165.7730 161.0864 L -165.7759 161.0963 L -165.7790 161.1062 L -165.7823 161.1159 L -165.7857 161.1256 L -165.7894 161.1352 L -165.7933 161.1448 L -165.7974 161.1542 L -165.8017 161.1636 L -165.8061 161.1729 L -165.8108 161.1820 L -165.8156 161.1911 L -165.8206 161.2001 L -165.8259 161.2090 L -165.8312 161.2178 L -165.8368 161.2264 L -165.8426 161.2350 L -165.8485 161.2434 L -165.8546 161.2517 L -165.8609 161.2599 L -165.8673 161.2679 L -165.8739 161.2758 L -165.8807 161.2836 L -165.8876 161.2912 L -165.8946 161.2987 L -165.9019 161.3060 L -165.9092 161.3132 L -165.9168 161.3202 L -165.9244 161.3271 L -165.9322 161.3338 L -165.9402 161.3404 L -165.9483 161.3468 L -165.9565 161.3530 L -165.9648 161.3591 L -165.9733 161.3649 L -165.9818 161.3706 L -165.9905 161.3762 L -165.9993 161.3815 L -166.0082 161.3867 L -166.0172 161.3917 L -166.0264 161.3964 L -166.0356 161.4010 L -166.0449 161.4055 L -166.0543 161.4097 L -166.0637 161.4137 L -166.0733 161.4175 L -166.0829 161.4212 L -166.0926 161.4246 L -166.1024 161.4278 L -166.1123 161.4309 L -166.1222 161.4337 L -166.1321 161.4363 L -166.1421 161.4387 L -166.1522 161.4409 L -166.1623 161.4429 L -166.1724 161.4447 L -166.1826 161.4463 L -166.1928 161.4477 L -166.2030 161.4488 L -166.2133 161.4498 L -166.2236 161.4505 L -166.2339 161.4511 L -166.2441 161.4514 L -166.2544 161.4515 M -164.6930 157.6539 L -164.6830 157.6565 L -164.6731 157.6594 L -164.6633 157.6625 L -164.6535 157.6658 L -164.6439 157.6693 L -164.6342 157.6730 L -164.6247 157.6768 L -164.6152 157.6809 L -164.6059 157.6852 L -164.5966 157.6897 L -164.5874 157.6943 L -164.5783 157.6992 L -164.5693 157.7042 L -164.5605 157.7094 L -164.5517 157.7148 L -164.5430 157.7204 L -164.5345 157.7261 L -164.5261 157.7320 L -164.5178 157.7381 L -164.5096 157.7444 L -164.5015 157.7508 L -164.4936 157.7574 L -164.4859 157.7642 L -164.4782 157.7711 L -164.4708 157.7782 L -164.4634 157.7854 L -164.4562 157.7928 L -164.4492 157.8003 L -164.4423 157.8080 L -164.4356 157.8158 L -164.4291 157.8237 L -164.4227 157.8318 L -164.4164 157.8400 L -164.4104 157.8483 L -164.4045 157.8568 L -164.3988 157.8654 L -164.3933 157.8741 L -164.3879 157.8829 L -164.3828 157.8918 L -164.3778 157.9008 L -164.3730 157.9099 L -164.3684 157.9191 L -164.3640 157.9284 L -164.3598 157.9378 L -164.3558 157.9473 L -164.3519 157.9568 L -164.3483 157.9665 L -164.3449 157.9762 L -164.3416 157.9860 L -164.3386 157.9958 L -164.3358 158.0057 L -164.3331 158.0157 L -164.3307 158.0257 L -164.3285 158.0357 L -164.3265 158.0458 L -164.3247 158.0560 L -164.3231 158.0662 L -164.3218 158.0764 L -164.3206 158.0866 L -164.3197 158.0968 L -164.3189 158.1071 L -164.3184 158.1174 L -164.3181 158.1277 L -164.3180 158.1380 M -164.6930 157.6539 L -164.7228 157.6458 L -164.7524 157.6372 L -164.7819 157.6279 L -164.8112 157.6181 L -164.8403 157.6076 L -164.8691 157.5966 L -164.8977 157.5849 L -164.9261 157.5727 L -164.9542 157.5599 L -164.9820 157.5465 L -165.0096 157.5325 L -165.0369 157.5180 L -165.0638 157.5029 L -165.0905 157.4873 L -165.1168 157.4711 L -165.1428 157.4544 L -165.1684 157.4371 L -165.1937 157.4193 L -165.2185 157.4011 L -165.2431 157.3823 L -165.2672 157.3629 L -165.2909 157.3432 L -165.3142 157.3229 L -165.3371 157.3021 L -165.3595 157.2809 L -165.3815 157.2592 L -165.4031 157.2371 L -165.4242 157.2145 L -165.4448 157.1915 L -165.4650 157.1681 L -165.4846 157.1443 L -165.5038 157.1201 L -165.5225 157.0954 L -165.5406 157.0704 L -165.5583 157.0451 L -165.5754 157.0194 L -165.5920 156.9933 L -165.6080 156.9669 L -165.6235 156.9402 L -165.6384 156.9131 L -165.6528 156.8858 L -165.6666 156.8581 L -165.6798 156.8302 L -165.6925 156.8020 L -165.7046 156.7736 L -165.7161 156.7449 L -165.7270 156.7160 L -165.7372 156.6869 L -165.7469 156.6576 L -165.7560 156.6280 L -165.7645 156.5983 L -165.7724 156.5685 L -165.7796 156.5384 L -165.7863 156.5083 L -165.7923 156.4779 L -165.7976 156.4475 L -165.8024 156.4170 L -165.8065 156.3864 L -165.8100 156.3557 L -165.8129 156.3249 L -165.8151 156.2941 L -165.8167 156.2633 L -165.8176 156.2324 L -165.8180 156.2015 M -178.9430 159.9991 L -178.9188 160.0056 L -178.8948 160.0124 L -178.8709 160.0197 L -178.8471 160.0273 L -178.8235 160.0353 L -178.8000 160.0438 L -178.7766 160.0526 L -178.7534 160.0618 L -178.7304 160.0714 L -178.7075 160.0813 L -178.6847 160.0917 L -178.6622 160.1024 L -178.6398 160.1135 L -178.6177 160.1250 L -178.5957 160.1368 L -178.5739 160.1491 L -178.5523 160.1616 L -178.5309 160.1745 L -178.5098 160.1878 L -178.4889 160.2015 L -178.4682 160.2154 L -178.4477 160.2297 L -178.4275 160.2444 L -178.4075 160.2594 L -178.3878 160.2747 L -178.3683 160.2904 L -178.3492 160.3063 L -178.3302 160.3226 L -178.3116 160.3392 L -178.2932 160.3561 L -178.2751 160.3733 L -178.2573 160.3908 L -178.2398 160.4086 L -178.2226 160.4267 L -178.2057 160.4451 L -178.1891 160.4638 L -178.1728 160.4827 L -178.1568 160.5019 L -178.1412 160.5214 L -178.1258 160.5411 L -178.1109 160.5610 L -178.0962 160.5813 L -178.0819 160.6017 L -178.0679 160.6224 L -178.0543 160.6433 L -178.0410 160.6645 L -178.0281 160.6859 L -178.0155 160.7074 L -178.0033 160.7292 L -177.9915 160.7512 L -177.9800 160.7734 L -177.9689 160.7957 L -177.9582 160.8183 L -177.9478 160.8410 L -177.9378 160.8639 L -177.9282 160.8870 L -177.9190 160.9102 L -177.9102 160.9335 L -177.9018 160.9570 L -177.8938 160.9807 L -177.8861 161.0045 L -177.8789 161.0284 L -177.8720 161.0524 L -177.8656 161.0765 M -165.7703 161.0765 L -165.7639 161.0524 L -165.7570 161.0284 L -165.7498 161.0045 L -165.7422 160.9807 L -165.7341 160.9570 L -165.7257 160.9335 L -165.7169 160.9102 L -165.7077 160.8870 L -165.6981 160.8639 L -165.6881 160.8410 L -165.6778 160.8183 L -165.6670 160.7957 L -165.6559 160.7734 L -165.6444 160.7512 L -165.6326 160.7292 L -165.6204 160.7074 L -165.6078 160.6859 L -165.5949 160.6645 L -165.5816 160.6433 L -165.5680 160.6224 L -165.5540 160.6017 L -165.5397 160.5813 L -165.5251 160.5610 L -165.5101 160.5411 L -165.4947 160.5214 L -165.4791 160.5019 L -165.4631 160.4827 L -165.4468 160.4638 L -165.4302 160.4451 L -165.4133 160.4267 L -165.3961 160.4086 L -165.3786 160.3908 L -165.3608 160.3733 L -165.3427 160.3561 L -165.3243 160.3392 L -165.3057 160.3226 L -165.2868 160.3063 L -165.2676 160.2904 L -165.2481 160.2747 L -165.2284 160.2594 L -165.2084 160.2444 L -165.1882 160.2297 L -165.1677 160.2154 L -165.1470 160.2015 L -165.1261 160.1878 L -165.1050 160.1745 L -165.0836 160.1616 L -165.0620 160.1491 L -165.0402 160.1368 L -165.0183 160.1250 L -164.9961 160.1135 L -164.9737 160.1024 L -164.9512 160.0917 L -164.9284 160.0813 L -164.9055 160.0714 L -164.8825 160.0618 L -164.8593 160.0526 L -164.8359 160.0438 L -164.8124 160.0353 L -164.7888 160.0273 L -164.7650 160.0197 L -164.7411 160.0124 L -164.7171 160.0056 L -164.6930 159.9991 M -164.3180 159.5150 L -164.3181 159.5253 L -164.3184 159.5356 L -164.3189 159.5459 L -164.3197 159.5562 L -164.3206 159.5664 L -164.3218 159.5766 L -164.3231 159.5868 L -164.3247 159.5970 L -164.3265 159.6072 L -164.3285 159.6173 L -164.3307 159.6273 L -164.3331 159.6373 L -164.3358 159.6473 L -164.3386 159.6572 L -164.3416 159.6670 L -164.3449 159.6768 L -164.3483 159.6865 L -164.3519 159.6962 L -164.3558 159.7057 L -164.3598 159.7152 L -164.3640 159.7246 L -164.3684 159.7339 L -164.3730 159.7431 L -164.3778 159.7522 L -164.3828 159.7612 L -164.3879 159.7701 L -164.3933 159.7789 L -164.3988 159.7876 L -164.4045 159.7962 L -164.4104 159.8047 L -164.4164 159.8130 L -164.4227 159.8212 L -164.4291 159.8293 L -164.4356 159.8372 L -164.4423 159.8450 L -164.4492 159.8527 L -164.4562 159.8602 L -164.4634 159.8676 L -164.4708 159.8748 L -164.4782 159.8819 L -164.4859 159.8888 L -164.4936 159.8956 L -164.5015 159.9022 L -164.5096 159.9086 L -164.5178 159.9149 L -164.5261 159.9210 L -164.5345 159.9269 L -164.5430 159.9326 L -164.5517 159.9382 L -164.5605 159.9436 L -164.5693 159.9488 L -164.5783 159.9538 L -164.5874 159.9587 L -164.5966 159.9633 L -164.6059 159.9678 L -164.6152 159.9721 L -164.6247 159.9761 L -164.6342 159.9800 L -164.6439 159.9837 L -164.6535 159.9872 L -164.6633 159.9905 L -164.6731 159.9936 L -164.6830 159.9965 L -164.6930 159.9991 M -178.9430 159.9991 L -178.9529 159.9965 L -178.9628 159.9936 L -178.9726 159.9905 L -178.9824 159.9872 L -178.9921 159.9837 L -179.0017 159.9800 L -179.0112 159.9761 L -179.0207 159.9721 L -179.0300 159.9678 L -179.0393 159.9633 L -179.0485 159.9587 L -179.0576 159.9538 L -179.0666 159.9488 L -179.0755 159.9436 L -179.0842 159.9382 L -179.0929 159.9326 L -179.1014 159.9269 L -179.1099 159.9210 L -179.1182 159.9149 L -179.1263 159.9086 L -179.1344 159.9022 L -179.1423 159.8956 L -179.1500 159.8888 L -179.1577 159.8819 L -179.1651 159.8748 L -179.1725 159.8676 L -179.1797 159.8602 L -179.1867 159.8527 L -179.1936 159.8450 L -179.2003 159.8372 L -179.2069 159.8293 L -179.2132 159.8212 L -179.2195 159.8130 L -179.2255 159.8047 L -179.2314 159.7962 L -179.2371 159.7876 L -179.2426 159.7789 L -179.2480 159.7701 L -179.2531 159.7612 L -179.2581 159.7522 L -179.2629 159.7431 L -179.2675 159.7339 L -179.2719 159.7246 L -179.2761 159.7152 L -179.2802 159.7057 L -179.2840 159.6962 L -179.2876 159.6865 L -179.2911 159.6768 L -179.2943 159.6670 L -179.2973 159.6572 L -179.3001 159.6473 L -179.3028 159.6373 L -179.3052 159.6273 L -179.3074 159.6173 L -179.3094 159.6072 L -179.3112 159.5970 L -179.3128 159.5868 L -179.3141 159.5766 L -179.3153 159.5664 L -179.3163 159.5562 L -179.3170 159.5459 L -179.3175 159.5356 L -179.3178 159.5253 L -179.3180 159.5150 M -177.8180 156.2015 L -177.8183 156.2324 L -177.8192 156.2633 L -177.8208 156.2941 L -177.8230 156.3249 L -177.8259 156.3557 L -177.8294 156.3864 L -177.8335 156.4170 L -177.8383 156.4475 L -177.8437 156.4779 L -177.8497 156.5083 L -177.8563 156.5384 L -177.8635 156.5685 L -177.8714 156.5983 L -177.8799 156.6280 L -177.8890 156.6576 L -177.8987 156.6869 L -177.9090 156.7160 L -177.9199 156.7449 L -177.9313 156.7736 L -177.9434 156.8020 L -177.9561 156.8302 L -177.9693 156.8581 L -177.9831 156.8858 L -177.9975 156.9131 L -178.0124 156.9402 L -178.0279 156.9669 L -178.0440 156.9933 L -178.0605 157.0194 L -178.0776 157.0451 L -178.0953 157.0704 L -178.1134 157.0954 L -178.1321 157.1201 L -178.1513 157.1443 L -178.1709 157.1681 L -178.1911 157.1915 L -178.2117 157.2145 L -178.2328 157.2371 L -178.2544 157.2592 L -178.2764 157.2809 L -178.2988 157.3021 L -178.3217 157.3229 L -178.3450 157.3432 L -178.3687 157.3629 L -178.3928 157.3823 L -178.4174 157.4011 L -178.4423 157.4193 L -178.4675 157.4371 L -178.4931 157.4544 L -178.5191 157.4711 L -178.5454 157.4873 L -178.5721 157.5029 L -178.5990 157.5180 L -178.6263 157.5325 L -178.6539 157.5465 L -178.6817 157.5599 L -178.7098 157.5727 L -178.7382 157.5849 L -178.7668 157.5966 L -178.7956 157.6076 L -178.8247 157.6181 L -178.8540 157.6279 L -178.8835 157.6372 L -178.9131 157.6458 L -178.9430 157.6539 M -177.3815 161.4515 L -177.3918 161.4514 L -177.4021 161.4511 L -177.4123 161.4505 L -177.4226 161.4498 L -177.4329 161.4488 L -177.4431 161.4477 L -177.4533 161.4463 L -177.4635 161.4447 L -177.4736 161.4429 L -177.4837 161.4409 L -177.4938 161.4387 L -177.5038 161.4363 L -177.5137 161.4337 L -177.5236 161.4309 L -177.5335 161.4278 L -177.5433 161.4246 L -177.5530 161.4212 L -177.5626 161.4175 L -177.5722 161.4137 L -177.5816 161.4097 L -177.5910 161.4055 L -177.6003 161.4010 L -177.6096 161.3964 L -177.6187 161.3917 L -177.6277 161.3867 L -177.6366 161.3815 L -177.6454 161.3762 L -177.6541 161.3706 L -177.6627 161.3649 L -177.6711 161.3591 L -177.6794 161.3530 L -177.6876 161.3468 L -177.6957 161.3404 L -177.7037 161.3338 L -177.7115 161.3271 L -177.7191 161.3202 L -177.7267 161.3132 L -177.7340 161.3060 L -177.7413 161.2987 L -177.7483 161.2912 L -177.7553 161.2836 L -177.7620 161.2758 L -177.7686 161.2679 L -177.7750 161.2599 L -177.7813 161.2517 L -177.7874 161.2434 L -177.7933 161.2350 L -177.7991 161.2264 L -177.8047 161.2178 L -177.8101 161.2090 L -177.8153 161.2001 L -177.8203 161.1911 L -177.8251 161.1820 L -177.8298 161.1729 L -177.8343 161.1636 L -177.8385 161.1542 L -177.8426 161.1448 L -177.8465 161.1352 L -177.8502 161.1256 L -177.8537 161.1159 L -177.8569 161.1062 L -177.8600 161.0963 L -177.8629 161.0864 L -177.8656 161.0765 M -179.3180 158.1380 L -179.3178 158.1277 L -179.3175 158.1174 L -179.3170 158.1071 L -179.3163 158.0968 L -179.3153 158.0866 L -179.3141 158.0764 L -179.3128 158.0662 L -179.3112 158.0560 L -179.3094 158.0458 L -179.3074 158.0357 L -179.3052 158.0257 L -179.3028 158.0157 L -179.3001 158.0057 L -179.2973 157.9958 L -179.2943 157.9860 L -179.2911 157.9762 L -179.2876 157.9665 L -179.2840 157.9568 L -179.2802 157.9473 L -179.2761 157.9378 L -179.2719 157.9284 L -179.2675 157.9191 L -179.2629 157.9099 L -179.2581 157.9008 L -179.2531 157.8918 L -179.2480 157.8829 L -179.2426 157.8741 L -179.2371 157.8654 L -179.2314 157.8568 L -179.2255 157.8483 L -179.2195 157.8400 L -179.2132 157.8318 L -179.2069 157.8237 L -179.2003 157.8158 L -179.1936 157.8080 L -179.1867 157.8003 L -179.1797 157.7928 L -179.1725 157.7854 L -179.1651 157.7782 L -179.1577 157.7711 L -179.1500 157.7642 L -179.1423 157.7574 L -179.1344 157.7508 L -179.1263 157.7444 L -179.1182 157.7381 L -179.1099 157.7320 L -179.1014 157.7261 L -179.0929 157.7204 L -179.0842 157.7148 L -179.0755 157.7094 L -179.0666 157.7042 L -179.0576 157.6992 L -179.0485 157.6943 L -179.0393 157.6897 L -179.0300 157.6852 L -179.0207 157.6809 L -179.0112 157.6768 L -179.0017 157.6730 L -178.9921 157.6693 L -178.9824 157.6658 L -178.9726 157.6625 L -178.9628 157.6594 L -178.9529 157.6565 L -178.9430 157.6539 M -163.3180 106.4515 L -163.2811 106.4520 L -163.2444 106.4533 L -163.2076 106.4556 L -163.1709 106.4587 L -163.1343 106.4628 L -163.0979 106.4677 L -163.0615 106.4736 L -163.0253 106.4803 L -162.9893 106.4879 L -162.9535 106.4965 L -162.9179 106.5058 L -162.8825 106.5161 L -162.8474 106.5272 L -162.8126 106.5392 L -162.7781 106.5520 L -162.7439 106.5657 L -162.7101 106.5802 L -162.6766 106.5955 L -162.6435 106.6117 L -162.6109 106.6286 L -162.5786 106.6464 L -162.5468 106.6649 L -162.5155 106.6842 L -162.4846 106.7043 L -162.4542 106.7251 L -162.4244 106.7467 L -162.3951 106.7690 L -162.3664 106.7920 L -162.3382 106.8157 L -162.3106 106.8401 L -162.2836 106.8651 L -162.2573 106.8908 L -162.2316 106.9172 L -162.2065 106.9442 L -162.1821 106.9717 L -162.1584 106.9999 L -162.1354 107.0287 L -162.1131 107.0579 L -162.0916 107.0878 L -162.0708 107.1181 L -162.0507 107.1490 L -162.0314 107.1803 L -162.0128 107.2122 L -161.9951 107.2444 L -161.9781 107.2771 L -161.9620 107.3102 L -161.9466 107.3436 L -161.9321 107.3775 L -161.9185 107.4117 L -161.9056 107.4462 L -161.8937 107.4810 L -161.8825 107.5161 L -161.8723 107.5514 L -161.8629 107.5870 L -161.8544 107.6228 L -161.8468 107.6589 L -161.8400 107.6951 L -161.8342 107.7314 L -161.8292 107.7679 L -161.8252 107.8045 L -161.8220 107.8412 L -161.8198 107.8779 L -161.8184 107.9147 L -161.8180 107.9515 M -180.3180 146.4515 L -180.3548 146.4510 L -180.3916 146.4497 L -180.4283 146.4474 L -180.4650 146.4443 L -180.5016 146.4402 L -180.5381 146.4353 L -180.5744 146.4294 L -180.6106 146.4227 L -180.6466 146.4151 L -180.6824 146.4065 L -180.7180 146.3972 L -180.7534 146.3869 L -180.7885 146.3758 L -180.8233 146.3638 L -180.8578 146.3510 L -180.8920 146.3373 L -180.9258 146.3228 L -180.9593 146.3075 L -180.9924 146.2913 L -181.0251 146.2744 L -181.0573 146.2566 L -181.0891 146.2381 L -181.1205 146.2188 L -181.1513 146.1987 L -181.1817 146.1779 L -181.2115 146.1563 L -181.2408 146.1340 L -181.2695 146.1110 L -181.2977 146.0873 L -181.3253 146.0629 L -181.3523 146.0379 L -181.3786 146.0122 L -181.4043 145.9858 L -181.4294 145.9588 L -181.4538 145.9313 L -181.4775 145.9031 L -181.5005 145.8743 L -181.5228 145.8450 L -181.5443 145.8152 L -181.5652 145.7849 L -181.5852 145.7540 L -181.6045 145.7227 L -181.6231 145.6908 L -181.6408 145.6586 L -181.6578 145.6259 L -181.6739 145.5928 L -181.6893 145.5594 L -181.7038 145.5255 L -181.7174 145.4913 L -181.7303 145.4568 L -181.7422 145.4220 L -181.7534 145.3869 L -181.7636 145.3516 L -181.7730 145.3160 L -181.7815 145.2802 L -181.7891 145.2441 L -181.7959 145.2079 L -181.8017 145.1716 L -181.8067 145.1351 L -181.8107 145.0985 L -181.8139 145.0618 L -181.8161 145.0251 L -181.8175 144.9883 L -181.8180 144.9515 M -161.8180 144.9515 L -161.8184 144.9883 L -161.8198 145.0251 L -161.8220 145.0618 L -161.8252 145.0985 L -161.8292 145.1351 L -161.8342 145.1716 L -161.8400 145.2079 L -161.8468 145.2441 L -161.8544 145.2802 L -161.8629 145.3160 L -161.8723 145.3516 L -161.8825 145.3869 L -161.8937 145.4220 L -161.9056 145.4568 L -161.9185 145.4913 L -161.9321 145.5255 L -161.9466 145.5594 L -161.9620 145.5928 L -161.9781 145.6259 L -161.9951 145.6586 L -162.0128 145.6908 L -162.0314 145.7227 L -162.0507 145.7540 L -162.0708 145.7849 L -162.0916 145.8152 L -162.1131 145.8450 L -162.1354 145.8743 L -162.1584 145.9031 L -162.1821 145.9313 L -162.2065 145.9588 L -162.2316 145.9858 L -162.2573 146.0122 L -162.2836 146.0379 L -162.3106 146.0629 L -162.3382 146.0873 L -162.3664 146.1110 L -162.3951 146.1340 L -162.4244 146.1563 L -162.4542 146.1779 L -162.4846 146.1987 L -162.5155 146.2188 L -162.5468 146.2381 L -162.5786 146.2566 L -162.6109 146.2744 L -162.6435 146.2913 L -162.6766 146.3075 L -162.7101 146.3228 L -162.7439 146.3373 L -162.7781 146.3510 L -162.8126 146.3638 L -162.8474 146.3758 L -162.8825 146.3869 L -162.9179 146.3972 L -162.9535 146.4065 L -162.9893 146.4151 L -163.0253 146.4227 L -163.0615 146.4294 L -163.0979 146.4353 L -163.1343 146.4402 L -163.1709 146.4443 L -163.2076 146.4474 L -163.2444 146.4497 L -163.2811 146.4510 L -163.3180 146.4515 M -181.8180 107.9515 L -181.8175 107.9147 L -181.8161 107.8779 L -181.8139 107.8412 L -181.8107 107.8045 L -181.8067 107.7679 L -181.8017 107.7314 L -181.7959 107.6951 L -181.7891 107.6589 L -181.7815 107.6228 L -181.7730 107.5870 L -181.7636 107.5514 L -181.7534 107.5161 L -181.7422 107.4810 L -181.7303 107.4462 L -181.7174 107.4117 L -181.7038 107.3775 L -181.6893 107.3436 L -181.6739 107.3102 L -181.6578 107.2771 L -181.6408 107.2444 L -181.6231 107.2122 L -181.6045 107.1803 L -181.5852 107.1490 L -181.5652 107.1181 L -181.5443 107.0878 L -181.5228 107.0579 L -181.5005 107.0287 L -181.4775 106.9999 L -181.4538 106.9717 L -181.4294 106.9442 L -181.4043 106.9172 L -181.3786 106.8908 L -181.3523 106.8651 L -181.3253 106.8401 L -181.2977 106.8157 L -181.2695 106.7920 L -181.2408 106.7690 L -181.2115 106.7467 L -181.1817 106.7251 L -181.1513 106.7043 L -181.1205 106.6842 L -181.0891 106.6649 L -181.0573 106.6464 L -181.0251 106.6286 L -180.9924 106.6117 L -180.9593 106.5955 L -180.9258 106.5802 L -180.8920 106.5657 L -180.8578 106.5520 L -180.8233 106.5392 L -180.7885 106.5272 L -180.7534 106.5161 L -180.7180 106.5058 L -180.6824 106.4965 L -180.6466 106.4879 L -180.6106 106.4803 L -180.5744 106.4736 L -180.5381 106.4677 L -180.5016 106.4628 L -180.4650 106.4587 L -180.4283 106.4556 L -180.3916 106.4533 L -180.3548 106.4520 L -180.3180 106.4515 M -158.6430 112.6739 L -158.6427 112.6349 L -158.6420 112.5960 L -158.6408 112.5570 L -158.6391 112.5181 L -158.6370 112.4792 L -158.6344 112.4403 L -158.6312 112.4015 L -158.6277 112.3627 L -158.6236 112.3239 L -158.6191 112.2852 L -158.6141 112.2466 L -158.6086 112.2080 L -158.6026 112.1695 L -158.5962 112.1311 L -158.5893 112.0927 L -158.5819 112.0545 L -158.5741 112.0163 L -158.5658 111.9782 L -158.5570 111.9403 L -158.5478 111.9024 L -158.5381 111.8647 L -158.5279 111.8271 L -158.5173 111.7896 L -158.5062 111.7522 L -158.4947 111.7150 L -158.4827 111.6780 L -158.4703 111.6410 L -158.4574 111.6043 L -158.4440 111.5677 L -158.4302 111.5312 L -158.4160 111.4950 L -158.4013 111.4589 L -158.3861 111.4230 L -158.3706 111.3872 L -158.3546 111.3517 L -158.3381 111.3164 L -158.3212 111.2813 L -158.3039 111.2464 L -158.2862 111.2117 L -158.2681 111.1772 L -158.2495 111.1430 L -158.2305 111.1089 L -158.2111 111.0752 L -158.1912 111.0416 L -158.1710 111.0083 L -158.1504 110.9753 L -158.1293 110.9425 L -158.1079 110.9100 L -158.0860 110.8777 L -158.0638 110.8457 L -158.0412 110.8140 L -158.0181 110.7825 L -157.9947 110.7514 L -157.9710 110.7205 L -157.9468 110.6900 L -157.9223 110.6597 L -157.8974 110.6297 L -157.8721 110.6001 L -157.8465 110.5707 L -157.8205 110.5417 L -157.7941 110.5130 L -157.7674 110.4846 L -157.7404 110.4565 L -157.7130 110.4288 M -161.8180 112.6739 L -161.8175 112.5960 L -161.8160 112.5181 L -161.8137 112.4402 L -161.8103 112.3623 L -161.8060 112.2845 L -161.8007 112.2068 L -161.7945 112.1291 L -161.7874 112.0515 L -161.7793 111.9740 L -161.7702 111.8966 L -161.7602 111.8193 L -161.7492 111.7422 L -161.7373 111.6651 L -161.7245 111.5883 L -161.7107 111.5116 L -161.6959 111.4351 L -161.6803 111.3587 L -161.6637 111.2826 L -161.6461 111.2067 L -161.6277 111.1310 L -161.6083 111.0555 L -161.5879 110.9803 L -161.5667 110.9053 L -161.5445 110.8306 L -161.5214 110.7562 L -161.4975 110.6820 L -161.4726 110.6082 L -161.4468 110.5346 L -161.4201 110.4614 L -161.3925 110.3886 L -161.3640 110.3160 L -161.3346 110.2439 L -161.3043 110.1720 L -161.2732 110.1006 L -161.2412 110.0296 L -161.2083 109.9589 L -161.1745 109.8887 L -161.1399 109.8189 L -161.1045 109.7495 L -161.0682 109.6805 L -161.0310 109.6120 L -160.9930 109.5440 L -160.9542 109.4764 L -160.9145 109.4093 L -160.8741 109.3427 L -160.8328 109.2767 L -160.7907 109.2111 L -160.7478 109.1460 L -160.7041 109.0815 L -160.6596 109.0175 L -160.6144 108.9541 L -160.5683 108.8912 L -160.5215 108.8289 L -160.4740 108.7672 L -160.4256 108.7060 L -160.3766 108.6455 L -160.3268 108.5856 L -160.2762 108.5262 L -160.2250 108.4676 L -160.1730 108.4095 L -160.1203 108.3521 L -160.0669 108.2953 L -160.0128 108.2392 L -159.9581 108.1838 M -153.9346 64.0000 L -153.7788 64.0019 L -153.6230 64.0076 L -153.4675 64.0172 L -153.3122 64.0306 L -153.1573 64.0478 L -153.0029 64.0687 L -152.8490 64.0935 L -152.6958 64.1220 L -152.5433 64.1543 L -152.3917 64.1903 L -152.2410 64.2300 L -152.0913 64.2734 L -151.9427 64.3205 L -151.7954 64.3712 L -151.6493 64.4255 L -151.5046 64.4834 L -151.3613 64.5448 L -151.2196 64.6097 L -151.0796 64.6780 L -150.9413 64.7498 L -150.8047 64.8249 L -150.6701 64.9034 L -150.5374 64.9852 L -150.4068 65.0702 L -150.2782 65.1583 L -150.1519 65.2496 L -150.0279 65.3440 L -149.9062 65.4414 L -149.7870 65.5417 L -149.6702 65.6450 L -149.5560 65.7510 L -149.4445 65.8599 L -149.3357 65.9714 L -149.2296 66.0856 L -149.1263 66.2024 L -149.0260 66.3216 L -148.9286 66.4433 L -148.8343 66.5673 L -148.7430 66.6936 L -148.6548 66.8221 L -148.5698 66.9528 L -148.4880 67.0854 L -148.4096 67.2201 L -148.3344 67.3566 L -148.2626 67.4950 L -148.1943 67.6350 L -148.1294 67.7767 L -148.0680 67.9200 L -148.0101 68.0647 L -147.9558 68.2107 L -147.9051 68.3581 L -147.8581 68.5067 L -147.8146 68.6564 L -147.7749 68.8071 L -147.7389 68.9587 L -147.7066 69.1112 L -147.6781 69.2644 L -147.6534 69.4183 L -147.6324 69.5727 L -147.6152 69.7276 L -147.6018 69.8829 L -147.5923 70.0384 L -147.5865 70.1942 L -147.5846 70.3500 M -153.9346 67.1750 L -153.8567 67.1760 L -153.7788 67.1788 L -153.7011 67.1836 L -153.6234 67.1903 L -153.5460 67.1989 L -153.4688 67.2094 L -153.3918 67.2217 L -153.3152 67.2360 L -153.2390 67.2521 L -153.1632 67.2702 L -153.0878 67.2900 L -153.0130 67.3117 L -152.9387 67.3352 L -152.8650 67.3606 L -152.7920 67.3877 L -152.7196 67.4167 L -152.6480 67.4474 L -152.5771 67.4798 L -152.5071 67.5140 L -152.4379 67.5499 L -152.3697 67.5875 L -152.3023 67.6267 L -152.2360 67.6676 L -152.1707 67.7101 L -152.1064 67.7542 L -152.0433 67.7998 L -151.9813 67.8470 L -151.9204 67.8957 L -151.8608 67.9459 L -151.8024 67.9975 L -151.7453 68.0505 L -151.6896 68.1049 L -151.6351 68.1607 L -151.5821 68.2178 L -151.5305 68.2762 L -151.4803 68.3358 L -151.4316 68.3966 L -151.3844 68.4587 L -151.3388 68.5218 L -151.2947 68.5861 L -151.2522 68.6514 L -151.2113 68.7177 L -151.1721 68.7850 L -151.1345 68.8533 L -151.0986 68.9225 L -151.0645 68.9925 L -151.0320 69.0634 L -151.0013 69.1350 L -150.9724 69.2073 L -150.9452 69.2804 L -150.9199 69.3541 L -150.8963 69.4283 L -150.8746 69.5032 L -150.8548 69.5785 L -150.8368 69.6544 L -150.8206 69.7306 L -150.8064 69.8072 L -150.7940 69.8841 L -150.7835 69.9613 L -150.7749 70.0388 L -150.7682 70.1164 L -150.7634 70.1942 L -150.7606 70.2721 L -150.7596 70.3500 M -147.5846 97.6702 L -147.5851 97.7481 L -147.5865 97.8260 L -147.5889 97.9039 L -147.5923 97.9818 L -147.5966 98.0596 L -147.6018 98.1373 L -147.6080 98.2150 L -147.6152 98.2926 L -147.6233 98.3701 L -147.6324 98.4475 L -147.6424 98.5248 L -147.6534 98.6019 L -147.6653 98.6789 L -147.6781 98.7558 L -147.6919 98.8325 L -147.7066 98.9090 L -147.7223 98.9853 L -147.7389 99.0615 L -147.7565 99.1374 L -147.7749 99.2131 L -147.7943 99.2886 L -147.8146 99.3638 L -147.8359 99.4388 L -147.8581 99.5135 L -147.8811 99.5879 L -147.9051 99.6621 L -147.9300 99.7359 L -147.9558 99.8094 L -147.9825 99.8826 L -148.0101 99.9555 L -148.0386 100.0280 L -148.0680 100.1002 L -148.0983 100.1720 L -148.1294 100.2435 L -148.1614 100.3145 L -148.1943 100.3851 L -148.2280 100.4554 L -148.2626 100.5252 L -148.2981 100.5946 L -148.3344 100.6635 L -148.3716 100.7320 L -148.4096 100.8001 L -148.4484 100.8676 L -148.4880 100.9347 L -148.5285 101.0013 L -148.5698 101.0674 L -148.6119 101.1330 L -148.6548 101.1980 L -148.6985 101.2626 L -148.7430 101.3266 L -148.7882 101.3900 L -148.8343 101.4529 L -148.8811 101.5152 L -148.9286 101.5769 L -148.9769 101.6380 L -149.0260 101.6986 L -149.0758 101.7585 L -149.1263 101.8178 L -149.1776 101.8765 L -149.2296 101.9346 L -149.2823 101.9920 L -149.3357 102.0488 L -149.3897 102.1049 L -149.4445 102.1603 M -150.7596 97.6702 L -150.7599 97.7091 L -150.7606 97.7481 L -150.7618 97.7870 L -150.7634 97.8260 L -150.7656 97.8649 L -150.7682 97.9037 L -150.7713 97.9426 L -150.7749 97.9814 L -150.7790 98.0201 L -150.7835 98.0588 L -150.7885 98.0975 L -150.7940 98.1360 L -150.7999 98.1745 L -150.8064 98.2130 L -150.8133 98.2513 L -150.8206 98.2896 L -150.8285 98.3278 L -150.8368 98.3658 L -150.8455 98.4038 L -150.8548 98.4416 L -150.8645 98.4794 L -150.8746 98.5170 L -150.8853 98.5545 L -150.8963 98.5918 L -150.9079 98.6290 L -150.9199 98.6661 L -150.9323 98.7030 L -150.9452 98.7398 L -150.9586 98.7764 L -150.9724 98.8128 L -150.9866 98.8491 L -151.0013 98.8852 L -151.0164 98.9211 L -151.0320 98.9568 L -151.0480 98.9923 L -151.0645 99.0277 L -151.0813 99.0628 L -151.0986 99.0977 L -151.1164 99.1324 L -151.1345 99.1669 L -151.1531 99.2011 L -151.1721 99.2351 L -151.1915 99.2689 L -151.2113 99.3025 L -151.2316 99.3357 L -151.2522 99.3688 L -151.2733 99.4016 L -151.2947 99.4341 L -151.3166 99.4664 L -151.3388 99.4984 L -151.3614 99.5301 L -151.3844 99.5615 L -151.4078 99.5927 L -151.4316 99.6235 L -151.4558 99.6541 L -151.4803 99.6844 L -151.5052 99.7143 L -151.5305 99.7440 L -151.5561 99.7733 L -151.5821 99.8024 L -151.6084 99.8311 L -151.6351 99.8595 L -151.6622 99.8875 L -151.6896 99.9152 M -196.0513 70.3500 L -196.0494 70.1942 L -196.0436 70.0384 L -196.0341 69.8829 L -196.0207 69.7276 L -196.0035 69.5727 L -195.9826 69.4183 L -195.9578 69.2644 L -195.9293 69.1112 L -195.8970 68.9587 L -195.8610 68.8071 L -195.8213 68.6564 L -195.7779 68.5067 L -195.7308 68.3581 L -195.6801 68.2107 L -195.6258 68.0647 L -195.5679 67.9200 L -195.5065 67.7767 L -195.4416 67.6350 L -195.3733 67.4950 L -195.3015 67.3566 L -195.2263 67.2201 L -195.1479 67.0854 L -195.0661 66.9528 L -194.9811 66.8221 L -194.8929 66.6936 L -194.8017 66.5673 L -194.7073 66.4433 L -194.6099 66.3216 L -194.5096 66.2024 L -194.4063 66.0856 L -194.3003 65.9714 L -194.1914 65.8599 L -194.0799 65.7510 L -193.9657 65.6450 L -193.8489 65.5417 L -193.7297 65.4414 L -193.6080 65.3440 L -193.4840 65.2496 L -193.3577 65.1583 L -193.2292 65.0702 L -193.0985 64.9852 L -192.9658 64.9034 L -192.8312 64.8249 L -192.6947 64.7498 L -192.5563 64.6780 L -192.4163 64.6097 L -192.2746 64.5448 L -192.1313 64.4834 L -191.9866 64.4255 L -191.8405 64.3712 L -191.6932 64.3205 L -191.5446 64.2734 L -191.3949 64.2300 L -191.2442 64.1903 L -191.0926 64.1543 L -190.9401 64.1220 L -190.7869 64.0935 L -190.6330 64.0687 L -190.4786 64.0478 L -190.3237 64.0306 L -190.1684 64.0172 L -190.0129 64.0076 L -189.8571 64.0019 L -189.7013 64.0000 M -192.8763 70.3500 L -192.8753 70.2721 L -192.8725 70.1942 L -192.8677 70.1164 L -192.8610 70.0388 L -192.8524 69.9613 L -192.8419 69.8841 L -192.8295 69.8072 L -192.8153 69.7306 L -192.7991 69.6544 L -192.7811 69.5785 L -192.7613 69.5032 L -192.7396 69.4283 L -192.7160 69.3541 L -192.6907 69.2804 L -192.6635 69.2073 L -192.6346 69.1350 L -192.6039 69.0634 L -192.5715 68.9925 L -192.5373 68.9225 L -192.5014 68.8533 L -192.4638 68.7850 L -192.4246 68.7177 L -192.3837 68.6514 L -192.3412 68.5861 L -192.2971 68.5218 L -192.2515 68.4587 L -192.2043 68.3966 L -192.1556 68.3358 L -192.1054 68.2762 L -192.0538 68.2178 L -192.0008 68.1607 L -191.9464 68.1049 L -191.8906 68.0505 L -191.8335 67.9975 L -191.7751 67.9459 L -191.7155 67.8957 L -191.6546 67.8470 L -191.5926 67.7998 L -191.5295 67.7542 L -191.4652 67.7101 L -191.3999 67.6676 L -191.3336 67.6267 L -191.2662 67.5875 L -191.1980 67.5499 L -191.1288 67.5140 L -191.0588 67.4798 L -190.9879 67.4474 L -190.9163 67.4167 L -190.8440 67.3877 L -190.7709 67.3606 L -190.6972 67.3352 L -190.6229 67.3117 L -190.5481 67.2900 L -190.4727 67.2702 L -190.3969 67.2521 L -190.3207 67.2360 L -190.2441 67.2217 L -190.1672 67.2094 L -190.0899 67.1989 L -190.0125 67.1903 L -189.9349 67.1836 L -189.8571 67.1788 L -189.7792 67.1760 L -189.7013 67.1750 M -194.1914 102.1603 L -194.2462 102.1049 L -194.3003 102.0488 L -194.3536 101.9920 L -194.4063 101.9346 L -194.4583 101.8765 L -194.5096 101.8178 L -194.5601 101.7585 L -194.6099 101.6986 L -194.6590 101.6380 L -194.7073 101.5769 L -194.7549 101.5152 L -194.8017 101.4529 L -194.8477 101.3900 L -194.8929 101.3266 L -194.9374 101.2626 L -194.9811 101.1980 L -195.0240 101.1330 L -195.0661 101.0674 L -195.1074 101.0013 L -195.1479 100.9347 L -195.1875 100.8676 L -195.2263 100.8001 L -195.2643 100.7320 L -195.3015 100.6635 L -195.3378 100.5946 L -195.3733 100.5252 L -195.4079 100.4554 L -195.4416 100.3851 L -195.4745 100.3145 L -195.5065 100.2435 L -195.5377 100.1720 L -195.5679 100.1002 L -195.5973 100.0280 L -195.6258 99.9555 L -195.6534 99.8826 L -195.6801 99.8094 L -195.7059 99.7359 L -195.7308 99.6621 L -195.7548 99.5879 L -195.7779 99.5135 L -195.8000 99.4388 L -195.8213 99.3638 L -195.8416 99.2886 L -195.8610 99.2131 L -195.8795 99.1374 L -195.8970 99.0615 L -195.9136 98.9853 L -195.9293 98.9090 L -195.9440 98.8325 L -195.9578 98.7558 L -195.9707 98.6789 L -195.9826 98.6019 L -195.9935 98.5248 L -196.0035 98.4475 L -196.0126 98.3701 L -196.0207 98.2926 L -196.0279 98.2150 L -196.0341 98.1373 L -196.0393 98.0596 L -196.0436 97.9818 L -196.0470 97.9039 L -196.0494 97.8260 L -196.0508 97.7481 L -196.0513 97.6702 M -191.9464 99.9152 L -191.9737 99.8875 L -192.0008 99.8595 L -192.0275 99.8311 L -192.0538 99.8024 L -192.0798 99.7733 L -192.1054 99.7440 L -192.1307 99.7143 L -192.1556 99.6844 L -192.1801 99.6541 L -192.2043 99.6235 L -192.2281 99.5927 L -192.2515 99.5615 L -192.2745 99.5301 L -192.2971 99.4984 L -192.3194 99.4664 L -192.3412 99.4341 L -192.3626 99.4016 L -192.3837 99.3688 L -192.4043 99.3357 L -192.4246 99.3025 L -192.4444 99.2689 L -192.4638 99.2351 L -192.4828 99.2011 L -192.5014 99.1669 L -192.5195 99.1324 L -192.5373 99.0977 L -192.5546 99.0628 L -192.5715 99.0277 L -192.5879 98.9923 L -192.6039 98.9568 L -192.6195 98.9211 L -192.6346 98.8852 L -192.6493 98.8491 L -192.6635 98.8128 L -192.6773 98.7764 L -192.6907 98.7398 L -192.7036 98.7030 L -192.7160 98.6661 L -192.7280 98.6290 L -192.7396 98.5918 L -192.7507 98.5545 L -192.7613 98.5170 L -192.7714 98.4794 L -192.7811 98.4416 L -192.7904 98.4038 L -192.7991 98.3658 L -192.8074 98.3278 L -192.8153 98.2896 L -192.8226 98.2513 L -192.8295 98.2130 L -192.8360 98.1745 L -192.8419 98.1360 L -192.8474 98.0975 L -192.8524 98.0588 L -192.8569 98.0201 L -192.8610 97.9814 L -192.8646 97.9426 L -192.8677 97.9037 L -192.8703 97.8649 L -192.8725 97.8260 L -192.8741 97.7870 L -192.8753 97.7481 L -192.8760 97.7091 L -192.8763 97.6702 M -185.9229 110.4288 L -185.8955 110.4565 L -185.8685 110.4846 L -185.8418 110.5130 L -185.8154 110.5417 L -185.7894 110.5707 L -185.7638 110.6001 L -185.7385 110.6297 L -185.7136 110.6597 L -185.6891 110.6900 L -185.6650 110.7205 L -185.6412 110.7514 L -185.6178 110.7825 L -185.5948 110.8140 L -185.5721 110.8457 L -185.5499 110.8777 L -185.5280 110.9100 L -185.5066 110.9425 L -185.4855 110.9753 L -185.4649 111.0083 L -185.4447 111.0416 L -185.4248 111.0752 L -185.4054 111.1089 L -185.3864 111.1430 L -185.3679 111.1772 L -185.3497 111.2117 L -185.3320 111.2464 L -185.3147 111.2813 L -185.2978 111.3164 L -185.2813 111.3517 L -185.2653 111.3872 L -185.2498 111.4230 L -185.2346 111.4589 L -185.2199 111.4950 L -185.2057 111.5312 L -185.1919 111.5677 L -185.1786 111.6043 L -185.1657 111.6410 L -185.1532 111.6780 L -185.1412 111.7150 L -185.1297 111.7522 L -185.1186 111.7896 L -185.1080 111.8271 L -185.0978 111.8647 L -185.0881 111.9024 L -185.0789 111.9403 L -185.0701 111.9782 L -185.0618 112.0163 L -185.0540 112.0545 L -185.0466 112.0927 L -185.0397 112.1311 L -185.0333 112.1695 L -185.0273 112.2080 L -185.0218 112.2466 L -185.0168 112.2852 L -185.0123 112.3239 L -185.0082 112.3627 L -185.0047 112.4015 L -185.0016 112.4403 L -184.9989 112.4792 L -184.9968 112.5181 L -184.9951 112.5570 L -184.9939 112.5960 L -184.9932 112.6349 L -184.9930 112.6739 M -183.6778 108.1838 L -183.6231 108.2392 L -183.5690 108.2953 L -183.5156 108.3521 L -183.4629 108.4095 L -183.4109 108.4676 L -183.3597 108.5262 L -183.3091 108.5856 L -183.2593 108.6455 L -183.2103 108.7060 L -183.1620 108.7672 L -183.1144 108.8289 L -183.0676 108.8912 L -183.0216 108.9541 L -182.9763 109.0175 L -182.9318 109.0815 L -182.8881 109.1460 L -182.8452 109.2111 L -182.8031 109.2767 L -182.7618 109.3427 L -182.7214 109.4093 L -182.6817 109.4764 L -182.6429 109.5440 L -182.6049 109.6120 L -182.5678 109.6805 L -182.5314 109.7495 L -182.4960 109.8189 L -182.4614 109.8887 L -182.4276 109.9589 L -182.3947 110.0296 L -182.3627 110.1006 L -182.3316 110.1720 L -182.3013 110.2439 L -182.2719 110.3160 L -182.2435 110.3886 L -182.2159 110.4614 L -182.1892 110.5346 L -182.1633 110.6082 L -182.1385 110.6820 L -182.1145 110.7562 L -182.0914 110.8306 L -182.0692 110.9053 L -182.0480 110.9803 L -182.0277 111.0555 L -182.0083 111.1310 L -181.9898 111.2067 L -181.9722 111.2826 L -181.9556 111.3587 L -181.9400 111.4351 L -181.9252 111.5116 L -181.9114 111.5883 L -181.8986 111.6651 L -181.8867 111.7422 L -181.8757 111.8193 L -181.8657 111.8966 L -181.8566 111.9740 L -181.8485 112.0515 L -181.8414 112.1291 L -181.8352 112.2068 L -181.8299 112.2845 L -181.8256 112.3623 L -181.8223 112.4402 L -181.8199 112.5181 L -181.8184 112.5960 L -181.8180 112.6739" fill="none" stroke="#000000" stroke-width="1.0" stroke-linecap="round" stroke-linejoin="round"/>
</g>
</svg>