<?xml version="1.0" encoding="UTF-8" standalone="no"?>
<svg
   width="626.71"
   height="530.00"
   viewBox="0 0 626.7063 530.0000"
   version="1.1"
   id="svg2"
   sodipodi:docname="topview_yaxis.svg"
   inkscape:version="1.3 (0e150ed6c4, 2023-07-21)"
   xmlns:inkscape="http://www.inkscape.org/namespaces/inkscape"
   xmlns:sodipodi="http://sodipodi.sourceforge.net/DTD/sodipodi-0.dtd"
   xmlns="http://www.w3.org/2000/svg"
   xmlns:svg="http://www.w3.org/2000/svg">
  <defs
     id="defs2" />
  <sodipodi:namedview
     id="namedview2"
     pagecolor="#ffffff"
     bordercolor="#000000"
     borderopacity="0.25"
     inkscape:showpageshadow="2"
     inkscape:pageopacity="0.0"
     inkscape:pagecheckerboard="0"
     inkscape:deskcolor="#d1d1d1"
     inkscape:zoom="1.5339623"
     inkscape:cx="313.56704"
     inkscape:cy="265"
     inkscape:window-width="1920"
     inkscape:window-height="1009"
     inkscape:window-x="-8"
     inkscape:window-y="111"
     inkscape:window-maximized="1"
     inkscape:current-layer="svg2" />
  <g
     transform="translate(613.3532,5.0000) scale(1,-1)"
     id="g2"
     style="fill:#ffffff">
    <path
       d="M -603.5000 -213.7426 L -603.5000 -147.9846 L -603.1000 -147.9846 L -603.1000 -147.5846 L -594.5000 -147.5846 L -594.5000 -141.6680 L -594.1000 -141.6680 L -594.1000 -141.2680 L -582.5000 -141.2680 L -582.5000 -136.1680 L -580.5048 -136.1680 L -580.4955 -135.4170 L -582.4673 -135.3686 L -582.4520 -135.2802 L -582.4251 -135.1605 L -582.3924 -135.0422 L -582.3539 -134.9257 L -582.3097 -134.8112 L -582.2600 -134.6991 L -582.2048 -134.5895 L -582.1443 -134.4827 L -582.0787 -134.3790 L -582.0080 -134.2787 L -581.9325 -134.1820 L -581.8524 -134.0891 L -581.7678 -134.0002 L -581.6789 -133.9156 L -581.5860 -133.8354 L -581.4892 -133.7599 L -581.3889 -133.6893 L -581.2853 -133.6236 L -581.1785 -133.5632 L -581.0689 -133.5080 L -580.9567 -133.4583 L -580.8422 -133.4141 L -580.7257 -133.3756 L -580.6075 -133.3429 L -580.4877 -133.3160 L -580.3668 -133.2950 L -580.2450 -133.2800 L -580.1227 -133.2710 L -580.0000 -133.2680 L -579.8773 -133.2710 L -579.7550 -133.2800 L -579.6332 -133.2950 L -579.5123 -133.3160 L -579.3925 -133.3429 L -579.2743 -133.3756 L -579.1578 -133.4141 L -579.0433 -133.4583 L -578.9311 -133.5080 L -578.8215 -133.5632 L -578.7147 -133.6236 L -578.6111 -133.6893 L -578.5108 -133.7599 L -578.4140 -133.8354 L -578.3211 -133.9156 L -578.2322 -134.0002 L -578.1476 -134.0891 L -578.0675 -134.1820 L -577.9920 -134.2787 L -577.9213 -134.3790 L -577.8557 -134.4827 L -577.7952 -134.5895 L -577.7400 -134.6991 L -577.6903 -134.8112 L -577.6461 -134.9257 L -577.6076 -135.0422 L -577.5749 -135.1605 L -577.5480 -135.2802 L -577.5327 -135.3686 L -579.5045 -135.4170 L -579.4952 -136.1680 L -577.5000 -136.1680 L -577.5000 -141.2680 L -565.9000 -141.2680 L -565.9000 -141.6680 L -565.5000 -141.6680 L -565.5000 -147.5846 L -556.9000 -147.5846 L -556.9000 -147.9846 L -556.5000 -147.9846 L -556.5000 -161.8180 L -45.5000 -161.8180 L -45.5000 -147.9846 L -45.1000 -147.9846 L -45.1000 -147.5846 L -36.5000 -147.5846 L -36.5000 -141.6680 L -36.1000 -141.6680 L -36.1000 -141.2680 L -24.5000 -141.2680 L -24.5000 -136.1680 L -22.5048 -136.1680 L -22.4955 -135.4170 L -24.4673 -135.3686 L -24.4520 -135.2802 L -24.4251 -135.1605 L -24.3924 -135.0422 L -24.3539 -134.9257 L -24.3097 -134.8112 L -24.2600 -134.6991 L -24.2048 -134.5895 L -24.1443 -134.4827 L -24.0787 -134.3790 L -24.0080 -134.2787 L -23.9325 -134.1820 L -23.8524 -134.0891 L -23.7678 -134.0002 L -23.6789 -133.9156 L -23.5860 -133.8354 L -23.4892 -133.7599 L -23.3889 -133.6893 L -23.2853 -133.6236 L -23.1785 -133.5632 L -23.0689 -133.5080 L -22.9567 -133.4583 L -22.8422 -133.4141 L -22.7257 -133.3756 L -22.6075 -133.3429 L -22.4877 -133.3160 L -22.3668 -133.2950 L -22.2450 -133.2800 L -22.1227 -133.2710 L -22.0000 -133.2680 L -21.8773 -133.2710 L -21.7550 -133.2800 L -21.6332 -133.2950 L -21.5123 -133.3160 L -21.3925 -133.3429 L -21.2743 -133.3756 L -21.1578 -133.4141 L -21.0433 -133.4583 L -20.9311 -133.5080 L -20.8215 -133.5632 L -20.7147 -133.6236 L -20.6111 -133.6893 L -20.5108 -133.7599 L -20.4140 -133.8354 L -20.3211 -133.9156 L -20.2322 -134.0002 L -20.1476 -134.0891 L -20.0675 -134.1820 L -19.9920 -134.2787 L -19.9213 -134.3790 L -19.8557 -134.4827 L -19.7952 -134.5895 L -19.7400 -134.6991 L -19.6903 -134.8112 L -19.6461 -134.9257 L -19.6076 -135.0422 L -19.5749 -135.1605 L -19.5480 -135.2802 L -19.5327 -135.3686 L -21.5045 -135.4170 L -21.4952 -136.1680 L -19.5000 -136.1680 L -19.5000 -141.2680 L -7.9000 -141.2680 L -7.9000 -141.6680 L -7.5000 -141.6680 L -7.5000 -147.5846 L 1.1000 -147.5846 L 1.1000 -147.9846 L 1.5000 -147.9846 L 1.5000 -195.6513 L 1.1000 -195.6513 L 1.1000 -196.0513 L 0.4343 -196.0513 L -0.4657 -196.9513 L 0.5000 -196.9513 L 0.5000 -200.1513 L -0.3343 -200.1513 L -0.4000 -200.0856 L -0.4000 -200.1513 L -0.4657 -200.1513 L -0.4000 -200.2170 L -0.4000 -201.0513 L -7.5000 -201.0513 L -7.5000 -201.9680 L -7.9000 -201.9680 L -7.9000 -202.3680 L -36.1000 -202.3680 L -36.1000 -201.9680 L -36.5000 -201.9680 L -36.5000 -201.0513 L -43.6000 -201.0513 L -43.6000 -200.2170 L -43.5343 -200.1513 L -43.6000 -200.1513 L -43.6000 -200.0856 L -43.6657 -200.1513 L -44.5000 -200.1513 L -44.5000 -196.9513 L -43.5343 -196.9513 L -44.4343 -196.0513 L -45.1000 -196.0513 L -45.1000 -195.6513 L -45.5000 -195.6513 L -45.5000 -181.8180 L -548.5000 -181.8180 L -548.5000 -213.7426 L -548.9000 -213.7426 L -548.9000 -214.1426 L -603.1000 -214.1426 L -603.1000 -213.7426 L -603.5000 -213.7426 Z"
       fill="#ffffff"
       fill-rule="evenodd"
       stroke="none"
       id="path1"
       style="fill:#ffffff" />
    <path
       d="M -543.5000 -171.8180 m -3.7500 0 a 3.7500 3.7500 0 1 0 7.4999 0 a 3.7500 3.7500 0 1 0 -7.4999 0 Z M -483.5000 -171.8180 m -3.7499 0 a 3.7499 3.7499 0 1 0 7.4999 0 a 3.7499 3.7499 0 1 0 -7.4999 0 Z M -423.5000 -171.8180 m -3.7499 0 a 3.7499 3.7499 0 1 0 7.4999 0 a 3.7499 3.7499 0 1 0 -7.4999 0 Z M -363.5000 -171.8180 m -3.7499 0 a 3.7499 3.7499 0 1 0 7.4999 0 a 3.7499 3.7499 0 1 0 -7.4999 0 Z M -303.5000 -171.8180 m -3.7499 0 a 3.7499 3.7499 0 1 0 7.4999 0 a 3.7499 3.7499 0 1 0 -7.4999 0 Z M -243.5000 -171.8180 m -3.7500 0 a 3.7500 3.7500 0 1 0 7.4999 0 a 3.7500 3.7500 0 1 0 -7.4999 0 Z M -183.5000 -171.8180 m -3.7500 0 a 3.7500 3.7500 0 1 0 7.4999 0 a 3.7500 3.7500 0 1 0 -7.4999 0 Z M -123.5000 -171.8180 m -3.7499 0 a 3.7499 3.7499 0 1 0 7.4999 0 a 3.7499 3.7499 0 1 0 -7.4999 0 Z M -3.5000 -171.8180 m -3.7499 0 a 3.7499 3.7499 0 1 0 7.4999 0 a 3.7499 3.7499 0 1 0 -7.4999 0 Z M -63.5000 -171.8180 m -3.7499 0 a 3.7499 3.7499 0 1 0 7.4999 0 a 3.7499 3.7499 0 1 0 -7.4999 0 Z M -543.5000 -171.8180 m -2.2500 0 a 2.2500 2.2500 0 1 0 4.5000 0 a 2.2500 2.2500 0 1 0 -4.5000 0 Z M -3.5000 -171.8180 m -2.2500 0 a 2.2500 2.2500 0 1 0 4.5000 0 a 2.2500 2.2500 0 1 0 -4.5000 0 Z M -303.5000 -171.8180 m -2.2500 0 a 2.2500 2.2500 0 1 0 4.5000 0 a 2.2500 2.2500 0 1 0 -4.5000 0 Z M -363.5000 -171.8180 m -2.2500 0 a 2.2500 2.2500 0 1 0 4.5000 0 a 2.2500 2.2500 0 1 0 -4.5000 0 Z M -123.5000 -171.8180 m -2.2500 0 a 2.2500 2.2500 0 1 0 4.5000 0 a 2.2500 2.2500 0 1 0 -4.5000 0 Z M -183.5000 -171.8180 m -2.2500 0 a 2.2500 2.2500 0 1 0 4.5000 0 a 2.2500 2.2500 0 1 0 -4.5000 0 Z M -483.5000 -171.8180 m -2.2500 0 a 2.2500 2.2500 0 1 0 4.5000 0 a 2.2500 2.2500 0 1 0 -4.5000 0 Z M -423.5000 -171.8180 m -2.2500 0 a 2.2500 2.2500 0 1 0 4.5000 0 a 2.2500 2.2500 0 1 0 -4.5000 0 Z M -63.5000 -171.8180 m -2.2500 0 a 2.2500 2.2500 0 1 0 4.5000 0 a 2.2500 2.2500 0 1 0 -4.5000 0 Z M -243.5000 -171.8180 m -2.2500 0 a 2.2500 2.2500 0 1 0 4.5000 0 a 2.2500 2.2500 0 1 0 -4.5000 0 Z M 0.0000 -201.0513 L 0.5000 -200.5513 M -44.5000 -200.5513 L -44.0000 -201.0513 M -44.5000 -196.5513 L -44.5000 -200.5513 M 0.5000 -200.5513 L 0.5000 -196.5513 M -44.0000 -196.0513 L -44.5000 -196.5513 M 0.5000 -196.5513 L 0.0000 -196.0513 M -19.5000 -141.2680 L -19.5000 -135.7680 M -24.5000 -135.7680 L -24.5000 -141.2680 M -577.5000 -141.2680 L -577.5000 -135.7680 M -582.5000 -135.7680 L -582.5000 -141.2680 M -603.5000 -214.1426 L -548.5000 -214.1426 M -590.5000 -211.1426 L -587.5000 -214.1426 M -590.5000 -175.1426 L -590.5000 -211.1426 M -587.5000 -172.1426 L -590.5000 -175.1426 M -551.5000 -172.1426 L -587.5000 -172.1426 M -548.5000 -175.1426 L -551.5000 -172.1426 M -551.5000 -214.1426 L -548.5000 -211.1426 M -603.5000 -147.5846 L -603.5000 -214.1426 M -603.5000 -163.3180 L 1.5000 -163.3180 M 1.5000 -166.2544 L -548.5000 -166.2544 M -548.5000 -214.1426 L -548.5000 -163.3180 M -548.5000 -165.7703 L 1.5000 -165.7703 M 1.5000 -196.0513 L 1.5000 -147.5846 M -548.5000 -177.3815 L 1.5000 -177.3815 M 1.5000 -177.8656 L -548.5000 -177.8656 M 1.5000 -164.6930 L -548.5000 -164.6930 M -548.5000 -178.9430 L 1.5000 -178.9430 M -548.5000 -164.3180 L 1.5000 -164.3180 M 1.5000 -179.3180 L -548.5000 -179.3180 M -548.5000 -181.8180 L 1.5000 -181.8180 M -603.5000 -161.8180 L 1.5000 -161.8180 M -545.6892 -172.3376 L -541.3108 -172.3376 M -485.6892 -172.3376 L -481.3108 -172.3376 M -425.6892 -172.3376 L -421.3108 -172.3376 M -365.6892 -172.3376 L -361.3108 -172.3376 M -305.6892 -172.3376 L -301.3108 -172.3376 M -245.6892 -172.3376 L -241.3108 -172.3376 M -185.6892 -172.3376 L -181.3108 -172.3376 M -125.6892 -172.3376 L -121.3108 -172.3376 M -65.6892 -172.3376 L -61.3108 -172.3376 M -5.6892 -172.3376 L -1.3108 -172.3376 M -545.7500 -171.8180 L -541.2500 -171.8180 M -485.7500 -171.8180 L -481.2500 -171.8180 M -425.7500 -171.8180 L -421.2500 -171.8180 M -365.7500 -171.8180 L -361.2500 -171.8180 M -305.7500 -171.8180 L -301.2500 -171.8180 M -245.7500 -171.8180 L -241.2500 -171.8180 M -185.7500 -171.8180 L -181.2500 -171.8180 M -125.7500 -171.8180 L -121.2500 -171.8180 M -65.7500 -171.8180 L -61.2500 -171.8180 M -5.7500 -171.8180 L -1.2500 -171.8180 M -545.6892 -171.2983 L -541.3108 -171.2983 M -485.6892 -171.2983 L -481.3108 -171.2983 M -425.6892 -171.2983 L -421.3108 -171.2983 M -365.6892 -171.2983 L -361.3108 -171.2983 M -305.6892 -171.2983 L -301.3108 -171.2983 M -245.6892 -171.2983 L -241.3108 -171.2983 M -185.6892 -171.2983 L -181.3108 -171.2983 M -125.6892 -171.2983 L -121.3108 -171.2983 M -65.6892 -171.2983 L -61.3108 -171.2983 M -5.6892 -171.2983 L -1.3108 -171.2983 M -3.2917 -200.5513 L -3.8961 -201.0513 M 0.5000 -200.5513 L -3.2917 -200.5513 M -40.1039 -201.0513 L -40.7083 -200.5513 M -40.7083 -200.5513 L -44.5000 -200.5513 M 0.0000 -201.0513 L -44.0000 -201.0513 M -3.8961 -196.0513 L -3.2917 -196.5513 M -3.2917 -196.5513 L -3.2917 -200.5513 M -40.7083 -200.5513 L -40.7083 -196.5513 M -40.7083 -196.5513 L -40.1039 -196.0513 M -40.7083 -196.5513 L -44.5000 -196.5513 M 0.5000 -196.5513 L -3.2917 -196.5513 M 1.5000 -184.9930 L -45.5000 -184.9930 M -45.5000 -181.8180 L -45.5000 -196.0513 M 1.5000 -158.6430 L -45.5000 -158.6430 M -45.5000 -147.5846 L -45.5000 -161.8180 M 1.5000 -185.9229 L -45.5000 -185.9229 M 1.5000 -157.7130 L -45.5000 -157.7130 M 1.5000 -194.1914 L -45.5000 -194.1914 M 1.5000 -149.4445 L -45.5000 -149.4445 M 1.5000 -196.0513 L -45.5000 -196.0513 M 1.5000 -147.5846 L -45.5000 -147.5846 M -556.5000 -158.6430 L -603.5000 -158.6430 M -556.5000 -147.5846 L -556.5000 -161.8180 M -556.5000 -157.7130 L -603.5000 -157.7130 M -556.5000 -149.4445 L -603.5000 -149.4445 M -556.5000 -147.5846 L -603.5000 -147.5846 M -7.9700 -202.3680 L -7.9700 -201.0513 M -7.5000 -202.3680 L -36.5000 -202.3680 M -36.0300 -201.0513 L -36.0300 -202.3680 M -7.5000 -201.0513 L -7.5000 -202.3680 M -36.5000 -202.3680 L -36.5000 -201.0513 M -7.9700 -147.5846 L -7.9700 -141.2680 M -36.0300 -141.2680 L -36.0300 -147.5846 M -7.5000 -141.2680 L -36.5000 -141.2680 M -7.5000 -141.2680 L -7.5000 -147.5846 M -36.5000 -147.5846 L -36.5000 -141.2680 M -565.9700 -147.5846 L -565.9700 -141.2680 M -594.0300 -141.2680 L -594.0300 -147.5846 M -565.5000 -141.2680 L -594.5000 -141.2680 M -594.5000 -147.5846 L -594.5000 -141.2680 M -565.5000 -141.2680 L -565.5000 -147.5846 M -548.5000 -180.3180 L 1.5000 -180.3180 M -19.5000 -135.7680 L -24.5000 -135.7680 M -577.5000 -135.7680 L -582.5000 -135.7680 M -19.5000 -135.7680 L -19.5030 -135.6453 L -19.5120 -135.5229 L -19.5271 -135.4011 L -19.5480 -135.2802 L -19.5749 -135.1605 L -19.6076 -135.0422 L -19.6461 -134.9257 L -19.6903 -134.8112 L -19.7400 -134.6991 L -19.7952 -134.5895 L -19.8557 -134.4827 L -19.9213 -134.3790 L -19.9920 -134.2787 L -20.0675 -134.1820 L -20.1476 -134.0891 L -20.2322 -134.0002 L -20.3211 -133.9156 L -20.4140 -133.8354 L -20.5108 -133.7599 L -20.6111 -133.6893 L -20.7147 -133.6236 L -20.8215 -133.5632 L -20.9311 -133.5080 L -21.0433 -133.4583 L -21.1578 -133.4141 L -21.2743 -133.3756 L -21.3925 -133.3429 L -21.5123 -133.3160 L -21.6332 -133.2950 L -21.7550 -133.2800 L -21.8773 -133.2710 L -22.0000 -133.2680 L -22.1227 -133.2710 L -22.2450 -133.2800 L -22.3668 -133.2950 L -22.4877 -133.3160 L -22.6075 -133.3429 L -22.7257 -133.3756 L -22.8422 -133.4141 L -22.9567 -133.4583 L -23.0689 -133.5080 L -23.1785 -133.5632 L -23.2853 -133.6236 L -23.3889 -133.6893 L -23.4892 -133.7599 L -23.5860 -133.8354 L -23.6789 -133.9156 L -23.7678 -134.0002 L -23.8524 -134.0891 L -23.9325 -134.1820 L -24.0080 -134.2787 L -24.0787 -134.3790 L -24.1443 -134.4827 L -24.2048 -134.5895 L -24.2600 -134.6991 L -24.3097 -134.8112 L -24.3539 -134.9257 L -24.3924 -135.0422 L -24.4251 -135.1605 L -24.4520 -135.2802 L -24.4729 -135.4011 L -24.4880 -135.5229 L -24.4970 -135.6453 L -24.5000 -135.7680 M -577.5000 -135.7680 L -577.5030 -135.6453 L -577.5120 -135.5229 L -577.5271 -135.4011 L -577.5480 -135.2802 L -577.5749 -135.1605 L -577.6076 -135.0422 L -577.6461 -134.9257 L -577.6903 -134.8112 L -577.7400 -134.6991 L -577.7952 -134.5895 L -577.8557 -134.4827 L -577.9213 -134.3790 L -577.9920 -134.2787 L -578.0675 -134.1820 L -578.1476 -134.0891 L -578.2322 -134.0002 L -578.3211 -133.9156 L -578.4140 -133.8354 L -578.5108 -133.7599 L -578.6111 -133.6893 L -578.7147 -133.6236 L -578.8215 -133.5632 L -578.9311 -133.5080 L -579.0433 -133.4583 L -579.1578 -133.4141 L -579.2743 -133.3756 L -579.3925 -133.3429 L -579.5123 -133.3160 L -579.6332 -133.2950 L -579.7550 -133.2800 L -579.8773 -133.2710 L -580.0000 -133.2680 L -580.1227 -133.2710 L -580.2450 -133.2800 L -580.3668 -133.2950 L -580.4877 -133.3160 L -580.6075 -133.3429 L -580.7257 -133.3756 L -580.8422 -133.4141 L -580.9567 -133.4583 L -581.0689 -133.5080 L -581.1785 -133.5632 L -581.2853 -133.6236 L -581.3889 -133.6893 L -581.4892 -133.7599 L -581.5860 -133.8354 L -581.6789 -133.9156 L -581.7678 -134.0002 L -581.8524 -134.0891 L -581.9325 -134.1820 L -582.0080 -134.2787 L -582.0787 -134.3790 L -582.1443 -134.4827 L -582.2048 -134.5895 L -582.2600 -134.6991 L -582.3097 -134.8112 L -582.3539 -134.9257 L -582.3924 -135.0422 L -582.4251 -135.1605 L -582.4520 -135.2802 L -582.4729 -135.4011 L -582.4880 -135.5229 L -582.4970 -135.6453 L -582.5000 -135.7680"
       fill="none"
       stroke="#000000"
       stroke-width="1.0"
       stroke-linecap="round"
       stroke-linejoin="round"
       id="path2"
       style="fill:#ffffff" />
  </g>
</svg>
