<svg xmlns="http://www.w3.org/2000/svg" width="610.00" height="490.00" viewBox="0 0 610.0000 490.0000" version="1.1">
<g transform="translate(-559.7658,-944.8195) scale(1,-1)">
<path d="M 869.3430 -949.8200 L 1164.7660 -949.8200 L 1164.7660 -951.3200 L 1164.7660 -964.7190 L 1164.7660 -965.7190 L 1164.7660 -969.3000 L 1164.7660 -969.8000 L 1164.7660 -969.8190 L 1164.7660 -970.3190 L 1164.7660 -970.3380 L 1164.7660 -970.8380 L 1164.7660 -973.9200 L 1164.7660 -974.9200 L 1164.7660 -988.3200 L 1164.7660 -989.8200 L 1164.7660 -1389.8200 L 1164.7660 -1391.3200 L 1164.7660 -1404.7200 L 1164.7660 -1405.7200 L 1164.7660 -1409.3000 L 1164.7660 -1409.8000 L 1164.7660 -1409.8200 L 1164.7660 -1410.3200 L 1164.7660 -1410.3390 L 1164.7660 -1410.8390 L 1164.7660 -1413.9200 L 1164.7660 -1414.9200 L 1164.7660 -1428.3200 L 1164.7660 -1429.8200 L 869.3430 -1429.8200 L 869.3430 -1389.8200 L 1035.7660 -1389.8200 L 1035.3770 -1389.7410 L 1035.0590 -1389.5270 L 1034.8440 -1389.2090 L 1034.7660 -1388.8200 L 1034.7660 -1378.8200 L 1034.7850 -1378.6240 L 1034.8420 -1378.4370 L 1034.9340 -1378.2650 L 1035.0590 -1378.1120 L 1035.2110 -1377.9880 L 1035.3830 -1377.8960 L 1035.5700 -1377.8390 L 1035.7660 -1377.8200 L 1087.7660 -1377.8200 L 1112.7660 -1352.8200 L 1112.7660 -1300.8200 L 1112.8440 -1300.4300 L 1113.0590 -1300.1120 L 1113.3770 -1299.8980 L 1113.7660 -1299.8200 L 1123.7660 -1299.8200 L 1124.1550 -1299.8980 L 1124.4730 -1300.1120 L 1124.6270 -1300.3410 L 1124.6870 -1300.4300 L 1124.7660 -1300.8200 L 1124.7660 -1079.3200 L 1124.7660 -1078.8200 L 1124.6870 -1079.2090 L 1124.4730 -1079.5270 L 1124.1550 -1079.7410 L 1123.7660 -1079.8200 L 1113.7660 -1079.8200 L 1113.3770 -1079.7410 L 1113.0590 -1079.5270 L 1112.8440 -1079.2090 L 1112.7660 -1078.8200 L 1112.7660 -1026.8200 L 1087.7660 -1001.8200 L 1035.7660 -1001.8200 L 1035.5700 -1001.8000 L 1035.3830 -1001.7430 L 1035.2110 -1001.6520 L 1035.0590 -1001.5270 L 1034.9340 -1001.3740 L 1034.8420 -1001.2020 L 1034.7850 -1001.0160 L 1034.7660 -1000.8200 L 1034.7660 -990.8200 L 1034.8440 -990.4300 L 1035.0590 -990.1120 L 1035.2870 -989.9590 L 1035.3770 -989.8980 L 1035.7660 -989.8200 L 869.3430 -989.8200 L 869.3430 -949.8200 Z M 564.7660 -1405.7200 L 564.7660 -1404.7200 L 564.7660 -1391.3200 L 564.7660 -1389.8200 L 564.7660 -989.8200 L 564.7660 -988.3200 L 564.7660 -974.9200 L 564.7660 -973.9200 L 564.7660 -970.3380 L 564.7660 -969.8190 L 564.7660 -969.3000 L 564.7660 -965.7190 L 564.7660 -964.7190 L 564.7660 -951.3200 L 564.7660 -949.8200 L 764.7660 -949.8200 L 869.3430 -949.8200 L 869.3430 -989.8200 L 764.7660 -989.8200 L 693.7660 -989.8200 L 694.1550 -989.8980 L 694.2450 -989.9590 L 694.4730 -990.1120 L 694.6870 -990.4300 L 694.7660 -990.8200 L 694.7660 -1000.8200 L 694.7460 -1001.0160 L 694.6900 -1001.2020 L 694.5980 -1001.3740 L 694.4730 -1001.5270 L 694.3210 -1001.6520 L 694.1490 -1001.7430 L 693.9620 -1001.8000 L 693.7660 -1001.8200 L 641.7660 -1001.8200 L 616.7660 -1026.8200 L 616.7660 -1078.8200 L 616.6870 -1079.2090 L 616.4730 -1079.5270 L 616.1550 -1079.7410 L 615.7660 -1079.8200 L 605.7660 -1079.8200 L 605.3770 -1079.7410 L 605.0590 -1079.5270 L 604.8440 -1079.2090 L 604.7660 -1078.8200 L 604.7660 -1300.8200 L 604.8440 -1300.4300 L 605.0590 -1300.1120 L 605.3770 -1299.8980 L 605.7660 -1299.8200 L 615.7660 -1299.8200 L 616.1550 -1299.8980 L 616.4730 -1300.1120 L 616.6870 -1300.4300 L 616.7660 -1300.8200 L 619.9410 -1300.8200 L 620.0140 -1301.3720 L 620.1040 -1301.9250 L 620.2290 -1302.4780 L 620.4040 -1303.0310 L 620.6440 -1303.5860 L 620.9420 -1304.1410 L 621.2860 -1304.6960 L 621.6650 -1305.2500 L 622.0120 -1305.7300 L 622.3730 -1306.2100 L 622.7420 -1306.6900 L 623.1160 -1307.1700 L 687.4160 -1371.4700 L 687.9690 -1371.9000 L 688.5210 -1372.3230 L 689.0740 -1372.7330 L 689.6270 -1373.1210 L 690.1820 -1373.4820 L 690.7370 -1373.8050 L 691.2920 -1374.0790 L 691.8470 -1374.2930 L 692.3270 -1374.4270 L 692.8060 -1374.5210 L 693.2860 -1374.5890 L 693.7660 -1374.6450 L 693.7660 -1377.8200 L 693.9620 -1377.8390 L 694.1490 -1377.8960 L 694.3210 -1377.9880 L 694.4730 -1378.1120 L 694.5980 -1378.2650 L 694.6900 -1378.4370 L 694.7460 -1378.6240 L 694.7660 -1378.8200 L 694.7660 -1388.8200 L 694.6870 -1389.2090 L 694.4730 -1389.5270 L 694.1550 -1389.7410 L 693.7660 -1389.8200 L 764.7660 -1389.8200 L 869.3430 -1389.8200 L 869.3430 -1429.8200 L 764.7660 -1429.8200 L 564.7660 -1429.8200 L 564.7660 -1428.3200 L 564.7660 -1427.8200 L 564.7660 -1414.9200 L 564.7660 -1414.4200 L 564.7660 -1413.9200 L 564.7660 -1410.3390 L 564.7660 -1409.8200 L 564.7660 -1409.3000 L 564.7660 -1405.7200 Z" fill="#ffffff" fill-rule="evenodd" stroke="none" />
<path d="M 1132.3721 -1397.8195 L 1132.2464 -1398.4423 L 1131.9035 -1398.9509 L 1131.3949 -1399.2938 L 1130.7721 -1399.4195 L 1130.1493 -1399.2938 L 1129.6407 -1398.9509 L 1129.2979 -1398.4423 L 1129.1721 -1397.8195 L 1129.2979 -1397.1968 L 1129.6407 -1396.6882 L 1130.1493 -1396.3453 L 1130.7721 -1396.2195 L 1131.3949 -1396.3453 L 1131.9035 -1396.6882 L 1132.2464 -1397.1968 L 1132.3721 -1397.8195 Z M 598.7987 -981.8195 L 598.6729 -982.4423 L 598.3301 -982.9509 L 597.8215 -983.2938 L 597.1987 -983.4195 L 596.5759 -983.2938 L 596.0673 -982.9509 L 595.7244 -982.4423 L 595.5987 -981.8195 L 595.7244 -981.1968 L 596.0673 -980.6882 L 596.5759 -980.3453 L 597.1987 -980.2195 L 597.8215 -980.3453 L 598.3301 -980.6882 L 598.6729 -981.1968 L 598.7987 -981.8195 Z M 598.7987 -1397.8195 L 598.6729 -1398.4423 L 598.3301 -1398.9509 L 597.8215 -1399.2938 L 597.1987 -1399.4195 L 596.5759 -1399.2938 L 596.0673 -1398.9509 L 595.7244 -1398.4423 L 595.5987 -1397.8195 L 595.7244 -1397.1968 L 596.0673 -1396.6882 L 596.5759 -1396.3453 L 597.1987 -1396.2195 L 597.8215 -1396.3453 L 598.3301 -1396.6882 L 598.6729 -1397.1968 L 598.7987 -1397.8195 Z M 1124.5721 -981.8195 L 1124.4464 -982.4423 L 1124.1035 -982.9509 L 1123.5949 -983.2938 L 1122.9721 -983.4195 L 1122.3493 -983.2938 L 1121.8407 -982.9509 L 1121.4979 -982.4423 L 1121.3721 -981.8195 L 1121.4979 -981.1968 L 1121.8407 -980.6882 L 1122.3493 -980.3453 L 1122.9721 -980.2195 L 1123.5949 -980.3453 L 1124.1035 -980.6882 L 1124.4464 -981.1968 L 1124.5721 -981.8195 Z M 618.8658 -1377.8195 L 618.7008 -1378.6370 L 618.2507 -1379.3045 L 617.5832 -1379.7545 L 616.7658 -1379.9195 L 615.9484 -1379.7545 L 615.2809 -1379.3045 L 614.8309 -1378.6370 L 614.6658 -1377.8195 L 614.8309 -1377.0021 L 615.2809 -1376.3346 L 615.9484 -1375.8846 L 616.7658 -1375.7195 L 617.5832 -1375.8846 L 618.2507 -1376.3346 L 618.7008 -1377.0021 L 618.8658 -1377.8195 Z M 616.7658 -1300.8195 L 616.8434 -1301.2239 L 616.9400 -1301.6282 L 617.0749 -1302.0325 L 617.2672 -1302.4368 L 617.5317 -1302.8415 L 617.8637 -1303.2462 L 618.2542 -1303.6509 L 618.6941 -1304.0557 L 619.1752 -1304.4604 L 619.6927 -1304.8652 L 620.2425 -1305.2699 L 620.8206 -1305.6745 L 621.3762 -1306.0483 L 621.9474 -1306.4221 L 622.5290 -1306.7958 L 623.1158 -1307.1695 M 619.9408 -1300.8195 L 620.0139 -1301.3724 L 620.1041 -1301.9252 L 620.2285 -1302.4780 L 620.4042 -1303.0310 L 620.6444 -1303.5860 L 620.9421 -1304.1409 L 621.2860 -1304.6958 L 621.6645 -1305.2504 L 622.0120 -1305.7304 L 622.3727 -1306.2102 L 622.7421 -1306.6899 L 623.1158 -1307.1695 M 687.4158 -1371.4695 L 687.8201 -1372.1042 L 688.2245 -1372.7323 L 688.6288 -1373.3473 L 689.0331 -1373.9427 L 689.4378 -1374.5129 L 689.8425 -1375.0530 L 690.2472 -1375.5590 L 690.6519 -1376.0270 L 691.0567 -1376.4524 L 691.4614 -1376.8272 L 691.8661 -1377.1427 L 692.2708 -1377.3902 L 692.6446 -1377.5549 L 693.0184 -1377.6704 L 693.3921 -1377.7531 L 693.7658 -1377.8195 M 687.4158 -1371.4695 L 687.9686 -1371.8999 L 688.5215 -1372.3232 L 689.0743 -1372.7326 L 689.6273 -1373.1211 L 690.1822 -1373.4822 L 690.7372 -1373.8049 L 691.2920 -1374.0788 L 691.8467 -1374.2934 L 692.3267 -1374.4268 L 692.8065 -1374.5211 L 693.2862 -1374.5893 L 693.7658 -1374.6445 M 588.5158 -1369.8195 L 588.4396 -1370.5753 L 588.2211 -1371.2792 L 587.8753 -1371.9162 L 587.4174 -1372.4712 L 586.8625 -1372.9291 L 586.2255 -1373.2748 L 585.5216 -1373.4933 L 584.7658 -1373.5695 L 584.0101 -1373.4933 L 583.3062 -1373.2748 L 582.6692 -1372.9291 L 582.1142 -1372.4712 L 581.6563 -1371.9162 L 581.3106 -1371.2792 L 581.0921 -1370.5753 L 581.0159 -1369.8195 L 581.0921 -1369.0638 L 581.3106 -1368.3599 L 581.6563 -1367.7229 L 582.1142 -1367.1679 L 582.6692 -1366.7100 L 583.3062 -1366.3643 L 584.0101 -1366.1458 L 584.7658 -1366.0696 L 585.5216 -1366.1458 L 586.2255 -1366.3643 L 586.8625 -1366.7100 L 587.4174 -1367.1679 L 587.8753 -1367.7229 L 588.2211 -1368.3599 L 588.4396 -1369.0638 L 588.5158 -1369.8195 Z M 588.5158 -1309.8195 L 588.4396 -1310.5753 L 588.2211 -1311.2792 L 587.8753 -1311.9162 L 587.4174 -1312.4712 L 586.8625 -1312.9291 L 586.2255 -1313.2748 L 585.5216 -1313.4933 L 584.7658 -1313.5695 L 584.0101 -1313.4933 L 583.3062 -1313.2748 L 582.6692 -1312.9291 L 582.1142 -1312.4712 L 581.6563 -1311.9162 L 581.3106 -1311.2792 L 581.0921 -1310.5753 L 581.0159 -1309.8195 L 581.0921 -1309.0638 L 581.3106 -1308.3599 L 581.6563 -1307.7229 L 582.1142 -1307.1679 L 582.6692 -1306.7100 L 583.3062 -1306.3643 L 584.0101 -1306.1458 L 584.7658 -1306.0696 L 585.5216 -1306.1458 L 586.2255 -1306.3643 L 586.8625 -1306.7100 L 587.4174 -1307.1679 L 587.8753 -1307.7229 L 588.2211 -1308.3599 L 588.4396 -1309.0638 L 588.5158 -1309.8195 Z M 588.5158 -1249.8195 L 588.4396 -1250.5753 L 588.2211 -1251.2792 L 587.8753 -1251.9162 L 587.4174 -1252.4712 L 586.8625 -1252.9291 L 586.2255 -1253.2748 L 585.5216 -1253.4933 L 584.7658 -1253.5695 L 584.0101 -1253.4933 L 583.3062 -1253.2748 L 582.6692 -1252.9291 L 582.1142 -1252.4712 L 581.6563 -1251.9162 L 581.3106 -1251.2792 L 581.0921 -1250.5753 L 581.0159 -1249.8195 L 581.0921 -1249.0638 L 581.3106 -1248.3599 L 581.6563 -1247.7229 L 582.1142 -1247.1679 L 582.6692 -1246.7100 L 583.3062 -1246.3643 L 584.0101 -1246.1458 L 584.7658 -1246.0696 L 585.5216 -1246.1458 L 586.2255 -1246.3643 L 586.8625 -1246.7100 L 587.4174 -1247.1679 L 587.8753 -1247.7229 L 588.2211 -1248.3599 L 588.4396 -1249.0638 L 588.5158 -1249.8195 Z M 588.5158 -1189.8195 L 588.4396 -1190.5753 L 588.2211 -1191.2792 L 587.8753 -1191.9162 L 587.4174 -1192.4712 L 586.8625 -1192.9291 L 586.2255 -1193.2748 L 585.5216 -1193.4933 L 584.7658 -1193.5695 L 584.0101 -1193.4933 L 583.3062 -1193.2748 L 582.6692 -1192.9291 L 582.1142 -1192.4712 L 581.6563 -1191.9162 L 581.3106 -1191.2792 L 581.0921 -1190.5753 L 581.0159 -1189.8195 L 581.0921 -1189.0638 L 581.3106 -1188.3599 L 581.6563 -1187.7229 L 582.1142 -1187.1679 L 582.6692 -1186.7100 L 583.3062 -1186.3643 L 584.0101 -1186.1458 L 584.7658 -1186.0696 L 585.5216 -1186.1458 L 586.2255 -1186.3643 L 586.8625 -1186.7100 L 587.4174 -1187.1679 L 587.8753 -1187.7229 L 588.2211 -1188.3599 L 588.4396 -1189.0638 L 588.5158 -1189.8195 Z M 588.5158 -1129.8195 L 588.4396 -1130.5753 L 588.2211 -1131.2792 L 587.8753 -1131.9162 L 587.4174 -1132.4712 L 586.8625 -1132.9291 L 586.2255 -1133.2748 L 585.5216 -1133.4933 L 584.7658 -1133.5695 L 584.0101 -1133.4933 L 583.3062 -1133.2748 L 582.6692 -1132.9291 L 582.1142 -1132.4712 L 581.6563 -1131.9162 L 581.3106 -1131.2792 L 581.0921 -1130.5753 L 581.0159 -1129.8195 L 581.0921 -1129.0638 L 581.3106 -1128.3599 L 581.6563 -1127.7229 L 582.1142 -1127.1679 L 582.6692 -1126.7100 L 583.3062 -1126.3643 L 584.0101 -1126.1458 L 584.7658 -1126.0696 L 585.5216 -1126.1458 L 586.2255 -1126.3643 L 586.8625 -1126.7100 L 587.4174 -1127.1679 L 587.8753 -1127.7229 L 588.2211 -1128.3599 L 588.4396 -1129.0638 L 588.5158 -1129.8195 Z M 588.5158 -1009.8195 L 588.4396 -1010.5753 L 588.2211 -1011.2792 L 587.8753 -1011.9162 L 587.4174 -1012.4712 L 586.8625 -1012.9291 L 586.2255 -1013.2748 L 585.5216 -1013.4933 L 584.7658 -1013.5695 L 584.0101 -1013.4933 L 583.3062 -1013.2748 L 582.6692 -1012.9291 L 582.1142 -1012.4712 L 581.6563 -1011.9162 L 581.3106 -1011.2792 L 581.0921 -1010.5753 L 581.0159 -1009.8195 L 581.0921 -1009.0638 L 581.3106 -1008.3599 L 581.6563 -1007.7229 L 582.1142 -1007.1679 L 582.6692 -1006.7100 L 583.3062 -1006.3643 L 584.0101 -1006.1458 L 584.7658 -1006.0696 L 585.5216 -1006.1458 L 586.2255 -1006.3643 L 586.8625 -1006.7100 L 587.4174 -1007.1679 L 587.8753 -1007.7229 L 588.2211 -1008.3599 L 588.4396 -1009.0638 L 588.5158 -1009.8195 Z M 588.5158 -1069.8195 L 588.4396 -1070.5753 L 588.2211 -1071.2792 L 587.8753 -1071.9162 L 587.4174 -1072.4712 L 586.8625 -1072.9291 L 586.2255 -1073.2748 L 585.5216 -1073.4933 L 584.7658 -1073.5695 L 584.0101 -1073.4933 L 583.3062 -1073.2748 L 582.6692 -1072.9291 L 582.1142 -1072.4712 L 581.6563 -1071.9162 L 581.3106 -1071.2792 L 581.0921 -1070.5753 L 581.0159 -1069.8195 L 581.0921 -1069.0638 L 581.3106 -1068.3599 L 581.6563 -1067.7229 L 582.1142 -1067.1679 L 582.6692 -1066.7100 L 583.3062 -1066.3643 L 584.0101 -1066.1458 L 584.7658 -1066.0696 L 585.5216 -1066.1458 L 586.2255 -1066.3643 L 586.8625 -1066.7100 L 587.4174 -1067.1679 L 587.8753 -1067.7229 L 588.2211 -1068.3599 L 588.4396 -1069.0638 L 588.5158 -1069.8195 Z M 587.0158 -1369.8195 L 586.8390 -1370.6953 L 586.3568 -1371.4105 L 585.6416 -1371.8927 L 584.7658 -1372.0695 L 583.8900 -1371.8927 L 583.1748 -1371.4105 L 582.6926 -1370.6953 L 582.5158 -1369.8195 L 582.6926 -1368.9437 L 583.1748 -1368.2286 L 583.8900 -1367.7464 L 584.7658 -1367.5695 L 585.6416 -1367.7464 L 586.3568 -1368.2286 L 586.8390 -1368.9437 L 587.0158 -1369.8195 Z M 587.0158 -1309.8195 L 586.8390 -1310.6953 L 586.3568 -1311.4105 L 585.6416 -1311.8927 L 584.7658 -1312.0695 L 583.8900 -1311.8927 L 583.1748 -1311.4105 L 582.6926 -1310.6953 L 582.5158 -1309.8195 L 582.6926 -1308.9437 L 583.1748 -1308.2286 L 583.8900 -1307.7464 L 584.7658 -1307.5695 L 585.6416 -1307.7464 L 586.3568 -1308.2286 L 586.8390 -1308.9437 L 587.0158 -1309.8195 Z M 587.0158 -1249.8195 L 586.8390 -1250.6953 L 586.3568 -1251.4105 L 585.6416 -1251.8927 L 584.7658 -1252.0695 L 583.8900 -1251.8927 L 583.1748 -1251.4105 L 582.6926 -1250.6953 L 582.5158 -1249.8195 L 582.6926 -1248.9437 L 583.1748 -1248.2286 L 583.8900 -1247.7464 L 584.7658 -1247.5695 L 585.6416 -1247.7464 L 586.3568 -1248.2286 L 586.8390 -1248.9437 L 587.0158 -1249.8195 Z M 587.0158 -1189.8195 L 586.8390 -1190.6953 L 586.3568 -1191.4105 L 585.6416 -1191.8927 L 584.7658 -1192.0695 L 583.8900 -1191.8927 L 583.1748 -1191.4105 L 582.6926 -1190.6953 L 582.5158 -1189.8195 L 582.6926 -1188.9437 L 583.1748 -1188.2286 L 583.8900 -1187.7464 L 584.7658 -1187.5695 L 585.6416 -1187.7464 L 586.3568 -1188.2286 L 586.8390 -1188.9437 L 587.0158 -1189.8195 Z M 587.0158 -1129.8195 L 586.8390 -1130.6953 L 586.3568 -1131.4105 L 585.6416 -1131.8927 L 584.7658 -1132.0695 L 583.8900 -1131.8927 L 583.1748 -1131.4105 L 582.6926 -1130.6953 L 582.5158 -1129.8195 L 582.6926 -1128.9437 L 583.1748 -1128.2286 L 583.8900 -1127.7464 L 584.7658 -1127.5695 L 585.6416 -1127.7464 L 586.3568 -1128.2286 L 586.8390 -1128.9437 L 587.0158 -1129.8195 Z M 587.0158 -1069.8195 L 586.8390 -1070.6953 L 586.3568 -1071.4105 L 585.6416 -1071.8927 L 584.7658 -1072.0695 L 583.8900 -1071.8927 L 583.1748 -1071.4105 L 582.6926 -1070.6953 L 582.5158 -1069.8195 L 582.6926 -1068.9437 L 583.1748 -1068.2286 L 583.8900 -1067.7464 L 584.7658 -1067.5695 L 585.6416 -1067.7464 L 586.3568 -1068.2286 L 586.8390 -1068.9437 L 587.0158 -1069.8195 Z M 587.0158 -1009.8195 L 586.8390 -1010.6953 L 586.3568 -1011.4105 L 585.6416 -1011.8927 L 584.7658 -1012.0695 L 583.8900 -1011.8927 L 583.1748 -1011.4105 L 582.6926 -1010.6953 L 582.5158 -1009.8195 L 582.6926 -1008.9437 L 583.1748 -1008.2286 L 583.8900 -1007.7464 L 584.7658 -1007.5695 L 585.6416 -1007.7464 L 586.3568 -1008.2286 L 586.8390 -1008.9437 L 587.0158 -1009.8195 Z M 1148.5158 -1369.8195 L 1148.4396 -1370.5753 L 1148.2211 -1371.2792 L 1147.8753 -1371.9162 L 1147.4174 -1372.4712 L 1146.8625 -1372.9291 L 1146.2255 -1373.2748 L 1145.5216 -1373.4933 L 1144.7658 -1373.5695 L 1144.0101 -1373.4933 L 1143.3062 -1373.2748 L 1142.6692 -1372.9291 L 1142.1142 -1372.4712 L 1141.6563 -1371.9162 L 1141.3106 -1371.2792 L 1141.0921 -1370.5753 L 1141.0159 -1369.8195 L 1141.0921 -1369.0638 L 1141.3106 -1368.3599 L 1141.6563 -1367.7229 L 1142.1142 -1367.1679 L 1142.6692 -1366.7100 L 1143.3062 -1366.3643 L 1144.0101 -1366.1458 L 1144.7658 -1366.0696 L 1145.5216 -1366.1458 L 1146.2255 -1366.3643 L 1146.8625 -1366.7100 L 1147.4174 -1367.1679 L 1147.8753 -1367.7229 L 1148.2211 -1368.3599 L 1148.4396 -1369.0638 L 1148.5158 -1369.8195 Z M 1148.5158 -1309.8195 L 1148.4396 -1310.5753 L 1148.2211 -1311.2792 L 1147.8753 -1311.9162 L 1147.4174 -1312.4712 L 1146.8625 -1312.9291 L 1146.2255 -1313.2748 L 1145.5216 -1313.4933 L 1144.7658 -1313.5695 L 1144.0101 -1313.4933 L 1143.3062 -1313.2748 L 1142.6692 -1312.9291 L 1142.1142 -1312.4712 L 1141.6563 -1311.9162 L 1141.3106 -1311.2792 L 1141.0921 -1310.5753 L 1141.0159 -1309.8195 L 1141.0921 -1309.0638 L 1141.3106 -1308.3599 L 1141.6563 -1307.7229 L 1142.1142 -1307.1679 L 1142.6692 -1306.7100 L 1143.3062 -1306.3643 L 1144.0101 -1306.1458 L 1144.7658 -1306.0696 L 1145.5216 -1306.1458 L 1146.2255 -1306.3643 L 1146.8625 -1306.7100 L 1147.4174 -1307.1679 L 1147.8753 -1307.7229 L 1148.2211 -1308.3599 L 1148.4396 -1309.0638 L 1148.5158 -1309.8195 Z M 1148.5158 -1249.8195 L 1148.4396 -1250.5753 L 1148.2211 -1251.2792 L 1147.8753 -1251.9162 L 1147.4174 -1252.4712 L 1146.8625 -1252.9291 L 1146.2255 -1253.2748 L 1145.5216 -1253.4933 L 1144.7658 -1253.5695 L 1144.0101 -1253.4933 L 1143.3062 -1253.2748 L 1142.6692 -1252.9291 L 1142.1142 -1252.4712 L 1141.6563 -1251.9162 L 1141.3106 -1251.2792 L 1141.0921 -1250.5753 L 1141.0159 -1249.8195 L 1141.0921 -1249.0638 L 1141.3106 -1248.3599 L 1141.6563 -1247.7229 L 1142.1142 -1247.1679 L 1142.6692 -1246.7100 L 1143.3062 -1246.3643 L 1144.0101 -1246.1458 L 1144.7658 -1246.0696 L 1145.5216 -1246.1458 L 1146.2255 -1246.3643 L 1146.8625 -1246.7100 L 1147.4174 -1247.1679 L 1147.8753 -1247.7229 L 1148.2211 -1248.3599 L 1148.4396 -1249.0638 L 1148.5158 -1249.8195 Z M 1148.5158 -1189.8195 L 1148.4396 -1190.5753 L 1148.2211 -1191.2792 L 1147.8753 -1191.9162 L 1147.4174 -1192.4712 L 1146.8625 -1192.9291 L 1146.2255 -1193.2748 L 1145.5216 -1193.4933 L 1144.7658 -1193.5695 L 1144.0101 -1193.4933 L 1143.3062 -1193.2748 L 1142.6692 -1192.9291 L 1142.1142 -1192.4712 L 1141.6563 -1191.9162 L 1141.3106 -1191.2792 L 1141.0921 -1190.5753 L 1141.0159 -1189.8195 L 1141.0921 -1189.0638 L 1141.3106 -1188.3599 L 1141.6563 -1187.7229 L 1142.1142 -1187.1679 L 1142.6692 -1186.7100 L 1143.3062 -1186.3643 L 1144.0101 -1186.1458 L 1144.7658 -1186.0696 L 1145.5216 -1186.1458 L 1146.2255 -1186.3643 L 1146.8625 -1186.7100 L 1147.4174 -1187.1679 L 1147.8753 -1187.7229 L 1148.2211 -1188.3599 L 1148.4396 -1189.0638 L 1148.5158 -1189.8195 Z M 1148.5158 -1129.8195 L 1148.4396 -1130.5753 L 1148.2211 -1131.2792 L 1147.8753 -1131.9162 L 1147.4174 -1132.4712 L 1146.8625 -1132.9291 L 1146.2255 -1133.2748 L 1145.5216 -1133.4933 L 1144.7658 -1133.5695 L 1144.0101 -1133.4933 L 1143.3062 -1133.2748 L 1142.6692 -1132.9291 L 1142.1142 -1132.4712 L 1141.6563 -1131.9162 L 1141.3106 -1131.2792 L 1141.0921 -1130.5753 L 1141.0159 -1129.8195 L 1141.0921 -1129.0638 L 1141.3106 -1128.3599 L 1141.6563 -1127.7229 L 1142.1142 -1127.1679 L 1142.6692 -1126.7100 L 1143.3062 -1126.3643 L 1144.0101 -1126.1458 L 1144.7658 -1126.0696 L 1145.5216 -1126.1458 L 1146.2255 -1126.3643 L 1146.8625 -1126.7100 L 1147.4174 -1127.1679 L 1147.8753 -1127.7229 L 1148.2211 -1128.3599 L 1148.4396 -1129.0638 L 1148.5158 -1129.8195 Z M 1148.5158 -1009.8195 L 1148.4396 -1010.5753 L 1148.2211 -1011.2792 L 1147.8753 -1011.9162 L 1147.4174 -1012.4712 L 1146.8625 -1012.9291 L 1146.2255 -1013.2748 L 1145.5216 -1013.4933 L 1144.7658 -1013.5695 L 1144.0101 -1013.4933 L 1143.3062 -1013.2748 L 1142.6692 -1012.9291 L 1142.1142 -1012.4712 L 1141.6563 -1011.9162 L 1141.3106 -1011.2792 L 1141.0921 -1010.5753 L 1141.0159 -1009.8195 L 1141.0921 -1009.0638 L 1141.3106 -1008.3599 L 1141.6563 -1007.7229 L 1142.1142 -1007.1679 L 1142.6692 -1006.7100 L 1143.3062 -1006.3643 L 1144.0101 -1006.1458 L 1144.7658 -1006.0696 L 1145.5216 -1006.1458 L 1146.2255 -1006.3643 L 1146.8625 -1006.7100 L 1147.4174 -1007.1679 L 1147.8753 -1007.7229 L 1148.2211 -1008.3599 L 1148.4396 -1009.0638 L 1148.5158 -1009.8195 Z M 1148.5158 -1069.8195 L 1148.4396 -1070.5753 L 1148.2211 -1071.2792 L 1147.8753 -1071.9162 L 1147.4174 -1072.4712 L 1146.8625 -1072.9291 L 1146.2255 -1073.2748 L 1145.5216 -1073.4933 L 1144.7658 -1073.5695 L 1144.0101 -1073.4933 L 1143.3062 -1073.2748 L 1142.6692 -1072.9291 L 1142.1142 -1072.4712 L 1141.6563 -1071.9162 L 1141.3106 -1071.2792 L 1141.0921 -1070.5753 L 1141.0159 -1069.8195 L 1141.0921 -1069.0638 L 1141.3106 -1068.3599 L 1141.6563 -1067.7229 L 1142.1142 -1067.1679 L 1142.6692 -1066.7100 L 1143.3062 -1066.3643 L 1144.0101 -1066.1458 L 1144.7658 -1066.0696 L 1145.5216 -1066.1458 L 1146.2255 -1066.3643 L 1146.8625 -1066.7100 L 1147.4174 -1067.1679 L 1147.8753 -1067.7229 L 1148.2211 -1068.3599 L 1148.4396 -1069.0638 L 1148.5158 -1069.8195 Z M 1147.0158 -1369.8195 L 1146.8390 -1370.6953 L 1146.3568 -1371.4105 L 1145.6416 -1371.8927 L 1144.7658 -1372.0695 L 1143.8900 -1371.8927 L 1143.1748 -1371.4105 L 1142.6926 -1370.6953 L 1142.5158 -1369.8195 L 1142.6926 -1368.9437 L 1143.1748 -1368.2286 L 1143.8900 -1367.7464 L 1144.7658 -1367.5695 L 1145.6416 -1367.7464 L 1146.3568 -1368.2286 L 1146.8390 -1368.9437 L 1147.0158 -1369.8195 Z M 1147.0158 -1309.8195 L 1146.8390 -1310.6953 L 1146.3568 -1311.4105 L 1145.6416 -1311.8927 L 1144.7658 -1312.0695 L 1143.8900 -1311.8927 L 1143.1748 -1311.4105 L 1142.6926 -1310.6953 L 1142.5158 -1309.8195 L 1142.6926 -1308.9437 L 1143.1748 -1308.2286 L 1143.8900 -1307.7464 L 1144.7658 -1307.5695 L 1145.6416 -1307.7464 L 1146.3568 -1308.2286 L 1146.8390 -1308.9437 L 1147.0158 -1309.8195 Z M 1147.0158 -1249.8195 L 1146.8390 -1250.6953 L 1146.3568 -1251.4105 L 1145.6416 -1251.8927 L 1144.7658 -1252.0695 L 1143.8900 -1251.8927 L 1143.1748 -1251.4105 L 1142.6926 -1250.6953 L 1142.5158 -1249.8195 L 1142.6926 -1248.9437 L 1143.1748 -1248.2286 L 1143.8900 -1247.7464 L 1144.7658 -1247.5695 L 1145.6416 -1247.7464 L 1146.3568 -1248.2286 L 1146.8390 -1248.9437 L 1147.0158 -1249.8195 Z M 1147.0158 -1189.8195 L 1146.8390 -1190.6953 L 1146.3568 -1191.4105 L 1145.6416 -1191.8927 L 1144.7658 -1192.0695 L 1143.8900 -1191.8927 L 1143.1748 -1191.4105 L 1142.6926 -1190.6953 L 1142.5158 -1189.8195 L 1142.6926 -1188.9437 L 1143.1748 -1188.2286 L 1143.8900 -1187.7464 L 1144.7658 -1187.5695 L 1145.6416 -1187.7464 L 1146.3568 -1188.2286 L 1146.8390 -1188.9437 L 1147.0158 -1189.8195 Z M 1147.0158 -1129.8195 L 1146.8390 -1130.6953 L 1146.3568 -1131.4105 L 1145.6416 -1131.8927 L 1144.7658 -1132.0695 L 1143.8900 -1131.8927 L 1143.1748 -1131.4105 L 1142.6926 -1130.6953 L 1142.5158 -1129.8195 L 1142.6926 -1128.9437 L 1143.1748 -1128.2286 L 1143.8900 -1127.7464 L 1144.7658 -1127.5695 L 1145.6416 -1127.7464 L 1146.3568 -1128.2286 L 1146.8390 -1128.9437 L 1147.0158 -1129.8195 Z M 1147.0158 -1069.8195 L 1146.8390 -1070.6953 L 1146.3568 -1071.4105 L 1145.6416 -1071.8927 L 1144.7658 -1072.0695 L 1143.8900 -1071.8927 L 1143.1748 -1071.4105 L 1142.6926 -1070.6953 L 1142.5158 -1069.8195 L 1142.6926 -1068.9437 L 1143.1748 -1068.2286 L 1143.8900 -1067.7464 L 1144.7658 -1067.5695 L 1145.6416 -1067.7464 L 1146.3568 -1068.2286 L 1146.8390 -1068.9437 L 1147.0158 -1069.8195 Z M 1147.0158 -1009.8195 L 1146.8390 -1010.6953 L 1146.3568 -1011.4105 L 1145.6416 -1011.8927 L 1144.7658 -1012.0695 L 1143.8900 -1011.8927 L 1143.1748 -1011.4105 L 1142.6926 -1010.6953 L 1142.5158 -1009.8195 L 1142.6926 -1008.9437 L 1143.1748 -1008.2286 L 1143.8900 -1007.7464 L 1144.7658 -1007.5695 L 1145.6416 -1007.7464 L 1146.3568 -1008.2286 L 1146.8390 -1008.9437 L 1147.0158 -1009.8195 Z M 1131.8721 -1415.8195 L 1131.8721 -1405.8195 M 596.0987 -963.8195 L 596.0987 -973.8195 M 598.2987 -1415.8195 L 598.2987 -1405.8195 M 1121.8721 -963.8195 L 1121.8721 -973.8195 M 1126.8721 -1385.8195 L 1134.6721 -1385.8195 M 1134.6721 -1379.8195 L 1134.6721 -1402.8195 M 1126.8721 -1388.4195 L 1134.6721 -1388.4195 M 1126.8721 -1402.8195 L 1126.8721 -1379.8195 M 1126.8721 -1379.8195 L 1134.6721 -1379.8195 M 1126.8721 -1402.8195 L 1134.6721 -1402.8195 M 1133.1721 -1405.8195 L 1133.1721 -1402.8195 M 1128.3721 -1405.8195 L 1133.1721 -1405.8195 M 1128.3721 -1402.8195 L 1128.3721 -1405.8195 M 1129.8721 -1415.8195 L 1129.8721 -1405.8195 M 1129.8721 -1415.8195 L 1131.8721 -1415.8195 M 601.0987 -999.8195 L 593.2987 -999.8195 M 593.2987 -999.8195 L 593.2987 -976.8195 M 601.0987 -993.8195 L 593.2987 -993.8195 M 601.0987 -976.8195 L 601.0987 -999.8195 M 601.0987 -991.2195 L 593.2987 -991.2195 M 601.0987 -976.8195 L 593.2987 -976.8195 M 599.5987 -976.8195 L 599.5987 -973.8195 M 599.5987 -973.8195 L 594.7987 -973.8195 M 594.7987 -973.8195 L 594.7987 -976.8195 M 598.0987 -963.8195 L 598.0987 -973.8195 M 598.0987 -963.8195 L 596.0987 -963.8195 M 593.2987 -1385.8195 L 601.0987 -1385.8195 M 601.0987 -1379.8195 L 601.0987 -1402.8195 M 593.2987 -1388.4195 L 601.0987 -1388.4195 M 593.2987 -1402.8195 L 593.2987 -1379.8195 M 593.2987 -1379.8195 L 601.0987 -1379.8195 M 593.2987 -1402.8195 L 601.0987 -1402.8195 M 599.5987 -1405.8195 L 599.5987 -1402.8195 M 594.7987 -1405.8195 L 599.5987 -1405.8195 M 594.7987 -1402.8195 L 594.7987 -1405.8195 M 596.2987 -1415.8195 L 596.2987 -1405.8195 M 596.2987 -1415.8195 L 598.2987 -1415.8195 M 1126.8721 -999.8195 L 1119.0721 -999.8195 M 1126.8721 -993.8195 L 1119.0721 -993.8195 M 1126.8721 -976.8195 L 1126.8721 -999.8195 M 1119.0721 -999.8195 L 1119.0721 -976.8195 M 1126.8721 -991.2195 L 1119.0721 -991.2195 M 1126.8721 -976.8195 L 1119.0721 -976.8195 M 1125.3721 -973.8195 L 1120.5721 -973.8195 M 1125.3721 -976.8195 L 1125.3721 -973.8195 M 1120.5721 -973.8195 L 1120.5721 -976.8195 M 1123.8721 -963.8195 L 1123.8721 -973.8195 M 1123.8721 -963.8195 L 1121.8721 -963.8195 M 605.0658 -1389.5195 L 641.7658 -1389.5195 M 605.0658 -1352.8195 L 605.0658 -1389.5195 M 616.7658 -1354.4070 L 616.7658 -1300.8195 M 624.7033 -1354.4070 L 616.7658 -1354.4070 M 624.7033 -1352.8195 L 624.7033 -1354.4070 M 624.7033 -1352.8195 L 605.0658 -1352.8195 M 623.1158 -1307.1695 L 623.1158 -1352.8195 M 687.4158 -1371.4695 L 623.1158 -1307.1695 M 641.7658 -1371.4695 L 687.4158 -1371.4695 M 640.1783 -1369.8820 L 641.7658 -1369.8820 M 640.1783 -1377.8195 L 640.1783 -1369.8820 M 693.7658 -1377.8195 L 640.1783 -1377.8195 M 641.7658 -1389.5195 L 641.7658 -1369.8820 M 619.9408 -1300.8195 L 616.7658 -1300.8195 M 693.7658 -1374.6445 L 693.7658 -1377.8195 M 615.7658 -1299.8195 L 605.7658 -1299.8195 M 641.7658 -1377.8195 L 640.1783 -1376.2320 M 618.3533 -1354.4070 L 616.7658 -1352.8195 M 694.7658 -1388.8195 L 694.7658 -1378.8195 M 694.7658 -990.8195 L 694.7658 -1000.8195 M 693.7658 -1001.8195 L 641.7658 -1001.8195 M 641.7658 -1001.8195 L 616.7658 -1026.8195 M 616.7658 -1026.8195 L 616.7658 -1078.8195 M 615.7658 -1079.8195 L 605.7658 -1079.8195 M 619.2304 -1002.4799 L 620.2095 -1002.7423 M 617.6885 -1005.2632 L 617.4262 -1004.2841 M 610.2658 -1001.8195 L 612.1931 -1001.8195 M 609.7658 -1021.9201 L 609.7658 -1002.3195 M 638.2805 -998.2338 L 613.1800 -1023.3343 M 617.2658 -994.8195 L 636.8663 -994.8195 M 616.7658 -997.2468 L 616.7658 -995.3195 M 1113.7658 -1079.8195 L 1123.7658 -1079.8195 M 1112.7658 -1026.8195 L 1112.7658 -1078.8195 M 1087.7658 -1001.8195 L 1112.7658 -1026.8195 M 1035.7658 -1001.8195 L 1087.7658 -1001.8195 M 1034.7658 -990.8195 L 1034.7658 -1000.8195 M 1112.2658 -994.8195 L 1092.6653 -994.8195 M 1091.2511 -998.2338 L 1116.3516 -1023.3343 M 1119.7658 -1021.9201 L 1119.7658 -1002.3195 M 1119.2658 -1001.8195 L 1117.3386 -1001.8195 M 1111.8431 -1005.2632 L 1112.1055 -1004.2841 M 1110.3013 -1002.4799 L 1109.3222 -1002.7423 M 1112.7658 -997.2468 L 1112.7658 -995.3195 M 1034.7658 -1388.8195 L 1034.7658 -1378.8195 M 1035.7658 -1377.8195 L 1087.7658 -1377.8195 M 1087.7658 -1377.8195 L 1112.7658 -1352.8195 M 1112.7658 -1352.8195 L 1112.7658 -1300.8195 M 1113.7658 -1299.8195 L 1123.7658 -1299.8195 M 1110.3013 -1377.1592 L 1109.3222 -1376.8968 M 1111.8431 -1374.3759 L 1112.1055 -1375.3550 M 1119.2658 -1377.8195 L 1117.3386 -1377.8195 M 1119.7658 -1357.7190 L 1119.7658 -1377.3195 M 1091.2511 -1381.4053 L 1116.3516 -1356.3048 M 1112.2658 -1384.8195 L 1092.6653 -1384.8195 M 1112.7658 -1382.3923 L 1112.7658 -1384.3195 M 564.7658 -1428.3195 L 1164.7658 -1428.3195 M 564.7658 -1414.9195 L 596.2987 -1414.9195 M 598.2987 -1414.9195 L 1129.8721 -1414.9195 M 1131.8721 -1414.9195 L 1164.7658 -1414.9195 M 564.7658 -1429.8195 L 1164.7658 -1429.8195 M 764.7658 -1429.8195 L 764.7658 -1428.3195 M 564.7658 -1404.7195 L 594.7987 -1404.7195 M 599.5987 -1404.7195 L 1128.3721 -1404.7195 M 1133.1721 -1404.7195 L 1164.7658 -1404.7195 M 764.7658 -1391.3195 L 764.7658 -1389.8195 M 564.7658 -1413.9195 L 596.2987 -1413.9195 M 598.2987 -1413.9195 L 1129.8721 -1413.9195 M 1131.8721 -1413.9195 L 1164.7658 -1413.9195 M 564.7658 -1405.7195 L 594.7987 -1405.7195 M 599.5987 -1405.7195 L 1128.3721 -1405.7195 M 1133.1721 -1405.7195 L 1164.7658 -1405.7195 M 564.7658 -1410.3385 L 596.2987 -1410.3385 M 598.2987 -1410.3385 L 1129.8721 -1410.3385 M 1131.8721 -1410.3385 L 1164.7658 -1410.3385 M 564.7658 -1409.2995 L 596.2987 -1409.2995 M 598.2987 -1409.2995 L 1129.8721 -1409.2995 M 1131.8721 -1409.2995 L 1164.7658 -1409.2995 M 564.7658 -1409.8195 L 596.2987 -1409.8195 M 598.2987 -1409.8195 L 1129.8721 -1409.8195 M 1131.8721 -1409.8195 L 1164.7658 -1409.8195 M 564.7658 -974.9195 L 594.7987 -974.9195 M 599.5987 -974.9195 L 1120.5721 -974.9195 M 1125.3721 -974.9195 L 1164.7658 -974.9195 M 764.7658 -989.8195 L 764.7658 -988.3195 M 564.7658 -964.7185 L 596.0987 -964.7185 M 598.0987 -964.7185 L 1121.8721 -964.7185 M 1123.8721 -964.7185 L 1164.7658 -964.7185 M 564.7658 -951.3195 L 1164.7658 -951.3195 M 1164.7658 -1429.8195 L 1164.7658 -949.8195 M 564.7658 -1429.8195 L 564.7658 -949.8195 M 564.7658 -949.8195 L 1164.7658 -949.8195 M 764.7658 -951.3195 L 764.7658 -949.8195 M 564.7658 -973.9195 L 594.7987 -973.9195 M 599.5987 -973.9195 L 1120.5721 -973.9195 M 1125.3721 -973.9195 L 1164.7658 -973.9195 M 564.7658 -965.7185 L 596.0987 -965.7185 M 598.0987 -965.7185 L 1121.8721 -965.7185 M 1123.8721 -965.7185 L 1164.7658 -965.7185 M 564.7658 -970.3375 L 596.0987 -970.3375 M 598.0987 -970.3375 L 1121.8721 -970.3375 M 1123.8721 -970.3375 L 1164.7658 -970.3375 M 564.7658 -969.2995 L 596.0987 -969.2995 M 598.0987 -969.2995 L 1121.8721 -969.2995 M 1123.8721 -969.2995 L 1164.7658 -969.2995 M 564.7658 -969.8185 L 596.0987 -969.8185 M 598.0987 -969.8185 L 1121.8721 -969.8185 M 1123.8721 -969.8185 L 1164.7658 -969.8185 M 579.2023 -989.8195 L 579.2023 -1389.8195 M 578.7182 -1389.8195 L 578.7182 -989.8195 M 590.3293 -1389.8195 L 590.3293 -989.8195 M 590.8135 -989.8195 L 590.8135 -1389.8195 M 577.6408 -989.8195 L 577.6408 -1389.8195 M 591.8908 -1389.8195 L 591.8908 -989.8195 M 577.2658 -1389.8195 L 577.2658 -989.8195 M 592.2658 -989.8195 L 592.2658 -1389.8195 M 1139.2023 -989.8195 L 1139.2023 -1389.8195 M 1138.7182 -1389.8195 L 1138.7182 -989.8195 M 1164.7658 -989.8195 L 1126.8721 -989.8195 M 1164.7658 -1389.8195 L 1134.6721 -1389.8195 M 1150.3293 -1389.8195 L 1150.3293 -989.8195 M 1150.8135 -989.8195 L 1150.8135 -1389.8195 M 1137.6408 -989.8195 L 1137.6408 -1389.8195 M 1151.8908 -1389.8195 L 1151.8908 -989.8195 M 1137.2658 -1389.8195 L 1137.2658 -989.8195 M 1152.2658 -989.8195 L 1152.2658 -1389.8195 M 1124.7658 -1389.8195 L 1124.7658 -999.8195 M 1163.2658 -1389.8195 L 1163.2658 -989.8195 M 1144.2458 -1372.0086 L 1144.2458 -1367.6305 M 1144.2458 -1312.0086 L 1144.2458 -1307.6305 M 1144.2458 -1252.0086 L 1144.2458 -1247.6305 M 1144.2458 -1192.0086 L 1144.2458 -1187.6305 M 1144.2458 -1132.0086 L 1144.2458 -1127.6305 M 1144.2458 -1072.0086 L 1144.2458 -1067.6305 M 1144.2458 -1012.0086 L 1144.2458 -1007.6305 M 1144.7658 -1372.0695 L 1144.7658 -1367.5695 M 1144.7658 -1312.0695 L 1144.7658 -1307.5695 M 1144.7658 -1252.0695 L 1144.7658 -1247.5695 M 1144.7658 -1192.0695 L 1144.7658 -1187.5695 M 1144.7658 -1132.0695 L 1144.7658 -1127.5695 M 1144.7658 -1072.0695 L 1144.7658 -1067.5695 M 1144.7658 -1012.0695 L 1144.7658 -1007.5695 M 1145.2848 -1372.0089 L 1145.2848 -1367.6302 M 1145.2848 -1312.0089 L 1145.2848 -1307.6302 M 1145.2848 -1252.0089 L 1145.2848 -1247.6302 M 1145.2848 -1192.0089 L 1145.2848 -1187.6302 M 1145.2848 -1132.0089 L 1145.2848 -1127.6302 M 1145.2848 -1072.0089 L 1145.2848 -1067.6302 M 1145.2848 -1012.0089 L 1145.2848 -1007.6302 M 566.2658 -1389.8195 L 566.2658 -989.8195 M 593.2987 -989.8195 L 564.7658 -989.8195 M 593.2987 -1389.8195 L 564.7658 -1389.8195 M 603.2658 -1389.8195 L 603.2658 -989.8195 M 601.0987 -989.8195 L 1119.0721 -989.8195 M 601.0987 -1389.8195 L 1126.8721 -1389.8195 M 604.7658 -1389.8195 L 604.7658 -989.8195 M 584.2458 -1372.0086 L 584.2458 -1367.6305 M 584.2458 -1312.0086 L 584.2458 -1307.6305 M 584.2458 -1252.0086 L 584.2458 -1247.6305 M 584.2458 -1192.0086 L 584.2458 -1187.6305 M 584.2458 -1132.0086 L 584.2458 -1127.6305 M 584.2458 -1072.0086 L 584.2458 -1067.6305 M 584.2458 -1012.0086 L 584.2458 -1007.6305 M 584.7658 -1372.0695 L 584.7658 -1367.5695 M 584.7658 -1312.0695 L 584.7658 -1307.5695 M 584.7658 -1252.0695 L 584.7658 -1247.5695 M 584.7658 -1192.0695 L 584.7658 -1187.5695 M 584.7658 -1132.0695 L 584.7658 -1127.5695 M 584.7658 -1072.0695 L 584.7658 -1067.5695 M 584.7658 -1012.0695 L 584.7658 -1007.5695 M 585.2848 -1372.0089 L 585.2848 -1367.6302 M 585.2848 -1312.0089 L 585.2848 -1307.6302 M 585.2848 -1252.0089 L 585.2848 -1247.6302 M 585.2848 -1192.0089 L 585.2848 -1187.6302 M 585.2848 -1132.0089 L 585.2848 -1127.6302 M 585.2848 -1072.0089 L 585.2848 -1067.6302 M 585.2848 -1012.0089 L 585.2848 -1007.6302 M 564.7658 -1391.3195 L 593.2987 -1391.3195 M 601.0987 -1391.3195 L 1126.8721 -1391.3195 M 1134.6721 -1391.3195 L 1164.7658 -1391.3195 M 601.0987 -988.3195 L 1119.0721 -988.3195 M 1126.8721 -988.3195 L 1164.7658 -988.3195 M 564.7658 -988.3195 L 593.2987 -988.3195 M 1126.2658 -1389.8195 L 1126.2658 -999.8195 M 605.7658 -1299.8195 L 605.3766 -1299.8981 L 605.0587 -1300.1124 L 604.8444 -1300.4303 L 604.7658 -1300.8195 M 616.7658 -1300.8195 L 616.6872 -1300.4303 L 616.4729 -1300.1124 L 616.1551 -1299.8981 L 615.7658 -1299.8195 M 694.7658 -1378.8195 L 694.7464 -1378.6235 L 694.6897 -1378.4369 L 694.5978 -1378.2647 L 694.4729 -1378.1124 L 694.3206 -1377.9876 L 694.1485 -1377.8957 L 693.9618 -1377.8389 L 693.7658 -1377.8195 M 693.7658 -1389.8195 L 694.1551 -1389.7410 L 694.4729 -1389.5267 L 694.6872 -1389.2088 L 694.7658 -1388.8195 M 604.7658 -1388.8195 L 604.8444 -1389.2088 L 605.0587 -1389.5267 L 605.3766 -1389.7410 L 605.7658 -1389.8195 M 694.7658 -990.8195 L 694.6872 -990.4303 L 694.4729 -990.1124 L 694.1551 -989.8981 L 693.7658 -989.8195 M 693.7658 -1001.8195 L 693.9618 -1001.8002 L 694.1485 -1001.7434 L 694.3206 -1001.6515 L 694.4729 -1001.5267 L 694.5978 -1001.3743 L 694.6897 -1001.2022 L 694.7464 -1001.0155 L 694.7658 -1000.8195 M 615.7658 -1079.8195 L 616.1551 -1079.7410 L 616.4729 -1079.5267 L 616.6872 -1079.2088 L 616.7658 -1078.8195 M 605.7658 -989.8195 L 605.3766 -989.8981 L 605.0587 -990.1124 L 604.8444 -990.4303 L 604.7658 -990.8195 M 616.7658 -997.2468 L 616.7998 -997.4282 L 616.8935 -997.5806 L 617.0349 -997.6904 L 617.2115 -997.7438 M 620.8351 -1002.3204 L 620.8538 -1001.5061 L 620.7133 -1000.7116 L 620.4199 -999.9601 L 619.9802 -999.2744 L 619.4137 -998.6892 L 618.7494 -998.2313 L 618.0084 -997.9124 L 617.2115 -997.7438 M 620.2095 -1002.7423 L 620.3155 -1002.7588 L 620.4214 -1002.7524 L 620.5235 -1002.7239 L 620.6184 -1002.6739 L 620.7004 -1002.6047 L 620.7651 -1002.5206 L 620.8107 -1002.4248 L 620.8351 -1002.3204 M 618.8609 -1001.9628 L 618.8793 -1002.1355 L 618.9529 -1002.2876 L 619.0729 -1002.4066 L 619.2304 -1002.4799 M 618.8609 -1001.9628 L 618.8067 -1001.3242 L 618.5693 -1000.7438 L 618.1714 -1000.2591 L 617.6352 -999.9080 L 617.0182 -999.7346 L 616.3914 -999.7532 L 615.7979 -999.9558 L 615.2809 -1000.3346 L 614.9021 -1000.8516 L 614.6995 -1001.4451 L 614.6809 -1002.0719 L 614.8542 -1002.6889 L 615.2054 -1003.2251 L 615.6900 -1003.6231 L 616.2705 -1003.8604 L 616.9091 -1003.9147 M 617.4262 -1004.2841 L 617.3528 -1004.1266 L 617.2339 -1004.0066 L 617.0818 -1003.9330 L 616.9091 -1003.9147 M 617.2667 -1005.8888 L 617.3711 -1005.8644 L 617.4669 -1005.8188 L 617.5510 -1005.7541 L 617.6201 -1005.6721 L 617.6702 -1005.5773 L 617.6987 -1005.4751 L 617.7050 -1005.3692 L 617.6885 -1005.2632 M 612.6901 -1002.2652 L 612.8586 -1003.0621 L 613.1776 -1003.8031 L 613.6355 -1004.4674 L 614.2207 -1005.0339 L 614.9064 -1005.4737 L 615.6579 -1005.7670 L 616.4523 -1005.9076 L 617.2667 -1005.8888 M 612.6901 -1002.2652 L 612.6366 -1002.0886 L 612.5269 -1001.9473 L 612.3745 -1001.8535 L 612.1931 -1001.8195 M 610.2658 -1001.8195 L 610.1678 -1001.8292 L 610.0745 -1001.8576 L 609.9884 -1001.9036 L 609.9123 -1001.9660 L 609.8498 -1002.0421 L 609.8039 -1002.1282 L 609.7755 -1002.2215 L 609.7658 -1002.3195 M 609.7658 -1021.9201 L 609.8536 -1022.5065 L 610.1029 -1023.0312 L 610.4923 -1023.4623 L 611.0005 -1023.7678 L 611.5759 -1023.9111 L 612.1560 -1023.8816 L 612.7033 -1023.6868 L 613.1800 -1023.3343 M 638.2805 -998.2338 L 638.6331 -997.7570 L 638.8279 -997.2097 L 638.8574 -996.6296 L 638.7141 -996.0542 L 638.4085 -995.5460 L 637.9775 -995.1566 L 637.4528 -994.9074 L 636.8663 -994.8195 M 617.2658 -994.8195 L 617.0712 -994.8588 L 616.9123 -994.9660 L 616.8051 -995.1249 L 616.7658 -995.3195 M 604.7658 -1078.8195 L 604.8444 -1079.2088 L 605.0587 -1079.5267 L 605.3766 -1079.7410 L 605.7658 -1079.8195 M 1123.7658 -1079.8195 L 1124.1551 -1079.7410 L 1124.4729 -1079.5267 L 1124.6872 -1079.2088 L 1124.7658 -1078.8195 M 1112.7658 -1078.8195 L 1112.8444 -1079.2088 L 1113.0587 -1079.5267 L 1113.3766 -1079.7410 L 1113.7658 -1079.8195 M 1034.7658 -1000.8195 L 1034.7852 -1001.0155 L 1034.8419 -1001.2022 L 1034.9338 -1001.3743 L 1035.0587 -1001.5267 L 1035.2110 -1001.6515 L 1035.3831 -1001.7434 L 1035.5698 -1001.8002 L 1035.7658 -1001.8195 M 1035.7658 -989.8195 L 1035.3766 -989.8981 L 1035.0587 -990.1124 L 1034.8444 -990.4303 L 1034.7658 -990.8195 M 1092.6653 -994.8195 L 1092.0789 -994.9074 L 1091.5542 -995.1566 L 1091.1231 -995.5460 L 1090.8176 -996.0542 L 1090.6743 -996.6296 L 1090.7037 -997.2097 L 1090.8985 -997.7570 L 1091.2511 -998.2338 M 1116.3516 -1023.3343 L 1116.8284 -1023.6868 L 1117.3756 -1023.8816 L 1117.9558 -1023.9111 L 1118.5312 -1023.7678 L 1119.0394 -1023.4623 L 1119.4288 -1023.0312 L 1119.6780 -1022.5065 L 1119.7658 -1021.9201 M 1119.7658 -1002.3195 L 1119.7561 -1002.2215 L 1119.7278 -1002.1282 L 1119.6818 -1002.0421 L 1119.6194 -1001.9660 L 1119.5432 -1001.9036 L 1119.4572 -1001.8576 L 1119.3638 -1001.8292 L 1119.2658 -1001.8195 M 1117.3386 -1001.8195 L 1117.1572 -1001.8535 L 1117.0048 -1001.9473 L 1116.8950 -1002.0886 L 1116.8415 -1002.2652 M 1112.2650 -1005.8888 L 1113.0793 -1005.9076 L 1113.8737 -1005.7670 L 1114.6253 -1005.4737 L 1115.3109 -1005.0339 L 1115.8962 -1004.4674 L 1116.3540 -1003.8031 L 1116.6730 -1003.0621 L 1116.8415 -1002.2652 M 1111.8431 -1005.2632 L 1111.8266 -1005.3692 L 1111.8329 -1005.4751 L 1111.8614 -1005.5773 L 1111.9115 -1005.6721 L 1111.9807 -1005.7541 L 1112.0647 -1005.8188 L 1112.1605 -1005.8644 L 1112.2650 -1005.8888 M 1112.6225 -1003.9147 L 1112.4498 -1003.9330 L 1112.2978 -1004.0066 L 1112.1788 -1004.1266 L 1112.1055 -1004.2841 M 1112.6225 -1003.9147 L 1113.2611 -1003.8604 L 1113.8416 -1003.6231 L 1114.3262 -1003.2251 L 1114.6774 -1002.6889 L 1114.8507 -1002.0719 L 1114.8322 -1001.4451 L 1114.6296 -1000.8516 L 1114.2507 -1000.3346 L 1113.7338 -999.9558 L 1113.1403 -999.7532 L 1112.5135 -999.7346 L 1111.8964 -999.9080 L 1111.3603 -1000.2591 L 1110.9623 -1000.7438 L 1110.7250 -1001.3242 L 1110.6707 -1001.9628 M 1110.3013 -1002.4799 L 1110.4587 -1002.4066 L 1110.5787 -1002.2876 L 1110.6523 -1002.1355 L 1110.6707 -1001.9628 M 1108.6965 -1002.3204 L 1108.7210 -1002.4248 L 1108.7665 -1002.5206 L 1108.8312 -1002.6047 L 1108.9132 -1002.6739 L 1109.0081 -1002.7239 L 1109.1103 -1002.7524 L 1109.2162 -1002.7588 L 1109.3222 -1002.7423 M 1112.3202 -997.7438 L 1111.5233 -997.9124 L 1110.7822 -998.2313 L 1110.1180 -998.6892 L 1109.5514 -999.2744 L 1109.1117 -999.9601 L 1108.8184 -1000.7116 L 1108.6778 -1001.5061 L 1108.6965 -1002.3204 M 1112.3202 -997.7438 L 1112.4968 -997.6904 L 1112.6381 -997.5806 L 1112.7319 -997.4282 L 1112.7658 -997.2468 M 1112.7658 -995.3195 L 1112.7265 -995.1249 L 1112.6194 -994.9660 L 1112.4604 -994.8588 L 1112.2658 -994.8195 M 1035.7658 -1377.8195 L 1035.5698 -1377.8389 L 1035.3831 -1377.8957 L 1035.2110 -1377.9876 L 1035.0587 -1378.1124 L 1034.9338 -1378.2647 L 1034.8419 -1378.4369 L 1034.7852 -1378.6235 L 1034.7658 -1378.8195 M 1113.7658 -1299.8195 L 1113.3766 -1299.8981 L 1113.0587 -1300.1124 L 1112.8444 -1300.4303 L 1112.7658 -1300.8195 M 1124.7658 -1300.8195 L 1124.6872 -1300.4303 L 1124.4729 -1300.1124 L 1124.1551 -1299.8981 L 1123.7658 -1299.8195 M 1123.7658 -1389.8195 L 1124.1551 -1389.7410 L 1124.4729 -1389.5267 L 1124.6872 -1389.2088 L 1124.7658 -1388.8195 M 1112.7658 -1382.3923 L 1112.7319 -1382.2109 L 1112.6381 -1382.0585 L 1112.4968 -1381.9487 L 1112.3202 -1381.8953 M 1108.6965 -1377.3187 L 1108.6778 -1378.1330 L 1108.8184 -1378.9275 L 1109.1117 -1379.6790 L 1109.5514 -1380.3647 L 1110.1180 -1380.9499 L 1110.7822 -1381.4078 L 1111.5233 -1381.7267 L 1112.3202 -1381.8953 M 1109.3222 -1376.8968 L 1109.2162 -1376.8803 L 1109.1103 -1376.8866 L 1109.0081 -1376.9151 L 1108.9132 -1376.9652 L 1108.8312 -1377.0344 L 1108.7665 -1377.1184 L 1108.7210 -1377.2143 L 1108.6965 -1377.3187 M 1110.6707 -1377.6763 L 1110.6523 -1377.5035 L 1110.5787 -1377.3515 L 1110.4587 -1377.2325 L 1110.3013 -1377.1592 M 1110.6707 -1377.6763 L 1110.7250 -1378.3149 L 1110.9623 -1378.8953 L 1111.3603 -1379.3800 L 1111.8964 -1379.7311 L 1112.5135 -1379.9044 L 1113.1403 -1379.8859 L 1113.7338 -1379.6833 L 1114.2507 -1379.3045 L 1114.6296 -1378.7875 L 1114.8322 -1378.1940 L 1114.8507 -1377.5672 L 1114.6774 -1376.9501 L 1114.3262 -1376.4140 L 1113.8416 -1376.0160 L 1113.2611 -1375.7787 L 1112.6225 -1375.7244 M 1112.1055 -1375.3550 L 1112.1788 -1375.5125 L 1112.2978 -1375.6324 L 1112.4498 -1375.7061 L 1112.6225 -1375.7244 M 1112.2650 -1373.7502 L 1112.1605 -1373.7747 L 1112.0647 -1373.8202 L 1111.9807 -1373.8850 L 1111.9115 -1373.9670 L 1111.8614 -1374.0618 L 1111.8329 -1374.1640 L 1111.8266 -1374.2699 L 1111.8431 -1374.3759 M 1116.8415 -1377.3739 L 1116.6730 -1376.5770 L 1116.3540 -1375.8359 L 1115.8962 -1375.1717 L 1115.3109 -1374.6051 L 1114.6253 -1374.1654 L 1113.8737 -1373.8721 L 1113.0793 -1373.7315 L 1112.2650 -1373.7502 M 1116.8415 -1377.3739 L 1116.8950 -1377.5505 L 1117.0048 -1377.6918 L 1117.1572 -1377.7856 L 1117.3386 -1377.8195 M 1119.2658 -1377.8195 L 1119.3638 -1377.8098 L 1119.4572 -1377.7815 L 1119.5432 -1377.7355 L 1119.6194 -1377.6731 L 1119.6818 -1377.5969 L 1119.7278 -1377.5109 L 1119.7561 -1377.4175 L 1119.7658 -1377.3195 M 1119.7658 -1357.7190 L 1119.6780 -1357.1326 L 1119.4288 -1356.6079 L 1119.0394 -1356.1768 L 1118.5312 -1355.8713 L 1117.9558 -1355.7280 L 1117.3756 -1355.7575 L 1116.8284 -1355.9522 L 1116.3516 -1356.3048 M 1091.2511 -1381.4053 L 1090.8985 -1381.8821 L 1090.7037 -1382.4294 L 1090.6743 -1383.0095 L 1090.8176 -1383.5849 L 1091.1231 -1384.0931 L 1091.5542 -1384.4825 L 1092.0789 -1384.7317 L 1092.6653 -1384.8195 M 1112.2658 -1384.8195 L 1112.4604 -1384.7803 L 1112.6194 -1384.6731 L 1112.7265 -1384.5142 L 1112.7658 -1384.3195 M 1034.7658 -1388.8195 L 1034.8444 -1389.2088 L 1035.0587 -1389.5267 L 1035.3766 -1389.7410 L 1035.7658 -1389.8195" fill="none" stroke="#000000" stroke-width="1.0" stroke-linecap="round" stroke-linejoin="round" />
</g>
</svg>
